<svg width="33" height="44" viewBox="0 0 33 44" fill="none" xmlns="http://www.w3.org/2000/svg">
<path d="M29.4824 16.1934C26.0588 16.3671 22.7121 15.2088 20.1549 12.9652C17.6011 10.7248 16.0396 7.5759 15.8042 4.19164C15.682 2.78509 13.4922 2.72994 13.553 4.19059C13.707 7.12696 13.1575 10.0629 11.9494 12.7583C10.7407 15.4527 8.90945 17.8305 6.60489 19.6982C5.92945 19.7509 5.26229 19.8842 4.61793 20.0954C3.358 20.516 3.73149 22.343 4.85478 22.3348C4.91422 22.4674 5.00313 22.5849 5.11493 22.6783C5.22674 22.7718 5.35854 22.8389 5.50054 22.8746C5.64253 22.9104 5.79108 22.9139 5.9351 22.8848C6.07912 22.8558 6.21492 22.7949 6.3324 22.7068C6.6757 22.4767 6.98484 22.2371 7.33092 21.9937C13.8788 22.434 17.1941 35.6232 17.8687 40.4046C18.0189 41.4657 19.8795 41.4717 20.0355 40.3971C21.0962 33.0895 22.8287 22.184 30.0446 18.3014C30.2721 18.1825 30.4526 17.9906 30.5564 17.7573C30.6602 17.5241 30.6811 17.2633 30.6156 17.018C30.5502 16.7726 30.4023 16.5573 30.1964 16.4074C29.9904 16.2575 29.7386 16.1821 29.4824 16.1934ZM18.7999 34.152C17.201 28.5367 14.1861 21.8319 9.48163 20.1005C12.2904 17.3576 14.2736 13.8945 15.2061 10.1042C16.2614 12.2336 17.8157 14.0788 19.7399 15.4865C21.664 16.8973 23.9027 17.8307 26.2706 18.2095C22.0093 22.004 20.0012 28.2961 18.825 34.1515L18.8014 34.1579L18.7999 34.152Z" fill="#275CF6"/>
</svg>
