<svg width="1228" height="379" viewBox="0 0 1228 379" fill="none" xmlns="http://www.w3.org/2000/svg">
<circle cx="39.5" cy="163.5" r="39.5" fill="#E9F4FE"/>
<path d="M45.84 180H38.544V154.128L31.68 160.608V154.176L39.648 146.64H45.84V180Z" fill="#1A1B21"/>
<ellipse cx="433.5" cy="163.5" rx="39.5" ry="39.5" fill="#E9F4FE"/>
<path d="M444.384 180H421.728V175.584C424.288 173.408 426.496 171.488 428.352 169.824C430.24 168.128 431.792 166.576 433.008 165.168C434.256 163.728 435.168 162.368 435.744 161.088C436.352 159.808 436.656 158.464 436.656 157.056C436.656 155.136 436.144 153.664 435.12 152.64C434.096 151.584 432.576 151.056 430.56 151.056C429.632 151.056 428.768 151.168 427.968 151.392C427.2 151.616 426.48 151.904 425.808 152.256C425.136 152.576 424.512 152.96 423.936 153.408C423.392 153.824 422.912 154.24 422.496 154.656V149.568C422.816 149.216 423.264 148.848 423.84 148.464C424.416 148.08 425.104 147.728 425.904 147.408C426.736 147.056 427.696 146.768 428.784 146.544C429.872 146.32 431.12 146.208 432.528 146.208C436.272 146.208 439.136 147.136 441.12 148.992C443.136 150.848 444.144 153.312 444.144 156.384C444.144 158.272 443.808 160.032 443.136 161.664C442.464 163.264 441.504 164.816 440.256 166.32C439.008 167.824 437.504 169.312 435.744 170.784C433.984 172.224 432.016 173.728 429.84 175.296H444.384V180Z" fill="#1A1B21"/>
<ellipse cx="827.5" cy="163.5" rx="39.5" ry="39.5" fill="#E9F4FE"/>
<path d="M838.712 170.64C838.712 172.048 838.424 173.36 837.848 174.576C837.272 175.76 836.424 176.8 835.304 177.696C834.216 178.56 832.888 179.248 831.32 179.76C829.752 180.24 827.96 180.48 825.944 180.48C823.608 180.48 821.656 180.176 820.088 179.568C818.52 178.928 817.224 178.176 816.2 177.312V172.464C816.648 172.816 817.16 173.184 817.736 173.568C818.312 173.92 818.952 174.256 819.656 174.576C820.392 174.864 821.208 175.12 822.104 175.344C823 175.536 824.008 175.632 825.128 175.632C827.336 175.632 828.936 175.168 829.928 174.24C830.92 173.312 831.416 171.984 831.416 170.256C831.416 166.8 829.368 165.072 825.272 165.072H821.192V160.416H825.368C826.872 160.416 828.088 160.016 829.016 159.216C829.976 158.384 830.456 157.2 830.456 155.664C830.456 154.192 830.024 153.056 829.16 152.256C828.296 151.456 827 151.056 825.272 151.056C823.64 151.056 822.104 151.344 820.664 151.92C819.256 152.496 817.992 153.232 816.872 154.128V149.424C817.96 148.528 819.304 147.776 820.904 147.168C822.504 146.528 824.456 146.208 826.76 146.208C828.488 146.208 830.008 146.432 831.32 146.88C832.664 147.328 833.784 147.952 834.68 148.752C835.608 149.52 836.312 150.448 836.792 151.536C837.272 152.624 837.512 153.808 837.512 155.088C837.512 157.104 836.92 158.752 835.736 160.032C834.584 161.28 833.08 162.08 831.224 162.432C832.312 162.592 833.304 162.896 834.2 163.344C835.128 163.76 835.928 164.32 836.6 165.024C837.272 165.728 837.784 166.544 838.136 167.472C838.52 168.4 838.712 169.456 838.712 170.64Z" fill="#1A1B21"/>
<path d="M68.1731 157.209C128.098 71.4347 237.58 48.2638 335.562 127.605C335.688 127.674 335.296 123.464 334.208 122.622C243.874 46.4225 125.612 59.7159 66.4315 152.34C65.856 153.246 68.0763 157.238 68.1731 157.209Z" fill="#275CF6"/>
<path d="M286.706 125.108C298.121 122.722 307.139 119.342 321.994 122.947C325.169 123.715 333.224 124.963 335.572 128.304C336.458 129.53 335.622 125.957 335.565 125.762C330.194 108.144 338.222 90.9523 349.663 83.2582C350.353 82.7382 348.506 77.8715 348.05 78.111C323.837 92.1922 334.753 133.421 334.588 123.504C331.777 119.661 302.406 110.018 285.779 122.304C285.42 122.515 286.317 125.221 286.706 125.108Z" fill="#275CF6"/>
<path d="M851.863 162.206C1091.39 -60.6212 1270.26 172.435 1135.75 302.019C1118.11 319.035 1098.24 330.637 1078.57 343.999C1077.66 344.669 1076.35 349.576 1076.93 349.419C1096.35 340.873 1115.4 325.84 1131.37 310.744C1278.82 171.709 1094.53 -71.3948 853.309 157.611C852.307 158.504 851.907 162.094 851.863 162.206Z" fill="#275CF6"/>
<path d="M1092.61 302.695C1089.04 318.838 1086.52 335.274 1074.53 347.679C1073.84 348.429 1072.46 353.521 1072.97 353.213C1091.25 342.675 1117.84 345.582 1134.3 355.605C1134.93 355.984 1136.09 352.088 1136.16 351.601C1137.24 342.673 1079.49 330.677 1073.26 352.816C1086.05 339.062 1091.48 318.915 1093.95 300.662C1094.18 299.089 1092.63 302.318 1092.61 302.695Z" fill="#275CF6"/>
<path d="M407.654 184.384C437.647 205.849 578.629 280.053 680.11 277.281C703.615 276.636 726.552 272.345 747.599 263.724C748.067 263.57 750.217 260.501 749.701 260.38C736.767 257.589 724.966 251.981 714.095 244.014C713.19 245.307 712.422 246.575 711.517 247.867C730.468 257.154 751.084 257.377 751.084 257.377C752.631 258.94 751.047 261.202 749.895 284.104C749.895 284.104 751.736 282.504 751.81 281.713C751.875 281.277 754.638 253.846 753.912 253.338C753.187 252.831 726.67 250.405 713.982 244.176C713.2 243.749 710.759 247.577 711.404 248.028C722.057 255.963 734.519 261.312 747.349 263.91C748.004 262.803 748.715 261.616 749.45 260.566C711.762 276.319 668.268 277.901 626.238 270.88C560.024 259.816 450.456 211.561 408.187 183.794C408.002 183.544 407.493 184.271 407.654 184.384Z" fill="#275CF6"/>
</svg>
