<svg width="265" height="155" viewBox="0 0 265 155" fill="none" xmlns="http://www.w3.org/2000/svg">
<path d="M0 25C0 11.1929 11.1929 0 25 0H240C253.807 0 265 11.1929 265 25V130C265 143.807 253.807 155 240 155H25C11.1929 155 0 143.807 0 130V25Z" fill="white"/>
<path d="M199.452 61.1496C191.25 58.4277 182.58 58.6519 174.052 58.5005C164.948 58.3404 156.032 56.5674 146.957 56.0347C146.957 56.0347 142.187 55.5514 139.655 58.1919C137.983 59.9415 136.761 62.2821 135.633 64.4014C134.445 66.6403 133.418 68.9616 132.559 71.3475C132.52 71.4405 132.503 71.5411 132.508 71.642C132.513 71.7428 132.54 71.8412 132.588 71.9297C132.038 71.839 131.478 71.8117 130.922 71.8482C131.029 70.8188 130.905 69.7784 130.56 68.8034C130.214 67.8284 129.656 66.9438 128.926 66.2147C128.195 65.4857 127.312 64.9307 126.34 64.5906C125.368 64.2506 124.333 64.1342 123.311 64.2501C123.065 61.9269 121.412 59.9619 119.253 59.0449C116.388 57.8309 113.211 58.6693 110.543 60.0143C106.87 55.6592 99.9888 58.0056 96.8287 61.7814C94.7798 64.2355 94.0216 67.464 92.1551 70.0491C90.1523 72.7752 87.4839 74.9351 84.4082 76.3198C83.4879 76.7419 84.2866 78.1044 85.1982 77.6822C90.2625 75.3533 93.7438 71.3184 96.0011 66.2821C97.3004 63.3796 99.2046 60.8876 102.281 59.7668C104.79 58.8411 107.831 59.0856 109.585 61.3068C109.658 61.4122 109.762 61.4924 109.882 61.5367C110.002 61.5809 110.133 61.5871 110.256 61.5543C110.368 61.6184 110.494 61.6521 110.622 61.6521C110.751 61.6521 110.877 61.6184 110.988 61.5543C113.133 60.4189 115.697 59.5601 118.122 60.3083C120.26 60.9691 121.89 62.8818 121.768 65.1787C121.769 65.3616 121.833 65.5386 121.949 65.6793C122.065 65.82 122.226 65.9158 122.405 65.9502C122.521 65.9735 122.642 65.9706 122.758 65.9385C123.663 65.709 124.612 65.7222 125.511 65.9768C126.409 66.2314 127.225 66.7184 127.878 67.3894C128.531 68.0604 128.998 68.8919 129.232 69.8009C129.466 70.71 129.459 71.6648 129.211 72.5702C129.178 72.704 129.18 72.8442 129.216 72.9771C129.252 73.1101 129.322 73.2314 129.419 73.3292C129.515 73.427 129.636 73.4981 129.768 73.5354C129.9 73.5728 130.039 73.5753 130.172 73.5425C132.999 72.9428 135.679 74.6284 137.204 76.9544C138.807 79.4057 138.998 82.4973 138.796 85.3416C138.344 91.586 133.96 97.4142 132.151 103.379C132.125 103.467 132.114 103.554 132.123 103.644C130.236 107.944 122.442 106.614 119.213 104.168L119.494 104.055C121.861 103.132 124.407 102.162 126.416 100.582C128.424 99.0037 129.741 96.7097 130.988 94.4943C131.486 93.6064 130.129 92.8116 129.634 93.6937C128.418 95.8567 127.162 98.1333 125.111 99.6063C123.16 101.01 120.776 101.903 118.553 102.745C114.076 104.439 109.081 105.947 104.425 104.148C103.485 103.781 103.074 105.304 104.008 105.667C108.433 107.376 113.197 106.337 117.558 104.794C117.589 104.841 117.63 104.884 117.673 104.922C121.366 108.337 131.486 109.973 133.682 104.095C133.729 104.031 133.763 103.959 133.786 103.886C134.935 100.095 136.756 97.3997 138.249 93.2192C138.509 92.4798 138.778 91.6967 139.03 90.8903C139.939 92.244 141.154 93.6064 142.859 93.7636C144.74 93.9383 146.193 92.6108 147.226 91.1988C147.709 93.0911 148.537 94.896 150.366 95.8393C152.189 96.7796 155.158 96.4128 157.016 95.4026C157.054 95.5183 157.122 95.6221 157.212 95.7037C157.303 95.7853 157.412 95.8421 157.531 95.8684C160.856 96.7708 164.858 98.1362 167 94.3662C168.01 92.5875 168.406 90.3895 168.933 88.4274C169.121 87.7287 169.303 87.0242 169.483 86.3197C169.619 86.4449 169.792 86.5177 169.977 86.5235C175.125 86.8021 180.237 85.517 184.649 82.835C185.515 82.311 184.725 80.9428 183.856 81.4726C179.683 84.0079 174.845 85.2173 169.977 84.9427C169.927 84.9378 169.877 84.9378 169.827 84.9427C170.154 83.6152 170.466 82.2819 170.767 80.9486C170.996 79.9588 169.483 79.5367 169.257 80.5294C168.423 84.2091 167.521 87.883 166.43 91.4929C165.894 93.2949 165.127 95.0154 163.081 95.324C161.385 95.5802 159.826 94.8873 158.234 94.4215C158.315 94.3284 158.396 94.2352 158.468 94.1362L158.639 94.2177C158.817 93.8276 159.007 93.4431 159.209 93.0649L159.331 92.8058L159.224 92.7534C159.768 91.3735 159.959 89.7724 160.257 88.3954C161.038 84.8146 161.82 81.231 162.595 77.6357C162.812 76.6459 161.299 76.2237 161.082 77.2164C160.04 82.0112 159.287 87.0009 157.913 91.7054C157.195 94.1682 154.585 95.0038 152.212 94.7388C149.463 94.4244 148.803 91.4492 148.401 89.161C149.023 87.6796 149.444 86.1208 149.654 84.5264C150.106 81.7707 150.802 79.0613 151.734 76.4304C152.061 75.4697 150.548 75.0534 150.221 76.0112C149.58 77.8164 149.04 79.6563 148.603 81.5221C148.215 83.2833 148.105 85.1087 147.619 86.8495C147.187 88.5063 146.333 90.0213 145.142 91.2454C143.154 93.1668 141.299 91.5249 140.118 89.6676C140.055 89.5594 139.966 89.4692 139.859 89.4055C139.751 89.3418 139.629 89.3068 139.505 89.3037C140.165 86.8583 140.604 84.2848 140.402 81.9733C140.28 80.6259 139.953 79.3053 139.432 78.0578C139.568 77.9588 139.664 77.8191 139.71 77.6589L141.418 72.2034C141.733 71.234 140.205 70.8177 139.901 71.7842L138.509 76.2441C137.355 74.381 135.737 72.8846 133.746 72.2267C133.919 72.1327 134.05 71.9768 134.114 71.79C135.434 68.0989 137.18 64.5757 139.314 61.2923C140.315 59.7727 141.748 58.2967 143.603 57.8192C144.832 57.5048 147.09 57.6096 148.681 57.7377C156.972 58.3695 165.145 59.9124 173.482 60.0783C182.062 60.253 190.784 59.9386 199.041 62.6867C200.001 62.9953 200.415 61.4699 199.452 61.1496Z" fill="#1A1B21"/>
<path d="M55 94.254L83.4913 77C85.737 77 87.9536 77.4961 89.9845 78.4508C93.2979 80.0285 105.623 91.2225 106.812 94.254C108.005 97.2825 108.269 105.038 107.741 108.205C107.213 111.375 88.6586 141 88.6586 141C88.6586 141 88.1277 109.414 74.6161 103.864C61.0957 98.3151 55 94.254 55 94.254Z" fill="#275CF6"/>
<path d="M100.973 112.932C101.33 112.944 101.685 112.884 102.018 112.756C102.351 112.628 102.655 112.434 102.911 112.186C103.167 111.938 103.371 111.641 103.51 111.312C103.65 110.984 103.721 110.631 103.721 110.274C103.721 109.918 103.65 109.565 103.51 109.236C103.371 108.908 103.167 108.611 102.911 108.363C102.655 108.115 102.351 107.921 102.018 107.793C101.685 107.665 101.33 107.604 100.973 107.616C100.283 107.639 99.6294 107.929 99.1494 108.425C98.6694 108.921 98.401 109.584 98.401 110.274C98.401 110.965 98.6694 111.628 99.1494 112.124C99.6294 112.62 100.283 112.91 100.973 112.932ZM152.341 27.3162C152.69 27.3162 153.036 27.2475 153.359 27.1139C153.681 26.9803 153.974 26.7845 154.221 26.5377C154.468 26.2908 154.664 25.9978 154.798 25.6753C154.931 25.3528 155 25.0072 155 24.6581C155 24.309 154.931 23.9634 154.798 23.6409C154.664 23.3184 154.468 23.0254 154.221 22.7785C153.974 22.5317 153.681 22.3359 153.359 22.2023C153.036 22.0688 152.69 22 152.341 22C151.636 22 150.96 22.28 150.461 22.7785C149.963 23.277 149.682 23.9531 149.682 24.6581C149.682 25.3631 149.963 26.0392 150.461 26.5377C150.96 27.0362 151.636 27.3162 152.341 27.3162ZM152.341 129C153.046 129 153.722 128.72 154.22 128.222C154.719 127.724 154.999 127.048 154.999 126.343C154.999 125.639 154.719 124.963 154.22 124.465C153.722 123.967 153.046 123.687 152.341 123.687C151.636 123.687 150.961 123.967 150.462 124.465C149.964 124.963 149.684 125.639 149.684 126.343C149.684 127.048 149.964 127.724 150.462 128.222C150.961 128.72 151.636 129 152.341 129ZM95.6588 50.2313C96.3639 50.2313 97.0402 49.9513 97.5388 49.4528C98.0374 48.9543 98.3175 48.2782 98.3175 47.5732C98.3175 46.8682 98.0374 46.1921 97.5388 45.6936C97.0402 45.1952 96.3639 44.9151 95.6588 44.9151C94.9536 44.9151 94.2773 45.1952 93.7787 45.6936C93.2801 46.1921 93 46.8682 93 47.5732C93 48.2782 93.2801 48.9543 93.7787 49.4528C94.2773 49.9513 94.9536 50.2313 95.6588 50.2313Z" fill="#1A1B21"/>
<path d="M194.046 54.6774L182 90L207.075 85.2884L213 53L194.046 54.6745V54.6774Z" fill="#DBDBDB"/>
<path d="M151.607 34.9222C144.489 39.5021 138.684 45.8494 134.762 53.3421C134.296 54.2348 135.648 55.0264 136.117 54.1308C139.904 46.8707 145.516 40.7174 152.403 36.2742C153.252 35.7282 152.461 34.3733 151.61 34.9251L151.607 34.9222ZM120.947 45.8915C119.15 42.2257 116.982 38.7526 114.478 35.526C112.47 32.9432 110.258 29.9792 106.97 29.0345C105.998 28.7543 105.581 30.2652 106.554 30.5454C109.836 31.4843 112.206 35.0406 114.131 37.6465C116.215 40.4892 118.044 43.511 119.59 46.6802C120.033 47.5873 121.384 46.7957 120.947 45.8915ZM140.065 110.945C138.989 114.436 137.614 117.827 135.955 121.082C134.363 124.188 132.623 127.435 129.897 129.7C129.121 130.344 130.235 131.448 131.008 130.806C133.836 128.455 135.659 125.092 137.309 121.871C139.034 118.497 140.463 114.98 141.581 111.361C141.879 110.396 140.366 109.983 140.065 110.945ZM185.24 121.556C176.763 120.741 168.062 117.994 162.432 111.292C161.784 110.517 160.678 111.63 161.327 112.398C167.223 119.421 176.395 122.27 185.24 123.122C186.253 123.217 186.253 121.651 185.24 121.553V121.556Z" fill="#275CF6"/>
</svg>
