<svg width="161" height="30" viewBox="0 0 161 30" fill="none" xmlns="http://www.w3.org/2000/svg">
<path d="M36.0078 4.76172V24.3376H39.416V7.40939H45.5V24.3376H48.9081V4.76172H36.0078Z" fill="#1A1B21"/>
<path d="M54.8124 10.1697H51.714V28.4217H55.0659V22.6757C55.9109 23.9432 57.1502 24.6192 58.5867 24.6192C61.854 24.6192 64.1074 21.9997 64.1074 17.2396C64.1074 12.5076 61.9104 9.88805 58.7557 9.88805C57.1784 9.88805 55.8827 10.6204 54.9814 12.0006L54.8124 10.1697ZM57.7417 21.9716C55.9672 21.9716 55.0659 20.5351 55.0659 17.2677C55.0659 13.9722 56.0235 12.5357 57.9107 12.5357C59.7415 12.5357 60.6429 13.9722 60.6429 17.2396C60.6429 20.5351 59.6852 21.9716 57.7417 21.9716Z" fill="#1A1B21"/>
<path d="M76.8006 14.6764C76.8006 11.2401 75.0543 9.94439 71.5053 9.94439C69.2801 9.94439 67.5338 10.6486 66.5198 11.2401V14.0286C67.4211 13.3526 69.3928 12.6202 71.111 12.6202C72.7165 12.6202 73.4488 13.1836 73.4488 14.7046V15.4932H72.9136C67.7873 15.4932 65.5058 17.1832 65.5058 20.0562C65.5058 22.9292 67.2521 24.5347 69.8435 24.5347C71.8151 24.5347 72.6601 23.8869 73.308 23.2109H73.4488C73.477 23.5771 73.5896 24.0559 73.7023 24.3376H76.9696C76.857 23.1827 76.8006 22.0279 76.8006 20.8731V14.6764ZM73.4488 20.9576C73.0263 21.5772 72.2376 22.0842 71.0546 22.0842C69.6463 22.0842 68.9421 21.2956 68.9421 20.0844C68.9421 18.4789 70.097 17.8874 72.97 17.8874H73.4488V20.9576Z" fill="#1A1B21"/>
<path d="M87.8048 24.3376H91.6073L86.2274 16.8171L90.9594 10.1697H87.5794L82.8474 16.8171V10.1697H79.4956V24.3376H82.8474V17.4931L87.8048 24.3376Z" fill="#1A1B21"/>
<path d="M102.845 12.8174V10.1697H91.6062V12.8174H95.5495V24.3376H98.9013V12.8174H102.845Z" fill="#1A1B21"/>
<path d="M104.829 10.1697V24.3376H107.815L112.941 15.5777V24.3376H116.18V10.1697H113.195L108.068 18.9296V10.1697H104.829Z" fill="#1A1B21"/>
<path d="M127.304 24.3376H131.107L125.727 16.8171L130.459 10.1697H127.079L122.347 16.8171V10.1697H118.995V24.3376H122.347V17.4931L127.304 24.3376Z" fill="#1A1B21"/>
<path d="M134.056 28.7034C137.182 28.7034 138.337 26.4782 139.295 23.5771L143.717 10.1697H140.478L137.351 20.8167L134.225 10.1697H130.704L135.577 24.9572C135.211 25.6332 134.675 26.0557 133.746 26.0557C133.126 26.0557 132.591 25.8586 132.225 25.4924V28.2246C132.225 28.2246 132.732 28.7034 134.056 28.7034Z" fill="#1A1B21"/>
<path d="M157.072 24.3376H160.339L160.283 10.1697H155.692L152.622 19.6056L149.861 10.1697H144.989V24.3376H147.833V13.7469L150.904 24.3376H153.636L157.072 13.7469V24.3376Z" fill="#1A1B21"/>
<mask id="mask0_393_21398" style="mask-type:alpha" maskUnits="userSpaceOnUse" x="-1" y="-1" width="30" height="31">
<path fill-rule="evenodd" clip-rule="evenodd" d="M14.0068 29.5C22.2614 29.5 28.9531 22.8083 28.9531 14.5537C28.9531 6.2991 22.2614 -0.392578 14.0068 -0.392578C5.75223 -0.392578 -0.939453 6.2991 -0.939453 14.5537C-0.939453 22.8083 5.75223 29.5 14.0068 29.5ZM14.5502 8.29291H15.8851V23.1198H18.8727V5.97273H14.5343C10.1641 5.97273 7.85985 8.22934 7.85985 11.5348C7.85985 14.1728 9.11529 15.7302 11.356 17.3352L7.46256 23.1357H10.7044L15.0429 16.6519L13.5332 15.6348C11.7056 14.3953 10.8157 13.4259 10.8157 11.36C10.8157 9.53245 12.1029 8.29291 14.5502 8.29291Z" fill="#1A1B21"/>
</mask>
<g mask="url(#mask0_393_21398)">
<circle cx="14.0068" cy="14.5537" r="14" fill="#1A1B21"/>
</g>
</svg>
