<svg width="519" height="143" viewBox="0 0 519 143" fill="none" xmlns="http://www.w3.org/2000/svg">
<path d="M518.12 93.1041C523.688 21.714 423.758 -29.4325 364.562 31.5913C344.635 52.1282 333.499 84.6938 346.491 113.641C375.209 177.892 437.727 101.906 351.179 42.3487C257.111 -22.2935 94.0776 50.8568 7.62811 37.3612C6.55359 37.1656 7.04205 30.9067 7.72583 31.0045C96.8128 45.2825 286.318 -39.4076 371.888 53.9863C431.279 118.726 371.107 179.555 345.318 116.379C336.429 94.571 338.676 67.9709 349.323 47.5318C395.039 -39.9943 527.107 3.91543 518.608 93.7887C518.51 96.0379 518.022 94.1798 518.12 93.1041Z" fill="#275CF6"/>
<path d="M39.9845 7.87828C36.6848 18.0274 21.3512 33.8365 0.582893 38.3255C0.0976524 38.4231 -0.484657 32.2751 0.67992 32.0799C13.5873 29.1523 35.2291 51.1094 39.6933 60.8681C39.7904 61.1609 39.9845 64.1861 39.4992 63.991C34.8409 62.0392 16.887 35.0075 0.48587 38.3255C0.48587 36.2762 0.582893 34.1292 0.582893 32.0799C12.5198 30.1282 23.4863 24.6633 32.6088 14.9046C34.5498 12.8552 37.2672 7.58552 39.7904 7C40.0816 7.09759 39.9845 7.78069 39.9845 7.87828Z" fill="#275CF6"/>
</svg>
