<svg width="265" height="155" viewBox="0 0 265 155" fill="none" xmlns="http://www.w3.org/2000/svg">
<path d="M0 25C0 11.1929 11.1929 0 25 0H240C253.807 0 265 11.1929 265 25V130C265 143.807 253.807 155 240 155H25C11.1929 155 0 143.807 0 130V25Z" fill="white"/>
<path fill-rule="evenodd" clip-rule="evenodd" d="M140.581 80.0066C152.252 80.0754 165.442 80.6767 174.464 81.6061C183.532 82.54 190.982 84.7311 196.509 87.2864C201.997 89.8238 205.695 92.7707 207.109 95.2895C207.503 95.9899 207.787 97.1212 208.01 98.4583C208.239 99.8247 208.417 101.504 208.555 103.367C208.832 107.096 208.954 111.615 208.989 115.954C209.024 120.295 208.971 124.468 208.899 127.51C208.862 129.031 208.821 130.273 208.782 131.113C208.763 131.532 208.744 131.858 208.727 132.073C208.719 132.172 208.709 132.274 208.695 132.352C208.693 132.363 208.69 132.378 208.686 132.396C208.683 132.41 208.68 132.426 208.675 132.442L208.675 132.444C208.67 132.461 208.641 132.573 208.562 132.685C208.528 132.733 208.385 132.928 208.101 132.985C207.748 133.055 207.504 132.862 207.408 132.758C207.32 132.661 207.28 132.565 207.267 132.533C207.257 132.508 207.249 132.484 207.243 132.465C207.239 132.452 207.236 132.44 207.234 132.432L207.226 132.399C207.193 132.29 207.094 132.055 206.903 131.682C206.705 131.296 206.434 130.813 206.106 130.266C205.451 129.172 204.582 127.844 203.645 126.556C202.705 125.265 201.71 124.033 200.803 123.121C200.349 122.664 199.933 122.303 199.569 122.056C199.191 121.798 198.942 121.715 198.813 121.706L198.812 121.706C197.773 121.631 194.279 121.714 190.152 121.812C189.313 121.831 188.447 121.852 187.57 121.872C182.443 121.988 176.972 122.084 174.517 121.893C172.343 121.725 162.96 121.87 153.071 122.022C152.211 122.035 151.347 122.049 150.484 122.062C145.108 122.144 139.773 122.22 135.573 122.24C133.474 122.25 131.654 122.246 130.252 122.221C128.877 122.197 127.84 122.153 127.356 122.07L127.355 122.07C126.991 122.008 126.429 121.95 125.717 121.877C123.474 121.647 119.747 121.264 116.063 120.094C111.161 118.536 106.031 115.514 103.977 109.376C101.945 103.31 103.322 96.9991 105.914 91.941C107.212 89.4067 108.827 87.1645 110.502 85.3964C112.17 83.6368 113.933 82.3101 115.542 81.6565C116.372 81.319 117.639 81.0556 119.196 80.8432C120.771 80.6285 122.701 80.4587 124.893 80.3295C129.277 80.0708 134.745 79.9722 140.581 80.0066ZM119.396 82.2999C117.856 82.51 116.746 82.7549 116.099 83.018C114.754 83.5641 113.159 84.7332 111.574 86.4061C109.997 88.0705 108.463 90.1975 107.227 92.6098C104.749 97.445 103.509 103.337 105.376 108.91L105.376 108.91C107.216 114.41 111.819 117.202 116.511 118.693C120.021 119.809 123.414 120.157 125.679 120.39C126.475 120.472 127.131 120.54 127.605 120.621L127.605 120.621L127.48 121.346L127.605 120.621L127.605 120.621C127.955 120.681 128.866 120.726 130.278 120.751C131.663 120.776 133.471 120.78 135.566 120.77C139.757 120.75 145.084 120.674 150.462 120.592C151.36 120.578 152.259 120.564 153.156 120.55C162.963 120.399 172.383 120.253 174.631 120.428C176.993 120.611 182.37 120.519 187.536 120.402C188.396 120.382 189.251 120.362 190.084 120.342C194.202 120.245 197.801 120.159 198.917 120.239L198.916 120.239L198.864 120.972L198.917 120.239C199.436 120.276 199.946 120.532 200.4 120.841C200.87 121.161 201.361 121.592 201.851 122.086C202.833 123.074 203.878 124.372 204.839 125.693C205.8 127.013 206.691 128.375 207.368 129.504C207.348 130.111 207.328 130.63 207.309 131.046C207.29 131.461 207.272 131.766 207.257 131.953C207.253 131.999 207.25 132.035 207.247 132.062C207.244 132.084 207.243 132.095 207.242 132.097C207.242 132.098 207.242 132.098 207.242 132.097C207.243 132.097 207.245 132.081 207.252 132.056C207.255 132.044 207.262 132.02 207.273 131.991C207.282 131.968 207.307 131.908 207.355 131.84C207.388 131.794 207.529 131.6 207.811 131.543C208.162 131.473 208.405 131.666 208.499 131.769C208.586 131.863 208.624 131.957 208.636 131.985C208.652 132.024 208.66 132.056 208.664 132.072L208.664 132.072L207.949 132.252H208.687V132.159L208.665 132.072C208.596 131.795 208.422 131.415 208.216 131.013C207.999 130.589 207.711 130.077 207.372 129.512C207.371 129.509 207.369 129.506 207.368 129.504C207.387 128.907 207.406 128.226 207.424 127.475C207.497 124.446 207.549 120.289 207.514 115.965C207.48 111.64 207.358 107.158 207.084 103.476C206.948 101.634 206.773 100.004 206.556 98.6996C206.333 97.3657 206.078 96.4635 205.822 96.0083L205.822 96.0078C204.64 93.9013 201.293 91.1189 195.888 88.6201C190.522 86.1391 183.232 83.9872 174.312 83.0685C165.351 82.1454 152.212 81.5455 140.573 81.4768C134.754 81.4425 129.321 81.5411 124.98 81.7971C122.809 81.9252 120.92 82.0921 119.396 82.2999Z" fill="#1A1B21"/>
<path fill-rule="evenodd" clip-rule="evenodd" d="M129.419 23.0066C117.748 23.0754 104.558 23.6767 95.5359 24.6061C86.4684 25.54 79.0179 27.7311 73.4911 30.2864C68.003 32.8238 64.3049 35.7707 62.8911 38.2895C62.4974 38.9899 62.2127 40.1212 61.9895 41.4583C61.7614 42.8247 61.5833 44.5036 61.4447 46.3672C61.1676 50.0963 61.0457 54.6146 61.011 58.9536C60.9763 63.2949 61.0287 67.4678 61.1015 70.5104C61.1379 72.0313 61.1794 73.2728 61.2179 74.1133C61.237 74.5317 61.2557 74.8585 61.2732 75.0725C61.2813 75.172 61.2912 75.2741 61.3049 75.3518C61.3069 75.3633 61.3097 75.3783 61.3135 75.3956C61.3166 75.4099 61.3204 75.4258 61.325 75.4425L61.3254 75.4442C61.3299 75.4612 61.359 75.5725 61.4381 75.6847C61.4722 75.7331 61.6149 75.9282 61.8992 75.9849C62.2517 76.0553 62.4964 75.8623 62.5918 75.7576C62.6798 75.6612 62.7198 75.5652 62.7326 75.5334C62.743 75.5076 62.7508 75.4842 62.7566 75.4649C62.7606 75.4516 62.7635 75.4403 62.7658 75.4316L62.774 75.3991C62.8072 75.2903 62.9058 75.0547 63.097 74.682C63.2952 74.2957 63.5662 73.8127 63.8939 73.2655C64.549 72.1718 65.4177 70.8438 66.3549 69.5561C67.2946 68.265 68.2895 67.0332 69.1967 66.1206C69.6509 65.6637 70.0675 65.3028 70.4307 65.0558C70.8095 64.7982 71.0578 64.7147 71.1874 64.7056L71.1883 64.7055C72.2272 64.6313 75.721 64.7139 79.8475 64.8116C80.6873 64.8315 81.5532 64.852 82.43 64.8719C87.5566 64.9883 93.0281 65.0837 95.4831 64.8934C97.6571 64.7248 107.04 64.8696 116.929 65.0222C117.789 65.0355 118.653 65.0488 119.516 65.062C124.892 65.1441 130.227 65.2202 134.427 65.24C136.526 65.2499 138.346 65.2458 139.748 65.2212C141.123 65.1971 142.16 65.1531 142.644 65.0703L142.645 65.0701C143.009 65.0075 143.571 64.9499 144.283 64.8769C146.526 64.6468 150.253 64.2644 153.937 63.094C158.839 61.5364 163.969 58.514 166.023 52.3756C168.055 46.3104 166.678 39.9991 164.086 34.941C162.788 32.4067 161.173 30.1645 159.498 28.3964C157.83 26.6368 156.067 25.3101 154.458 24.6565C153.628 24.319 152.361 24.0556 150.804 23.8432C149.229 23.6285 147.299 23.4587 145.107 23.3295C140.723 23.0708 135.255 22.9722 129.419 23.0066ZM150.604 25.2999C152.144 25.51 153.254 25.7549 153.901 26.018C155.246 26.5641 156.841 27.7332 158.426 29.4061C160.003 31.0705 161.537 33.1975 162.773 35.6098C165.251 40.445 166.491 46.3366 164.624 51.9098L164.624 51.9102C162.784 57.41 158.181 60.2023 153.489 61.6932C149.979 62.8085 146.586 63.1574 144.321 63.3904C143.525 63.4723 142.869 63.5398 142.395 63.6212L142.395 63.6213L142.52 64.3457L142.395 63.6212L142.395 63.6212C142.045 63.681 141.134 63.7264 139.722 63.7512C138.337 63.7755 136.529 63.7797 134.434 63.7698C130.243 63.75 124.916 63.6741 119.538 63.5919C118.64 63.5782 117.741 63.5643 116.844 63.5505C107.037 63.3989 97.6168 63.2533 95.3687 63.4276C93.007 63.6107 87.6297 63.5193 82.4635 63.402C81.6039 63.3825 80.7492 63.3622 79.9158 63.3424C75.7979 63.2447 72.1994 63.1592 71.0829 63.239L71.0838 63.239L71.1356 63.9723L71.0829 63.239C70.564 63.2757 70.0535 63.5325 69.5995 63.8412C69.1298 64.1607 68.6394 64.5925 68.1491 65.0857C67.1671 66.0736 66.1222 67.3722 65.1612 68.6926C64.2 70.0133 63.3092 71.3745 62.6325 72.5037C62.6522 73.1105 62.6721 73.6298 62.6912 74.0463C62.7101 74.4612 62.7279 74.7664 62.7432 74.9531C62.7469 74.9991 62.7503 75.0351 62.7532 75.062C62.7556 75.0838 62.7571 75.0946 62.7575 75.0975C62.7577 75.0983 62.7577 75.0984 62.7575 75.0975C62.7574 75.0968 62.7546 75.0805 62.748 75.0561C62.7446 75.0438 62.7378 75.0205 62.7265 74.9914C62.7175 74.9683 62.693 74.9079 62.6449 74.8396C62.6124 74.7935 62.4713 74.5997 62.1886 74.5433C61.8376 74.4733 61.5945 74.6656 61.5006 74.7686C61.4142 74.8633 61.3757 74.9566 61.3644 74.9847C61.3485 75.0241 61.3398 75.056 61.3358 75.0719L61.3356 75.0723L62.0507 75.252H61.3133V75.159L61.3351 75.0717C61.404 74.7951 61.5776 74.4147 61.784 74.0125C62.0012 73.5892 62.2891 73.0769 62.6276 72.5118C62.6292 72.5091 62.6308 72.5064 62.6325 72.5037C62.6131 71.9073 62.5939 71.2264 62.5759 70.4753C62.5034 67.446 62.4512 63.2889 62.4858 58.9653C62.5204 54.6396 62.6418 50.1581 62.9155 46.4759C63.0524 44.6339 63.2266 43.0042 63.4443 41.6996C63.667 40.3657 63.9218 39.4635 64.1777 39.0083L64.1779 39.0078C65.36 36.9013 68.707 34.1189 74.1116 31.6201C79.4778 29.1391 86.7681 26.9872 95.6875 26.0685C104.649 25.1454 117.788 24.5455 129.427 24.4768C135.246 24.4425 140.679 24.5411 145.02 24.7971C147.191 24.9252 149.08 25.0921 150.604 25.2999Z" fill="#1A1B21"/>
<path d="M58.1754 110C58.5924 110 59.0053 109.917 59.3906 109.756C59.7758 109.595 60.1259 109.359 60.4208 109.062C60.7156 108.764 60.9495 108.411 61.1091 108.023C61.2687 107.634 61.3508 107.218 61.3508 106.797C61.3508 106.376 61.2687 105.96 61.1091 105.571C60.9495 105.182 60.7156 104.829 60.4208 104.532C60.1259 104.234 59.7758 103.999 59.3906 103.838C59.0053 103.677 58.5924 103.594 58.1754 103.594C57.3332 103.594 56.5256 103.931 55.9301 104.532C55.3346 105.133 55 105.947 55 106.797C55 107.646 55.3346 108.461 55.9301 109.062C56.5256 109.663 57.3332 110 58.1754 110ZM191.825 75.4062C192.667 75.4062 193.474 75.0688 194.07 74.4681C194.665 73.8674 195 73.0526 195 72.2031C195 71.3536 194.665 70.5389 194.07 69.9382C193.474 69.3375 192.667 69 191.825 69C190.982 69 190.175 69.3375 189.579 69.9382C188.984 70.5389 188.649 71.3536 188.649 72.2031C188.649 73.0526 188.984 73.8674 189.579 74.4681C190.175 75.0688 190.982 75.4062 191.825 75.4062Z" fill="#1A1B21"/>
<path d="M187.897 60.2105C185.745 55.8251 183.15 51.6701 180.152 47.8099C177.746 44.7201 175.099 41.1687 171.162 40.0411C169.999 39.7066 169.5 41.5149 170.663 41.8464C174.592 42.971 177.428 47.2269 179.734 50.3463C182.231 53.7478 184.419 57.365 186.271 61.1546C186.802 62.2378 188.422 61.2908 187.897 60.2076V60.2105ZM73.3542 101.408C77.9064 99.6112 82.2631 97.3562 86.3564 94.6777C89.6322 92.529 93.3887 90.1732 94.8218 86.3465C95.2461 85.2159 93.4777 84.5796 93.0534 85.7102C91.6232 89.528 87.1487 92.017 83.8551 94.065C80.2591 96.2825 76.4717 98.1752 72.5382 99.7208C71.4107 100.165 72.2356 101.852 73.3542 101.408ZM96.2075 114.489C94.5793 114.135 93.1538 113.161 92.2344 111.775C91.3164 110.391 90.9777 108.703 91.2909 107.072C91.4066 106.392 90.3888 106.09 90.2345 106.785C89.9394 108.193 89.314 109.512 88.4097 110.633C87.5048 111.754 86.3468 112.647 85.0301 113.237C84.7076 113.175 84.3789 113.152 84.0509 113.169C83.407 113.21 83.3536 114.122 83.8818 114.261C83.8989 114.367 83.9514 114.463 84.0306 114.535C84.1098 114.607 84.2111 114.65 84.318 114.658C84.3892 114.661 84.4604 114.649 84.5257 114.622C84.7185 114.557 84.8936 114.486 85.0865 114.415C88.1011 115.457 88.0062 122.116 87.7273 124.46C87.665 124.984 88.5373 125.223 88.745 124.732C90.1574 121.414 92.3353 116.475 96.2075 115.557C96.3281 115.529 96.4356 115.461 96.5127 115.365C96.5897 115.268 96.6317 115.148 96.6318 115.025C96.6317 114.901 96.5897 114.781 96.5127 114.685C96.4356 114.588 96.3281 114.52 96.2075 114.492V114.489ZM88.9468 121.625C88.8993 118.763 88.3237 115.208 86.3327 113.791C87.9939 112.852 89.358 111.468 90.2701 109.795C90.4991 110.936 90.9975 112.007 91.7241 112.917C92.4508 113.828 93.3845 114.554 94.4479 115.034C91.9733 116.288 90.2405 119.008 88.9586 121.625H88.9468Z" fill="#275CF6"/>
<path d="M200.572 39.0815C198.948 38.7287 197.526 37.7572 196.61 36.3739C195.694 34.9926 195.356 33.3087 195.668 31.6822C195.787 31.0031 194.769 30.699 194.615 31.3958C194.32 32.8007 193.697 34.116 192.795 35.2342C191.893 36.3519 190.739 37.2411 189.427 37.8296C189.104 37.7686 188.775 37.7468 188.447 37.7646C187.805 37.803 187.752 38.7124 188.278 38.8512C188.29 38.9213 188.317 38.988 188.357 39.0463C188.398 39.1046 188.451 39.153 188.513 39.1879C188.575 39.2228 188.644 39.2433 188.715 39.2479C188.786 39.2525 188.858 39.241 188.924 39.2144C189.113 39.1494 189.288 39.0756 189.48 39.0047C192.49 40.0441 192.395 46.6875 192.114 49.0289C192.052 49.5486 192.922 49.7878 193.129 49.3006C194.538 45.9877 196.71 41.0627 200.572 40.1474C200.694 40.1202 200.802 40.0526 200.88 39.9558C200.958 39.8589 201 39.7385 201 39.6145C201 39.4904 200.958 39.37 200.88 39.2732C200.802 39.1763 200.694 39.1087 200.572 39.0815ZM193.33 46.1974C193.283 43.3451 192.709 39.799 190.723 38.3847C192.38 37.4474 193.741 36.0654 194.65 34.3957C194.879 35.5343 195.376 36.6022 196.101 37.5107C196.825 38.4207 197.756 39.1454 198.817 39.6248C196.349 40.8738 194.624 43.5872 193.342 46.2003H193.33V46.1974ZM125.704 99.3005C125.652 99.4767 125.629 99.6602 125.636 99.8438L125.645 100.236L125.654 100.629C125.654 100.924 125.627 101.361 125.574 101.943C125.532 102.38 125.507 102.818 125.5 103.257C125.5 103.481 125.515 103.818 125.547 104.261C125.58 104.71 125.597 105.046 125.597 105.274C125.597 105.392 125.556 105.495 125.473 105.578C125.434 105.618 125.387 105.649 125.335 105.67C125.283 105.691 125.227 105.701 125.171 105.699C125.053 105.699 124.955 105.657 124.872 105.578C124.832 105.538 124.8 105.491 124.779 105.439C124.757 105.386 124.747 105.33 124.748 105.274C124.748 105.046 124.73 104.71 124.698 104.261C124.642 103.71 124.633 103.154 124.671 102.602C124.168 102.613 123.546 102.69 122.804 102.829L120.945 103.192C120.945 103.458 120.918 103.833 120.865 104.32C120.82 104.694 120.794 105.071 120.788 105.448C120.788 105.569 120.747 105.672 120.664 105.752C120.626 105.794 120.579 105.827 120.527 105.85C120.475 105.872 120.419 105.883 120.362 105.882C120.243 105.882 120.14 105.838 120.057 105.752C120.018 105.712 119.988 105.664 119.967 105.612C119.947 105.56 119.937 105.504 119.939 105.448C119.939 105.138 119.962 104.671 120.013 104.054C120.066 103.434 120.093 102.968 120.093 102.658C120.093 102.495 120.087 102.25 120.075 101.925C120.065 101.679 120.059 101.433 120.057 101.187C120.057 100.957 120.072 100.608 120.101 100.145C120.131 99.6755 120.146 99.327 120.146 99.0938C120.146 98.9698 120.184 98.8664 120.264 98.7838C120.304 98.7439 120.352 98.7127 120.404 98.6918C120.457 98.671 120.513 98.6611 120.569 98.6627C120.625 98.6623 120.681 98.6732 120.734 98.6948C120.786 98.7165 120.833 98.7483 120.872 98.7886C120.912 98.8288 120.943 98.8766 120.963 98.929C120.984 98.9815 120.994 99.0375 120.992 99.0938C120.992 99.33 120.977 99.6843 120.945 100.151C120.915 100.62 120.901 100.972 120.901 101.205L120.93 102.321L122.824 101.967C123.582 101.822 124.221 101.751 124.739 101.745C124.769 101.323 124.786 100.691 124.786 99.8438C124.788 99.6129 124.826 99.3838 124.899 99.1646C124.994 98.8487 125.133 98.6922 125.31 98.6922C125.42 98.6922 125.52 98.7336 125.609 98.8162C125.698 98.896 125.742 98.9963 125.742 99.1204C125.738 99.1822 125.724 99.243 125.701 99.3005H125.704ZM132.245 99.9441C131.909 99.9383 131.573 99.9206 131.238 99.891C130.794 99.8615 130.46 99.8438 130.229 99.8467H129.915C129.924 100.254 129.963 100.91 130.034 101.825C130.099 102.672 130.131 103.331 130.131 103.803C130.131 103.907 130.143 104.063 130.161 104.273C130.185 104.479 130.194 104.639 130.194 104.745C130.194 104.943 130.164 105.114 130.096 105.259C130.013 105.454 129.886 105.551 129.711 105.551C129.593 105.551 129.489 105.51 129.395 105.427C129.348 105.388 129.312 105.339 129.287 105.284C129.262 105.229 129.251 105.169 129.252 105.108C129.252 105.064 129.258 104.999 129.273 104.91C129.288 104.822 129.297 104.757 129.297 104.713C129.297 104.568 129.285 104.352 129.267 104.063C129.247 103.777 129.238 103.558 129.238 103.413C129.238 102.991 129.205 102.401 129.137 101.639C129.082 101.05 129.042 100.459 129.019 99.8674H128.616C127.971 99.8674 127.462 99.8231 127.095 99.7286C126.858 99.6695 126.737 99.5219 126.737 99.2916C126.737 99.1735 126.775 99.0643 126.852 98.9757C126.941 98.8723 127.053 98.8251 127.193 98.8339C127.296 98.8399 127.53 98.8635 127.9 98.9137C128.196 98.9491 128.433 98.9668 128.616 98.9668L129.421 98.958C130.025 98.9338 130.63 98.9457 131.232 98.9934C131.679 99.0229 132.017 99.0406 132.245 99.0406C132.372 99.0406 132.478 99.0849 132.564 99.1735C132.65 99.2591 132.692 99.3654 132.692 99.4953C132.692 99.6223 132.65 99.7286 132.564 99.8172C132.523 99.8591 132.473 99.8919 132.418 99.9138C132.363 99.9356 132.304 99.9459 132.245 99.9441ZM138.401 99.9441C138.182 99.9441 137.844 99.9264 137.391 99.891C137.057 99.8645 136.721 99.8497 136.385 99.8467H136.068C136.077 100.254 136.119 100.91 136.187 101.825C136.252 102.672 136.284 103.331 136.284 103.803C136.284 103.907 136.296 104.063 136.314 104.273C136.338 104.479 136.347 104.639 136.347 104.745C136.347 104.943 136.317 105.114 136.249 105.259C136.166 105.454 136.042 105.551 135.864 105.551C135.746 105.551 135.642 105.51 135.547 105.427C135.501 105.388 135.465 105.339 135.44 105.284C135.415 105.229 135.404 105.169 135.405 105.108C135.405 105.064 135.414 104.999 135.429 104.91C135.444 104.822 135.45 104.757 135.45 104.713C135.45 104.568 135.441 104.352 135.42 104.063C135.404 103.847 135.394 103.63 135.391 103.413C135.391 102.991 135.361 102.401 135.29 101.639C135.235 101.05 135.195 100.459 135.172 99.8674H134.769C134.124 99.8674 133.615 99.8231 133.248 99.7286C133.011 99.6695 132.893 99.5219 132.893 99.2916C132.893 99.1735 132.928 99.0643 133.005 98.9757C133.046 98.9261 133.098 98.8873 133.158 98.8626C133.217 98.8379 133.282 98.828 133.346 98.8339C133.449 98.8399 133.683 98.8635 134.053 98.9137C134.349 98.9491 134.586 98.9668 134.769 98.9668L135.574 98.958C136.178 98.9339 136.783 98.9457 137.385 98.9934C137.835 99.0229 138.173 99.0406 138.398 99.0406C138.525 99.0406 138.631 99.0849 138.717 99.1735C138.803 99.2591 138.844 99.3654 138.844 99.4953C138.844 99.6223 138.803 99.7286 138.717 99.8172C138.675 99.8591 138.626 99.8919 138.571 99.9138C138.516 99.9356 138.457 99.9459 138.398 99.9441H138.401ZM140.354 102.926C140.274 102.926 140.093 102.906 139.818 102.867C139.794 103.31 139.783 104.09 139.783 105.2C139.783 105.318 139.744 105.418 139.664 105.501C139.628 105.539 139.583 105.569 139.535 105.59C139.486 105.61 139.433 105.62 139.38 105.619C139.262 105.619 139.164 105.581 139.087 105.501C139.011 105.42 138.97 105.313 138.972 105.203V103.904C138.972 103.473 139.001 102.864 139.052 102.079C139.111 101.229 139.143 100.62 139.149 100.254V99.6459C139.149 99.3536 139.167 99.144 139.203 99.0111C139.271 98.7513 139.416 98.6391 139.638 98.6745C139.729 98.645 139.866 98.6243 140.037 98.6096C140.215 98.5948 140.425 98.5859 140.679 98.5859C141.218 98.5859 141.724 98.769 142.195 99.1381C142.713 99.5426 142.973 100.033 142.973 100.603C142.985 100.938 142.916 101.271 142.771 101.574C142.627 101.877 142.412 102.142 142.144 102.345C141.633 102.738 141.002 102.944 140.357 102.926H140.354ZM140.579 99.4245C140.376 99.4263 140.174 99.4381 139.972 99.4599L139.963 100.272L139.871 102.026L140.357 102.085C140.851 102.085 141.268 101.958 141.609 101.71C141.786 101.586 141.93 101.42 142.027 101.226C142.124 101.033 142.172 100.819 142.165 100.603C142.165 100.272 141.988 99.9884 141.632 99.7493C141.322 99.5377 140.955 99.4245 140.579 99.4245ZM144.027 105.911C143.921 105.913 143.818 105.874 143.74 105.802C143.7 105.768 143.668 105.726 143.647 105.679C143.625 105.631 143.615 105.58 143.615 105.528C143.616 105.477 143.626 105.427 143.645 105.38C144.019 104.442 144.454 103.53 144.947 102.649C145.439 101.764 145.874 100.849 146.249 99.9087C146.634 98.8576 146.927 98.335 147.125 98.3438C147.235 98.3468 147.33 98.3881 147.412 98.4619C147.495 98.5357 147.537 98.6273 147.537 98.7336C147.537 98.7985 147.519 98.8812 147.486 98.9757L146.992 100.174C146.75 100.819 146.469 101.448 146.149 102.058L145.184 103.883L144.385 105.652C144.305 105.826 144.184 105.911 144.027 105.911ZM150.988 105.519H150.109L149.233 105.516C149.025 105.516 148.883 105.501 148.801 105.474C148.65 105.421 148.576 105.309 148.576 105.141C148.576 104.846 148.806 104.695 149.268 104.695L149.481 104.698L149.662 104.707C149.662 104.568 149.65 104.358 149.623 104.081C149.6 103.806 149.588 103.597 149.588 103.461C149.588 103.086 149.62 102.519 149.688 101.757C149.754 101.007 149.783 100.437 149.78 100.05C149.387 100.358 149.135 100.508 149.025 100.508C148.907 100.508 148.803 100.464 148.715 100.378C148.674 100.338 148.642 100.291 148.62 100.239C148.598 100.187 148.587 100.131 148.587 100.074C148.587 99.9353 148.715 99.767 148.969 99.5721C149.126 99.457 149.354 99.2768 149.644 99.0318C149.904 98.769 150.15 98.6391 150.387 98.6391C150.585 98.6391 150.683 98.7542 150.683 98.9786C150.683 99.0465 150.674 99.1469 150.656 99.2828C150.638 99.4156 150.63 99.516 150.63 99.5839C150.63 99.6814 150.635 99.826 150.644 100.027C150.654 100.173 150.66 100.32 150.662 100.467C150.662 100.8 150.627 101.299 150.556 101.964C150.496 102.461 150.46 102.96 150.449 103.461C150.449 103.629 150.461 103.839 150.485 104.081C150.508 104.326 150.52 104.524 150.523 104.68L150.988 104.671C151.112 104.671 151.213 104.713 151.292 104.795C151.375 104.875 151.417 104.975 151.417 105.096C151.417 105.221 151.375 105.321 151.292 105.401C151.213 105.48 151.112 105.519 150.988 105.519ZM153.133 105.926C153.061 105.928 152.989 105.914 152.922 105.887C152.854 105.859 152.793 105.818 152.743 105.767C152.691 105.716 152.65 105.655 152.622 105.588C152.595 105.521 152.581 105.449 152.583 105.377C152.583 105.229 152.636 105.099 152.743 104.993C152.792 104.941 152.853 104.899 152.919 104.871C152.986 104.843 153.058 104.829 153.13 104.831C153.281 104.831 153.412 104.887 153.515 104.993C153.625 105.099 153.681 105.229 153.681 105.377C153.681 105.531 153.625 105.66 153.515 105.767C153.465 105.818 153.406 105.859 153.339 105.886C153.273 105.914 153.202 105.927 153.13 105.926H153.133ZM157.318 105.519H156.439L155.563 105.516C155.356 105.516 155.214 105.501 155.131 105.474C154.98 105.421 154.906 105.309 154.906 105.141C154.906 104.846 155.137 104.695 155.599 104.695L155.812 104.698L155.989 104.707C155.989 104.568 155.98 104.358 155.954 104.081C155.93 103.806 155.918 103.597 155.918 103.461C155.918 103.086 155.951 102.519 156.019 101.757C156.084 101.007 156.114 100.437 156.111 100.05C155.717 100.358 155.465 100.508 155.356 100.508C155.238 100.508 155.134 100.464 155.045 100.378C155.005 100.338 154.973 100.291 154.951 100.239C154.929 100.187 154.918 100.131 154.918 100.074C154.918 99.9353 155.045 99.767 155.297 99.5721C155.457 99.457 155.682 99.2768 155.975 99.0318C156.235 98.769 156.481 98.6391 156.714 98.6391C156.916 98.6391 157.013 98.7542 157.013 98.9786C157.013 99.0465 157.004 99.1469 156.987 99.2828C156.969 99.4156 156.96 99.516 156.96 99.5839C156.96 99.6814 156.966 99.826 156.975 100.027C156.985 100.173 156.991 100.32 156.993 100.467C156.993 100.8 156.957 101.299 156.886 101.964C156.826 102.461 156.791 102.96 156.78 103.461C156.78 103.629 156.791 103.839 156.815 104.081C156.839 104.326 156.851 104.524 156.854 104.68L157.318 104.671C157.442 104.671 157.543 104.713 157.623 104.795C157.706 104.875 157.747 104.975 157.747 105.096C157.749 105.153 157.738 105.209 157.717 105.261C157.696 105.313 157.664 105.36 157.624 105.4C157.584 105.439 157.536 105.47 157.483 105.491C157.431 105.511 157.375 105.521 157.318 105.519ZM165.442 105.525C165.368 105.525 165.265 105.501 165.129 105.457C165.031 105.417 164.928 105.393 164.824 105.386C164.676 105.386 164.448 105.395 164.149 105.415C163.922 105.429 163.695 105.437 163.468 105.439C163.35 105.439 163.181 105.454 162.953 105.483C162.731 105.513 162.56 105.528 162.447 105.528C162.415 105.528 162.367 105.522 162.305 105.51C162.258 105.5 162.211 105.494 162.163 105.492C161.959 105.492 161.826 105.395 161.766 105.197C161.723 105.023 161.705 104.844 161.713 104.665C161.713 103.983 161.9 103.431 162.275 103.012C162.444 102.823 162.906 102.472 163.658 101.955C163.963 101.762 164.246 101.536 164.501 101.282C164.75 101.012 164.887 100.657 164.883 100.29C164.883 100.101 164.759 99.9353 164.516 99.7877C164.328 99.6627 164.108 99.5931 163.883 99.5869C163.61 99.5869 163.353 99.6666 163.11 99.8231L162.477 100.316C162.349 100.417 162.249 100.464 162.172 100.464C161.867 100.464 161.716 100.346 161.716 100.104C161.716 99.9648 161.775 99.8467 161.885 99.7463C162.156 99.4789 162.457 99.2431 162.782 99.0436C163.115 98.8471 163.495 98.7422 163.883 98.7395C164.339 98.7333 164.786 98.8695 165.161 99.1292C165.353 99.2472 165.511 99.4123 165.621 99.6087C165.731 99.8051 165.789 100.026 165.789 100.251C165.789 100.546 165.744 100.824 165.658 101.078C165.574 101.331 165.444 101.566 165.274 101.772C165.049 102.038 164.676 102.333 164.149 102.658C163.758 102.882 163.391 103.147 163.054 103.446C162.894 103.608 162.77 103.801 162.687 104.012C162.605 104.224 162.566 104.45 162.574 104.677L163.486 104.592C164.107 104.559 164.557 104.541 164.824 104.541C165.049 104.541 165.262 104.58 165.46 104.654C165.726 104.757 165.86 104.902 165.86 105.082C165.86 105.2 165.818 105.3 165.741 105.392C165.705 105.434 165.659 105.468 165.608 105.491C165.557 105.514 165.501 105.526 165.445 105.525H165.442ZM169.213 105.687C168.319 105.687 167.665 105.277 167.251 104.462C166.94 103.833 166.783 103.015 166.783 102.005C166.783 101.152 166.987 100.411 167.393 99.7729C167.872 99.0288 168.526 98.6568 169.352 98.6568C169.714 98.6471 170.073 98.7336 170.391 98.9074C170.71 99.0811 170.976 99.336 171.163 99.6459C171.553 100.27 171.748 100.995 171.725 101.73C171.725 103.047 171.518 104.036 171.098 104.698C170.678 105.356 170.05 105.687 169.213 105.687ZM169.346 99.5071C168.798 99.5071 168.363 99.7877 168.044 100.343C167.77 100.828 167.631 101.377 167.641 101.934C167.641 102.9 167.771 103.626 168.035 104.113C168.139 104.335 168.306 104.522 168.515 104.651C168.725 104.78 168.967 104.846 169.213 104.84C169.837 104.84 170.287 104.485 170.556 103.774C170.746 103.278 170.841 102.652 170.841 101.893C170.841 101.096 170.716 100.499 170.465 100.104C170.35 99.9122 170.185 99.7556 169.988 99.6506C169.791 99.5455 169.569 99.4959 169.346 99.5071ZM174.738 105.687C173.845 105.687 173.19 105.277 172.776 104.462C172.465 103.833 172.308 103.015 172.308 102.005C172.308 101.152 172.513 100.411 172.918 99.7729C173.398 99.0288 174.052 98.6568 174.877 98.6568C175.24 98.6471 175.599 98.7336 175.917 98.9074C176.235 99.0811 176.501 99.336 176.689 99.6459C177.078 100.27 177.274 100.995 177.251 101.73C177.251 103.047 177.044 104.036 176.624 104.698C176.203 105.356 175.576 105.687 174.738 105.687ZM174.871 99.5071C174.324 99.5071 173.889 99.7877 173.569 100.343C173.296 100.828 173.157 101.377 173.167 101.934C173.167 102.9 173.297 103.626 173.56 104.113C173.665 104.335 173.832 104.522 174.041 104.651C174.25 104.78 174.492 104.846 174.738 104.84C175.366 104.84 175.813 104.485 176.082 103.774C176.271 103.278 176.366 102.652 176.366 101.893C176.366 101.096 176.242 100.499 175.99 100.104C175.876 99.9122 175.711 99.7556 175.514 99.6506C175.317 99.5455 175.095 99.4959 174.871 99.5071ZM183.815 105.784C182.987 105.784 182.279 105.536 181.702 105.037C181.405 104.787 181.168 104.473 181.009 104.119C180.85 103.765 180.774 103.379 180.785 102.991C180.778 101.993 181.095 101.02 181.687 100.216C182.362 99.2946 183.206 98.8339 184.212 98.8339C185.183 98.8339 185.902 99.0525 186.372 99.4835C186.867 99.9382 187.112 100.653 187.112 101.63C187.112 102.646 186.837 103.564 186.284 104.382C185.644 105.318 184.822 105.784 183.815 105.784ZM184.212 99.7375C183.49 99.7375 182.88 100.098 182.377 100.815C181.923 101.45 181.68 102.211 181.684 102.991C181.684 103.558 181.895 104.022 182.318 104.379C182.74 104.72 183.272 104.898 183.815 104.881C184.532 104.881 185.123 104.521 185.588 103.8C186.002 103.157 186.21 102.433 186.21 101.63C186.21 100.927 186.053 100.431 185.736 100.148C185.44 99.8733 184.928 99.7375 184.212 99.7375ZM192.599 105.696C192.15 105.696 191.513 105.303 190.685 104.518L189.362 103.189V103.251L189.359 105.563C189.359 105.855 189.231 106 188.974 106C188.805 106 188.672 105.926 188.571 105.779C188.49 105.664 188.447 105.526 188.447 105.386C188.447 104.698 188.468 103.67 188.509 102.3C188.551 100.93 188.571 99.9028 188.571 99.2178C188.571 99.0908 188.613 98.9816 188.696 98.893C188.736 98.8508 188.785 98.8174 188.839 98.795C188.893 98.7726 188.951 98.7618 189.009 98.7631C189.137 98.7631 189.24 98.8074 189.323 98.896C189.409 98.9845 189.45 99.0908 189.45 99.2178C189.45 99.5013 189.433 99.9471 189.397 100.546C189.367 100.992 189.351 101.438 189.35 101.884C189.817 101.436 190.265 100.967 190.69 100.479L191.957 99.0111C192.058 98.893 192.17 98.8369 192.295 98.8369C192.413 98.8369 192.517 98.8812 192.608 98.9698C192.697 99.0584 192.744 99.1646 192.744 99.2946C192.744 99.4865 192.366 100.003 191.605 100.845C191.077 101.42 190.535 101.981 189.977 102.528C190.332 102.9 190.886 103.431 191.64 104.125L192.102 104.515C192.266 104.641 192.45 104.739 192.647 104.804C192.881 104.881 192.996 105.026 192.996 105.241C192.996 105.342 192.966 105.436 192.904 105.528C192.827 105.64 192.727 105.696 192.599 105.696ZM79.6676 42.232C79.5174 43.0964 79.0918 43.8895 78.4542 44.4937C77.8684 45.0456 77.0904 45.3484 76.2848 45.3381C75.5212 45.3381 74.953 45.1285 74.5682 44.7063C74.1894 44.2841 74 43.6492 74 42.8018C74 42.0046 74.1894 41.1867 74.5653 40.3452C74.8987 39.5658 75.3975 38.8677 76.0273 38.2991C76.3663 37.974 76.8151 37.7875 77.2851 37.7764C77.6706 37.8022 78.0484 37.8962 78.4009 38.054C78.9632 38.2754 79.2444 38.5205 79.2444 38.7863C79.2444 38.9132 79.197 39.0254 79.1053 39.1229C79.0135 39.2232 78.9011 39.2705 78.7708 39.2705C78.7028 39.2705 78.6081 39.2321 78.4838 39.1553C78.0102 38.8689 77.6107 38.7272 77.2851 38.7272C77.0543 38.7272 76.8116 38.8453 76.5571 39.0874C76.4298 39.2055 76.2463 39.424 76.0096 39.7429C75.3193 40.6141 74.942 41.6913 74.9382 42.8018C74.9382 43.3805 75.027 43.7851 75.2046 44.0124C75.4028 44.2663 75.761 44.3933 76.2848 44.3933C76.8382 44.3933 77.3207 44.2191 77.7261 43.8736C78.1868 43.4543 78.5027 42.9003 78.6288 42.291C77.7705 42.3324 77.0365 42.4977 76.4239 42.7841C76.3529 42.8195 76.2818 42.8343 76.2138 42.8343C76.0776 42.8343 75.9652 42.7812 75.8734 42.6778C75.7922 42.5868 75.7479 42.4689 75.7491 42.3471C75.7491 42.1759 75.832 42.043 75.9948 41.9397C76.6636 41.5352 77.8179 41.3314 79.4545 41.3314C79.5171 41.3293 79.5795 41.3402 79.6377 41.3632C79.696 41.3863 79.7488 41.421 79.793 41.4654C79.8371 41.5097 79.8716 41.5626 79.8944 41.6209C79.9171 41.6791 79.9276 41.7414 79.9251 41.8038C79.9303 41.8928 79.9085 41.9812 79.8626 42.0576C79.8166 42.1339 79.7487 42.1947 79.6676 42.232ZM85.2701 38.8158C85.2257 38.8158 85.1783 38.8069 85.1251 38.7922C84.6337 38.6489 84.1247 38.5744 83.6127 38.5707C83.3582 38.5707 83.08 38.5943 82.784 38.6386C82.4556 38.6906 82.1305 38.7616 81.8103 38.8512C81.8399 39.052 81.8547 39.2114 81.8547 39.3325C81.8547 39.7577 81.8251 40.3452 81.7748 41.0923L83.8081 40.8974C84.4059 40.8383 84.7729 40.8088 84.909 40.8088C85.0452 40.8088 85.1576 40.8501 85.2523 40.9358C85.3411 41.0243 85.3914 41.1365 85.3914 41.2812C85.3914 41.5617 85.2494 41.7182 84.9623 41.7536L83.8584 41.8481L81.7127 42.043L81.6831 42.6631C81.6742 42.8579 81.6712 43.038 81.6712 43.2093C81.6712 43.8884 81.7216 44.287 81.8192 44.4081C81.8962 44.4937 82.1389 44.535 82.5502 44.535C82.7426 44.535 83.0297 44.5321 83.4115 44.5232C83.7992 44.5114 84.0922 44.5025 84.2846 44.5025C84.3768 44.4998 84.4687 44.4909 84.5598 44.476C84.6782 44.4553 84.7699 44.4464 84.8262 44.4464C85.1576 44.4464 85.3204 44.6029 85.3204 44.9248C85.3204 45.1817 85.1902 45.3381 84.9268 45.3883C84.6338 45.4474 84.0064 45.4769 83.0356 45.4769C82.0767 45.4769 81.4611 45.35 81.1888 45.099C80.8929 44.8244 80.7449 44.1955 80.7449 43.2093C80.7449 43.0115 80.7479 42.7959 80.7567 42.5627C80.7656 42.3294 80.7804 42.0784 80.7952 41.8068C80.7617 41.7367 80.7445 41.66 80.7449 41.5824C80.7449 41.4761 80.7745 41.3816 80.8337 41.2989C80.8929 40.4131 80.9225 39.7547 80.9225 39.3295C80.9184 39.1634 80.9036 38.9977 80.8781 38.8335C80.8517 38.6673 80.8359 38.4997 80.8307 38.3315C80.8307 37.9654 80.9876 37.7824 81.2954 37.7824C81.4256 37.7824 81.5381 37.8266 81.6298 37.9152C81.9757 37.8222 82.3264 37.7483 82.6805 37.6938C82.989 37.6463 83.3006 37.6217 83.6127 37.62C84.3645 37.62 84.9653 37.7085 85.4122 37.8857C85.6193 37.9713 85.7229 38.119 85.7229 38.3286C85.7229 38.4526 85.6844 38.5648 85.6045 38.6593C85.5157 38.7626 85.4033 38.8158 85.2701 38.8158ZM92.3583 39.1996C92.1274 39.1996 91.7753 39.179 91.2988 39.1406C90.9473 39.1121 90.5948 39.0973 90.2422 39.0963H89.9107C89.9196 39.5215 89.961 40.2094 90.038 41.1631C90.1061 42.0489 90.1386 42.7398 90.1386 43.23C90.1386 43.3392 90.1504 43.5016 90.1712 43.7201C90.1919 43.9386 90.2037 44.1039 90.2037 44.2132C90.2037 44.4199 90.1712 44.6029 90.1031 44.7535C90.0143 44.9573 89.8811 45.0576 89.6976 45.0576C89.5733 45.0576 89.4609 45.0134 89.3632 44.9277C89.3153 44.8871 89.2772 44.8364 89.2516 44.7791C89.226 44.7219 89.2135 44.6597 89.2152 44.597C89.2152 44.5498 89.2241 44.4789 89.2389 44.3903C89.252 44.3221 89.2599 44.2531 89.2626 44.1837C89.2626 44.0301 89.2507 43.8057 89.23 43.5046C89.2138 43.2775 89.204 43.0501 89.2004 42.8225C89.2004 42.3796 89.1649 41.7625 89.0939 40.9682C89.0199 40.1061 88.9755 39.4919 88.9696 39.114L88.5464 39.1199C88.0096 39.1343 87.4731 39.0847 86.9482 38.9723C86.6996 38.9073 86.5753 38.7538 86.5753 38.5146C86.5753 38.3876 86.6137 38.2784 86.6937 38.1839C86.7368 38.1321 86.7919 38.0915 86.8543 38.0658C86.9168 38.04 86.9845 38.0299 87.0518 38.0363C87.3001 38.0573 87.5478 38.0849 87.7946 38.119C88.1054 38.1544 88.3569 38.1751 88.5464 38.1751L89.3928 38.1662C90.0273 38.1409 90.6628 38.1538 91.2958 38.2046C91.7664 38.2341 92.1186 38.2518 92.3583 38.2518C92.4915 38.2518 92.601 38.2991 92.6927 38.3906C92.7815 38.4792 92.8259 38.5914 92.8259 38.7272C92.8259 38.8601 92.7815 38.9723 92.6927 39.0638C92.6489 39.1074 92.5967 39.1417 92.5392 39.1646C92.4817 39.1874 92.4202 39.1983 92.3583 39.1967V39.1996ZM93.3172 45.4356C93.2052 45.4359 93.0973 45.3937 93.0153 45.3175C92.974 45.2827 92.941 45.2393 92.9185 45.1903C92.8959 45.1413 92.8846 45.0879 92.8851 45.034C92.8851 44.9838 92.8969 44.9336 92.9206 44.8775C93.3112 43.8971 93.766 42.9433 94.282 42.0223C94.7995 41.0978 95.2572 40.1411 95.6523 39.1583C96.0578 38.0599 96.3626 37.5137 96.5698 37.5225C96.6882 37.5255 96.7888 37.5668 96.8746 37.6495C96.9604 37.7263 97.0048 37.8178 97.0048 37.93C97.0048 38.0008 96.9871 38.0835 96.9516 38.1839L96.4336 39.4358C96.1789 40.11 95.8823 40.7677 95.5458 41.4052L94.5336 43.3156L93.6931 45.1639C93.6102 45.344 93.4859 45.4356 93.3172 45.4356ZM99.5294 39.1878C99.3814 39.1878 99.2512 39.1347 99.1446 39.0313C99.0938 38.9835 99.0534 38.9259 99.026 38.8619C98.9985 38.7979 98.9845 38.7289 98.9848 38.6593C98.9848 38.5117 99.0381 38.3847 99.1446 38.2814C99.2512 38.1751 99.3814 38.1219 99.5294 38.1219C99.6773 38.1219 99.8046 38.1751 99.9141 38.2784C100.024 38.3847 100.077 38.5117 100.077 38.6563C100.077 38.804 100.024 38.928 99.9141 39.0313C99.8046 39.1347 99.6773 39.1878 99.5294 39.1878ZM99.4909 46.0911C99.4939 45.7308 99.4435 44.8096 99.334 43.3274L99.1772 40.7881C99.1772 40.6346 99.2186 40.4988 99.3074 40.3777C99.3962 40.2596 99.5086 40.1976 99.6448 40.1976C99.7513 40.1976 99.8549 40.236 99.9615 40.3157C100.065 40.3895 100.121 40.4692 100.127 40.549L100.281 43.2063L100.405 46.0438C100.408 46.4622 100.273 46.8699 100.021 47.2042C99.7425 47.5851 99.4051 47.7741 99.0055 47.7741C98.3396 47.7741 97.7832 47.2633 97.3334 46.2476C97.2994 46.1784 97.2803 46.103 97.2771 46.0261C97.2771 45.9021 97.3245 45.7958 97.4221 45.7072C97.5198 45.6186 97.6293 45.5744 97.7566 45.5744C97.9371 45.5744 98.1295 45.7722 98.3278 46.1737C98.3751 46.2771 98.4639 46.4277 98.5882 46.6255C98.7066 46.779 98.8457 46.8558 99.0026 46.8558C99.1417 46.8558 99.2571 46.7525 99.3518 46.5517C99.4236 46.407 99.4706 46.2513 99.4909 46.0911ZM103.581 45.2939C103.33 45.2963 103.081 45.2466 102.85 45.148C102.62 45.0494 102.412 44.904 102.24 44.721C101.823 44.2959 101.601 43.726 101.58 43.0085C101.549 42.3567 101.736 41.7129 102.11 41.1779C102.305 40.8797 102.574 40.6368 102.891 40.4723C103.208 40.3079 103.562 40.2275 103.918 40.2389C104.54 40.2389 105.008 40.5194 105.327 41.0834C105.582 41.5381 105.703 42.0873 105.694 42.7251C105.703 43.3497 105.515 43.9613 105.156 44.473C104.983 44.7301 104.748 44.9398 104.473 45.0827C104.198 45.2256 103.891 45.2972 103.581 45.2909V45.2939ZM103.859 41.1749C103.403 41.1749 103.051 41.3875 102.797 41.8216C102.592 42.1833 102.488 42.5931 102.495 43.0085C102.495 43.4544 102.616 43.8057 102.862 44.0508C102.954 44.1492 103.065 44.2275 103.189 44.2809C103.313 44.3343 103.446 44.3615 103.581 44.3608C103.736 44.3624 103.89 44.332 104.032 44.2715C104.175 44.211 104.303 44.1218 104.41 44.0095C104.682 43.73 104.834 43.3543 104.83 42.9642C104.874 41.7743 104.549 41.1779 103.859 41.1749ZM109.012 45.2141C108.538 45.2141 108.109 45.1226 107.721 44.9366C107.624 45.0842 107.502 45.158 107.36 45.158C107.242 45.158 107.141 45.1167 107.059 45.034C107.019 44.9942 106.987 44.9467 106.966 44.8945C106.946 44.8422 106.936 44.7862 106.937 44.7299L106.946 44.3756C106.955 44.2191 106.961 44.101 106.961 44.0213C106.961 43.6965 106.952 43.2063 106.931 42.5597C106.918 42.0707 106.91 41.5815 106.908 41.0923C106.908 40.2409 106.912 39.3896 106.919 38.5382C106.919 38.3522 106.958 38.1869 107.035 38.0392C107.135 37.8532 107.278 37.7587 107.458 37.7587C107.689 37.7587 107.804 37.8916 107.804 38.1603C107.804 38.2016 107.798 38.2666 107.781 38.3493C107.768 38.4116 107.762 38.4748 107.76 38.5382L107.745 39.548L107.736 40.7232C108.003 40.5431 108.26 40.4072 108.5 40.3187C108.9 40.1589 109.341 40.1329 109.758 40.2447C110.174 40.3566 110.543 40.6001 110.808 40.9387C111.206 41.4366 111.414 42.0592 111.394 42.6955C111.394 43.3983 111.166 43.9947 110.711 44.4819C110.497 44.7185 110.234 44.9064 109.941 45.0328C109.648 45.1591 109.331 45.221 109.012 45.2141ZM109.189 41.0509C108.935 41.0509 108.674 41.1218 108.408 41.2635C108.278 41.3344 108.053 41.485 107.739 41.7182L107.73 42.5154L107.739 43.9917C107.887 44.0597 108.097 44.1453 108.367 44.2516C108.559 44.3106 108.775 44.3402 109.012 44.3402C109.462 44.3402 109.829 44.1807 110.116 43.8677C110.407 43.5476 110.561 43.1273 110.548 42.6955C110.548 42.2379 110.43 41.857 110.202 41.5499C110.087 41.3904 109.934 41.2614 109.758 41.1744C109.581 41.0874 109.386 41.045 109.189 41.0509ZM121.442 38.5235C121.389 38.7075 121.366 38.899 121.374 39.0904C121.374 39.1849 121.374 39.3207 121.383 39.5037L121.392 39.9112C121.392 40.2183 121.362 40.6789 121.309 41.2871C121.264 41.7436 121.238 42.2016 121.229 42.6601C121.229 42.8934 121.247 43.2447 121.279 43.7112C121.315 44.1778 121.33 44.5291 121.33 44.7653C121.33 44.8923 121.288 44.9986 121.202 45.0842C121.162 45.1267 121.112 45.1602 121.058 45.1826C121.003 45.2049 120.945 45.2157 120.886 45.2141C120.761 45.2141 120.655 45.1698 120.569 45.0842C120.527 45.0428 120.493 44.9932 120.471 44.9383C120.448 44.8834 120.437 44.8246 120.439 44.7653C120.439 44.5291 120.424 44.1778 120.389 43.7112C120.33 43.1354 120.32 42.5556 120.359 41.978C119.832 41.9869 119.175 42.0666 118.397 42.2143L116.446 42.5863C116.446 42.8638 116.42 43.2565 116.363 43.7673C116.316 44.1594 116.288 44.5536 116.281 44.9484C116.281 45.0754 116.236 45.1817 116.15 45.2673C116.11 45.3107 116.061 45.3451 116.007 45.368C115.952 45.3909 115.893 45.4019 115.834 45.4001C115.709 45.4001 115.603 45.3559 115.514 45.2673C115.473 45.2251 115.441 45.1752 115.42 45.1204C115.398 45.0656 115.388 45.0071 115.39 44.9484C115.39 44.6236 115.416 44.1364 115.47 43.4927C115.523 42.8432 115.553 42.356 115.553 42.0312C115.553 41.8599 115.547 41.606 115.535 41.2635C115.524 41.0077 115.517 40.7518 115.514 40.4958C115.514 40.2508 115.529 39.8876 115.561 39.4033C115.591 38.9132 115.609 38.5471 115.609 38.305C115.609 38.1751 115.65 38.0688 115.733 37.9802C115.775 37.9386 115.825 37.9059 115.88 37.8841C115.935 37.8623 115.994 37.8518 116.053 37.8532C116.18 37.8532 116.287 37.8975 116.369 37.9831C116.458 38.0688 116.5 38.1751 116.5 38.305C116.5 38.55 116.482 38.9191 116.446 39.4122C116.417 39.8994 116.402 40.2685 116.402 40.5135L116.432 41.6798L118.42 41.3048C119.217 41.1572 119.885 41.0804 120.433 41.0745C120.463 40.6346 120.48 39.9732 120.48 39.0874C120.48 38.8542 120.519 38.6179 120.599 38.3788C120.699 38.051 120.844 37.8857 121.028 37.8857C121.146 37.8857 121.253 37.927 121.344 38.0156C121.436 38.0983 121.484 38.2046 121.484 38.3315C121.484 38.3788 121.469 38.4408 121.442 38.5205V38.5235ZM128.311 39.1967C128.083 39.1967 127.731 39.179 127.255 39.1435C126.902 39.114 126.549 39.0982 126.195 39.0963H125.867C125.876 39.5215 125.917 40.2094 125.991 41.1631C126.059 42.0489 126.095 42.7398 126.095 43.23C126.095 43.3392 126.103 43.5016 126.124 43.7201C126.148 43.9386 126.16 44.1039 126.16 44.2132C126.16 44.4199 126.124 44.6029 126.056 44.7535C125.967 44.9573 125.834 45.0576 125.654 45.0576C125.529 45.0576 125.417 45.0134 125.319 44.9277C125.271 44.8871 125.233 44.8364 125.208 44.7791C125.182 44.7219 125.17 44.6597 125.171 44.597C125.171 44.5498 125.177 44.4789 125.192 44.3903C125.205 44.3221 125.213 44.2531 125.216 44.1837C125.216 44.0301 125.204 43.8057 125.186 43.5046C125.17 43.2775 125.16 43.0501 125.156 42.8225C125.156 42.3796 125.121 41.7625 125.05 40.9682C124.976 40.1061 124.931 39.4919 124.923 39.114L124.502 39.1199C123.966 39.1343 123.429 39.0847 122.904 38.9723C122.653 38.9073 122.528 38.7538 122.528 38.5146C122.528 38.3876 122.57 38.2784 122.647 38.1839C122.69 38.1316 122.746 38.0908 122.809 38.065C122.872 38.0393 122.94 38.0294 123.008 38.0363C123.255 38.0574 123.502 38.085 123.748 38.119C124.058 38.1544 124.31 38.1751 124.502 38.1751L125.346 38.1662C125.98 38.1409 126.616 38.1537 127.249 38.2046C127.722 38.2341 128.075 38.2518 128.314 38.2518C128.444 38.2518 128.557 38.2991 128.646 38.3906C128.735 38.4792 128.782 38.5914 128.782 38.7272C128.782 38.8601 128.735 38.9723 128.646 39.0638C128.602 39.1074 128.55 39.1417 128.492 39.1646C128.435 39.1874 128.373 39.1983 128.311 39.1967ZM134.775 39.1967C134.544 39.1967 134.192 39.179 133.716 39.1435C133.363 39.114 133.01 39.0982 132.656 39.0963H132.327C132.336 39.5215 132.378 40.2094 132.452 41.1631C132.52 42.0489 132.555 42.7398 132.555 43.23C132.555 43.3392 132.564 43.5016 132.585 43.7201C132.609 43.9386 132.62 44.1039 132.62 44.2132C132.62 44.4199 132.585 44.6029 132.517 44.7535C132.431 44.9573 132.295 45.0576 132.114 45.0576C131.99 45.0576 131.878 45.0134 131.78 44.9277C131.732 44.8871 131.694 44.8364 131.668 44.7791C131.643 44.7219 131.63 44.6597 131.632 44.597C131.632 44.5498 131.638 44.4789 131.653 44.3903C131.666 44.3222 131.674 44.2531 131.676 44.1837C131.676 44.0301 131.667 43.8057 131.647 43.5046C131.63 43.2775 131.621 43.0501 131.617 42.8225C131.617 42.3796 131.582 41.7625 131.511 40.9682C131.437 40.1061 131.392 39.4919 131.386 39.114L130.963 39.1199C130.426 39.1343 129.89 39.0847 129.365 38.9723C129.116 38.9073 128.989 38.7538 128.989 38.5146C128.989 38.3876 129.03 38.2784 129.11 38.1839C129.153 38.1325 129.208 38.0922 129.27 38.0665C129.332 38.0408 129.399 38.0304 129.466 38.0363C129.715 38.0573 129.964 38.0848 130.211 38.119C130.519 38.1544 130.771 38.1751 130.963 38.1751L131.807 38.1662C132.441 38.1409 133.077 38.1538 133.71 38.2046C134.183 38.2341 134.535 38.2518 134.775 38.2518C134.905 38.2518 135.018 38.2991 135.107 38.3906C135.195 38.4792 135.243 38.5914 135.243 38.7272C135.244 38.789 135.233 38.8506 135.21 38.9081C135.188 38.9655 135.153 39.0178 135.109 39.0617C135.066 39.1056 135.014 39.1402 134.956 39.1634C134.899 39.1866 134.837 39.1979 134.775 39.1967ZM136.829 42.3146C136.743 42.3146 136.554 42.294 136.264 42.2556C136.233 43.0672 136.22 43.8794 136.225 44.6915C136.225 44.8155 136.187 44.9189 136.107 45.0074C136.068 45.048 136.021 45.08 135.969 45.1014C135.917 45.1227 135.861 45.133 135.805 45.1315C135.681 45.1315 135.577 45.0901 135.497 45.0074C135.418 44.9226 135.376 44.8102 135.379 44.6945V43.3363C135.379 42.8845 135.405 42.2497 135.462 41.4289C135.521 40.5431 135.556 39.9053 135.562 39.5215V38.8837C135.562 38.5796 135.58 38.3581 135.619 38.2193C135.69 37.9507 135.84 37.8325 136.074 37.8709C136.172 37.8414 136.311 37.8148 136.495 37.8001C136.719 37.783 136.944 37.7751 137.169 37.7764C137.735 37.7764 138.264 37.9684 138.762 38.3522C139.306 38.7774 139.578 39.2882 139.578 39.8846C139.578 40.6464 139.285 41.2547 138.705 41.7064C138.168 42.1179 137.506 42.3327 136.829 42.3146ZM137.063 38.6534C136.927 38.6534 136.802 38.6563 136.696 38.6622C136.589 38.6681 136.5 38.677 136.426 38.6918L136.418 39.5392L136.32 41.3728L136.829 41.4318C137.298 41.4477 137.759 41.3109 138.143 41.0421C138.33 40.913 138.481 40.7395 138.583 40.5374C138.685 40.3353 138.736 40.111 138.729 39.8846C138.729 39.5392 138.543 39.2439 138.17 38.9959C137.844 38.7735 137.458 38.6541 137.063 38.6534ZM140.682 45.4356C140.567 45.4356 140.466 45.3972 140.38 45.3175C140.339 45.2827 140.306 45.2393 140.284 45.1903C140.261 45.1413 140.25 45.0879 140.25 45.034C140.25 44.9838 140.262 44.9336 140.283 44.8775C140.675 43.8971 141.13 42.9433 141.647 42.0223C142.165 41.0978 142.622 40.1412 143.017 39.1583C143.423 38.0599 143.728 37.5137 143.935 37.5225C144.053 37.5255 144.151 37.5668 144.237 37.6495C144.326 37.7263 144.367 37.8178 144.367 37.93C144.367 38.0008 144.352 38.0835 144.317 38.1839L143.796 39.4358C143.542 40.1102 143.245 40.768 142.908 41.4052L141.899 43.3156L141.058 45.1639C140.975 45.344 140.851 45.4356 140.682 45.4356ZM147.993 45.0222H146.152C145.933 45.0222 145.782 45.0074 145.696 44.9779C145.539 44.9218 145.459 44.8067 145.459 44.6295C145.459 44.3165 145.702 44.163 146.187 44.163L146.409 44.1659L146.602 44.1778C146.602 44.0301 146.587 43.8116 146.56 43.5223C146.533 43.2329 146.522 43.0174 146.522 42.8727C146.522 42.4829 146.557 41.8895 146.628 41.0923C146.696 40.3098 146.729 39.7134 146.726 39.3089C146.312 39.6278 146.045 39.7872 145.933 39.7872C145.872 39.7874 145.812 39.7752 145.756 39.7513C145.7 39.7275 145.649 39.6925 145.607 39.6484C145.565 39.6069 145.531 39.5572 145.508 39.5025C145.485 39.4477 145.474 39.3889 145.474 39.3295C145.474 39.1878 145.604 39.0106 145.871 38.804C146.039 38.6888 146.276 38.4998 146.581 38.243C146.853 37.9684 147.114 37.8325 147.362 37.8325C147.569 37.8325 147.673 37.9507 147.673 38.1869C147.673 38.2577 147.664 38.364 147.643 38.5057C147.628 38.6094 147.619 38.714 147.617 38.8187C147.617 38.9221 147.623 39.0756 147.631 39.2793C147.643 39.486 147.649 39.6396 147.649 39.74C147.649 40.0943 147.614 40.6139 147.537 41.3078C147.475 41.8274 147.438 42.3496 147.427 42.8727C147.427 43.0499 147.439 43.2654 147.463 43.5223C147.489 43.7762 147.501 43.9858 147.504 44.1482L147.993 44.1394C148.123 44.1394 148.229 44.1837 148.312 44.2693C148.401 44.352 148.442 44.4553 148.442 44.5823C148.442 44.7122 148.401 44.8185 148.312 44.9012C148.229 44.9838 148.123 45.0252 147.993 45.0252V45.0222ZM150.242 45.4503C150.166 45.4512 150.091 45.4367 150.022 45.4078C149.952 45.3789 149.889 45.3361 149.836 45.282C149.782 45.2298 149.739 45.1669 149.71 45.0973C149.681 45.0277 149.666 44.9529 149.668 44.8775C149.668 44.721 149.727 44.5882 149.836 44.476C149.889 44.4208 149.952 44.377 150.023 44.3475C150.093 44.3181 150.169 44.3035 150.245 44.3047C150.402 44.3047 150.538 44.3638 150.647 44.476C150.763 44.5882 150.819 44.721 150.819 44.8775C150.819 45.037 150.763 45.1728 150.647 45.282C150.595 45.336 150.533 45.3787 150.463 45.4077C150.394 45.4366 150.32 45.4511 150.245 45.4503H150.242ZM154.64 45.0252H153.716L152.799 45.0193C152.58 45.0193 152.429 45.0074 152.343 44.9779C152.183 44.9218 152.106 44.8067 152.106 44.6295C152.106 44.3165 152.349 44.163 152.834 44.163L153.056 44.1659L153.249 44.1778C153.249 44.0301 153.234 43.8116 153.204 43.5223C153.181 43.2329 153.169 43.0174 153.169 42.8727C153.169 42.4829 153.204 41.8895 153.275 41.0923C153.343 40.3098 153.376 39.7134 153.373 39.3089C152.959 39.6278 152.692 39.7872 152.58 39.7872C152.519 39.7876 152.459 39.7755 152.403 39.7516C152.347 39.7277 152.296 39.6926 152.254 39.6484C152.211 39.6071 152.177 39.5576 152.154 39.5028C152.13 39.448 152.118 39.3891 152.118 39.3295C152.118 39.1878 152.251 39.0106 152.518 38.804C152.686 38.6888 152.923 38.4998 153.228 38.243C153.5 37.9684 153.761 37.8325 154.009 37.8325C154.217 37.8325 154.32 37.9507 154.32 38.1869C154.32 38.2577 154.311 38.364 154.291 38.5057C154.275 38.6094 154.266 38.714 154.264 38.8187C154.264 38.9221 154.27 39.0756 154.279 39.2793C154.291 39.486 154.296 39.6396 154.296 39.74C154.296 40.0943 154.261 40.6139 154.184 41.3078C154.122 41.8274 154.086 42.3496 154.074 42.8727C154.074 43.0499 154.086 43.2654 154.11 43.5223C154.137 43.7762 154.148 43.9858 154.151 44.1482L154.64 44.1394C154.77 44.1394 154.877 44.1837 154.959 44.2693C155.048 44.352 155.09 44.4553 155.09 44.5823C155.09 44.7122 155.048 44.8185 154.959 44.9012C154.877 44.9838 154.77 45.0252 154.64 45.0252ZM77.9777 48.9374C77.9481 49.0201 77.9333 49.1441 77.9333 49.3006C77.9333 49.3596 77.9333 49.4482 77.9392 49.5663L77.9451 49.8321C77.9451 50.0269 77.9274 50.3222 77.8919 50.7119C77.8633 51.0064 77.8465 51.3019 77.8415 51.5977C77.8415 51.7454 77.8504 51.9698 77.8711 52.2709C77.8948 52.5721 77.9066 52.7994 77.9066 52.95C77.9075 52.9885 77.9003 53.0268 77.8855 53.0624C77.8708 53.098 77.8487 53.1301 77.8208 53.1567C77.7946 53.1832 77.7632 53.2039 77.7286 53.2176C77.6939 53.2314 77.6568 53.2378 77.6196 53.2364C77.5817 53.2374 77.5439 53.2306 77.5088 53.2164C77.4737 53.2022 77.4419 53.1808 77.4154 53.1538C77.3884 53.1272 77.3671 53.0955 77.3528 53.0604C77.3386 53.0254 77.3317 52.9878 77.3325 52.95C77.3325 52.7994 77.3207 52.5721 77.2999 52.2709C77.2816 52.046 77.2707 51.8205 77.2674 51.5948C77.2674 51.453 77.2733 51.3054 77.2822 51.1578C76.9418 51.1637 76.5216 51.2139 76.0184 51.3084L74.7665 51.5505C74.7665 51.7276 74.7488 51.9816 74.7133 52.3093C74.6777 52.6341 74.66 52.888 74.66 53.0681C74.6608 53.1066 74.6536 53.1449 74.6389 53.1805C74.6241 53.2161 74.6021 53.2482 74.5742 53.2748C74.5486 53.3025 74.5174 53.3244 74.4828 53.3392C74.4481 53.354 74.4106 53.3612 74.3729 53.3604C74.3341 53.3611 74.2955 53.3535 74.2598 53.3383C74.2241 53.323 74.192 53.3004 74.1657 53.2719C74.1396 53.2449 74.119 53.213 74.1053 53.178C74.0916 53.143 74.085 53.1057 74.0858 53.0681C74.0858 52.8615 74.1036 52.5485 74.1361 52.1322C74.1661 51.82 74.1839 51.5068 74.1894 51.1932C74.1894 51.084 74.1894 50.9186 74.1776 50.7001C74.1709 50.5358 74.1669 50.3715 74.1657 50.207C74.1657 50.0505 74.1776 49.8143 74.1953 49.5043C74.216 49.1884 74.2249 48.9551 74.2249 48.7957C74.2242 48.7575 74.2312 48.7195 74.2454 48.684C74.2596 48.6485 74.2809 48.6162 74.3078 48.589C74.3348 48.5618 74.3672 48.5405 74.4028 48.5263C74.4384 48.5121 74.4766 48.5053 74.515 48.5063C74.5949 48.5063 74.6629 48.5358 74.7162 48.589C74.7434 48.616 74.7648 48.6482 74.7791 48.6838C74.7933 48.7193 74.8001 48.7574 74.7991 48.7957C74.7991 48.9551 74.7872 49.1943 74.7665 49.5102C74.7498 49.7461 74.74 49.9824 74.7369 50.2188L74.7547 50.9688L76.0332 50.7267C76.5452 50.6322 76.9773 50.582 77.3266 50.5791C77.3473 50.2956 77.3591 49.8704 77.3591 49.3006C77.3591 49.1529 77.3858 48.9994 77.4331 48.8459C77.5012 48.6333 77.5929 48.5299 77.7113 48.5299C77.7883 48.5299 77.8563 48.5565 77.9155 48.6126C77.9747 48.6658 78.0043 48.7307 78.0043 48.8163C78.0043 48.8459 77.9954 48.8872 77.9747 48.9374H77.9777ZM79.8629 53.2896C79.5285 53.2896 79.2414 53.1656 79.0017 52.9205C78.7233 52.6229 78.5716 52.2291 78.5785 51.8221C78.5576 51.4021 78.6762 50.987 78.9159 50.6411C79.0419 50.4491 79.2155 50.2929 79.4197 50.1873C79.624 50.0818 79.8521 50.0306 80.0819 50.0387C80.4785 50.0387 80.7804 50.2218 80.9846 50.582C81.1474 50.8773 81.2273 51.2257 81.2214 51.6361C81.2269 52.0371 81.1057 52.4296 80.8751 52.7581C80.6206 53.1124 80.2832 53.2896 79.8629 53.2896ZM80.0405 50.6411C79.7505 50.6411 79.5226 50.7769 79.3598 51.0544C79.2269 51.2883 79.1595 51.5534 79.1645 51.8221C79.1645 52.1085 79.2444 52.33 79.4012 52.4924C79.5315 52.6223 79.6854 52.6902 79.8629 52.6902C80.0701 52.6902 80.2477 52.6134 80.3957 52.4658C80.4828 52.3768 80.5514 52.2715 80.5976 52.156C80.6438 52.0405 80.6667 51.917 80.665 51.7926C80.6946 51.0249 80.4874 50.6411 80.0435 50.6411H80.0405ZM83.9768 50.83C83.8672 50.83 83.7903 50.7946 83.7459 50.7208C83.7024 50.6196 83.6764 50.5118 83.669 50.4019C83.521 50.4403 83.2901 50.5082 82.9794 50.6086C82.6597 50.7356 82.497 50.892 82.494 51.0781C82.5532 51.0987 82.6124 51.1135 82.6716 51.1253C83.1274 51.205 83.4707 51.3172 83.6926 51.459C83.847 51.5519 83.9735 51.6845 84.0589 51.843C84.1442 52.0014 84.1854 52.1798 84.178 52.3595C84.178 52.6843 84.0389 52.9264 83.7577 53.0888C83.5239 53.2246 83.2309 53.2896 82.8728 53.2896C82.6185 53.2909 82.3659 53.2469 82.127 53.1597C81.8222 53.0504 81.6683 52.8939 81.6683 52.6991C81.6683 52.6193 81.6979 52.5514 81.76 52.4924C81.8176 52.4357 81.8952 52.4039 81.9761 52.4038C82.0353 52.4038 82.1181 52.4481 82.2128 52.5455C82.2632 52.5898 82.3697 52.6282 82.5384 52.6577C82.7956 52.7167 83.0637 52.7085 83.3168 52.6341C83.5003 52.575 83.592 52.4865 83.592 52.3595C83.592 52.0938 83.4056 51.9107 83.0267 51.8162L82.716 51.7454C82.5176 51.7141 82.3269 51.646 82.1537 51.5446C81.9909 51.4353 81.911 51.267 81.911 51.0426C81.911 50.6293 82.1063 50.337 82.497 50.1627C82.6153 50.1066 82.8077 50.0446 83.0711 49.9708C83.3345 49.897 83.521 49.8321 83.6334 49.7819C83.7163 49.7464 83.8051 49.7287 83.8998 49.7287C83.9886 49.7287 84.0567 49.7582 84.107 49.8114C84.1662 49.8675 84.1958 49.9383 84.1958 50.0269C84.1958 50.086 84.2046 50.1687 84.2283 50.2809C84.255 50.3901 84.2668 50.4757 84.2668 50.5318C84.2668 50.6204 84.2372 50.6913 84.1839 50.7474C84.157 50.7747 84.1247 50.7961 84.089 50.8103C84.0534 50.8246 84.0151 50.8313 83.9768 50.83ZM86.9363 50.5879C86.8949 50.5879 86.8446 50.5879 86.7884 50.582C86.7391 50.5782 86.6898 50.5762 86.6404 50.5761C86.593 50.5761 86.4598 50.5909 86.2349 50.6204L86.2911 52.3713V52.5042L86.2971 52.6518C86.3059 53.0859 86.1994 53.3014 85.9834 53.3014C85.907 53.3035 85.8327 53.2759 85.7762 53.2246C85.7481 53.2011 85.7256 53.1718 85.7103 53.1386C85.6949 53.1054 85.6871 53.0692 85.6874 53.0327L85.6963 52.6961L85.7052 52.3566L85.646 50.6263C85.4246 50.6148 85.2036 50.598 84.983 50.5761C84.8054 50.5525 84.7166 50.4551 84.7166 50.2809C84.7166 50.1952 84.7462 50.1244 84.7995 50.0653C84.8259 50.037 84.858 50.0147 84.8937 50C84.9295 49.9852 84.968 49.9783 85.0067 49.9797L85.6312 50.0299C85.6312 49.9295 85.6252 49.7937 85.6164 49.6283C85.6075 49.4571 85.6045 49.3331 85.6045 49.2592C85.6045 49.1766 85.6341 49.1116 85.6933 49.0555C85.7489 49.002 85.8233 48.9724 85.9005 48.9728C86.081 48.9728 86.1876 49.1205 86.2172 49.4098C86.2231 49.4807 86.226 49.5693 86.226 49.6726L86.2201 49.8439L86.2172 50.0269C86.4628 49.9974 86.6019 49.9797 86.6404 49.9797C86.8475 49.9797 86.9807 49.9915 87.0458 50.0092C87.1642 50.0505 87.2264 50.1421 87.2264 50.2897C87.2264 50.3783 87.1997 50.4492 87.1435 50.5052C87.1166 50.5325 87.0842 50.554 87.0486 50.5682C87.0129 50.5824 86.9747 50.5892 86.9363 50.5879ZM88.6411 52.4422C88.6429 52.483 88.6362 52.5238 88.6214 52.5619C88.6067 52.6 88.5841 52.6346 88.5552 52.6636C88.5264 52.6919 88.4922 52.7141 88.4545 52.7288C88.4169 52.7436 88.3766 52.7505 88.3362 52.7493C88.2474 52.7493 88.1734 52.7197 88.1172 52.6607C88.0882 52.6323 88.0653 52.5982 88.05 52.5606C88.0347 52.5231 88.0274 52.4827 88.0284 52.4422C88.0284 52.4067 88.0225 52.3536 88.0107 52.2798C88.0009 52.2261 87.9949 52.1719 87.9929 52.1174C87.9919 52.0786 87.9993 52.04 88.0146 52.0043C88.0299 51.9687 88.0528 51.9367 88.0817 51.9107C88.1468 51.8546 88.2208 51.828 88.3066 51.828C88.5316 51.828 88.6411 52.0347 88.6411 52.4422ZM88.5907 50.2809C88.592 50.3211 88.5849 50.3612 88.57 50.3987C88.5552 50.4361 88.5328 50.4701 88.5042 50.4986C88.4756 50.5271 88.4415 50.5495 88.404 50.5643C88.3665 50.5792 88.3263 50.5862 88.2859 50.585C88.2455 50.5862 88.2052 50.5793 88.1676 50.5646C88.13 50.5498 88.0957 50.5277 88.0669 50.4993C88.0378 50.471 88.015 50.4369 87.9997 50.3993C87.9844 50.3617 87.9771 50.3214 87.9781 50.2809C87.9766 50.2441 87.9716 50.2075 87.9633 50.1716C87.9566 50.1345 87.9527 50.097 87.9515 50.0594C87.9515 49.9767 87.9811 49.9059 88.0403 49.8527C88.0995 49.7937 88.1764 49.7671 88.2622 49.7671C88.4812 49.7671 88.5907 49.9383 88.5907 50.2809ZM95.0456 50.458C94.8917 51.1076 94.6875 51.8339 94.4359 52.643C94.3827 52.826 94.2879 53.0091 94.1607 53.198C94.1312 53.2466 94.0894 53.2867 94.0396 53.3141C93.9897 53.3416 93.9335 53.3555 93.8766 53.3545C93.6576 53.3486 93.4918 53.0829 93.3675 52.5514C93.3179 52.322 93.2784 52.0905 93.2491 51.8576L93.1485 51.1962L92.9029 51.7631L92.45 52.9855C92.4295 53.0527 92.3893 53.1123 92.3346 53.1567C92.3107 53.2114 92.2708 53.2576 92.2201 53.2893C92.1694 53.3209 92.1103 53.3364 92.0505 53.3339C91.8996 53.3427 91.7545 53.0475 91.6095 52.451C91.5201 52.04 91.449 51.6253 91.3964 51.208L91.3254 50.7651C91.302 50.6166 91.2891 50.4666 91.2869 50.3163C91.2853 50.2777 91.2922 50.2392 91.307 50.2035C91.3218 50.1678 91.3442 50.1358 91.3728 50.1096C91.4319 50.0564 91.503 50.0269 91.5858 50.0269C91.7397 50.0269 91.8315 50.1096 91.867 50.2749C91.8936 50.393 91.9144 50.5348 91.9292 50.706L91.9735 51.143L92.1511 52.4717C92.3731 51.8635 92.601 51.1637 92.8377 50.3694C92.9029 50.1509 93.0153 50.0387 93.1811 50.0387C93.3379 50.0387 93.4445 50.1627 93.5007 50.4078C93.551 50.6381 93.6191 50.9954 93.6931 51.4737C93.773 51.9727 93.844 52.3595 93.9062 52.64L94.1222 51.8339L94.507 50.2188C94.5365 50.0978 94.6253 50.0358 94.7644 50.0358C94.8473 50.0358 94.9213 50.0653 94.9834 50.1244C95.0126 50.1491 95.0359 50.1799 95.0517 50.2146C95.0676 50.2493 95.0756 50.287 95.0752 50.3251C95.0752 50.334 95.0663 50.3812 95.0456 50.461V50.458ZM99.2304 50.458C99.0736 51.1076 98.8723 51.8339 98.6208 52.643C98.5562 52.8407 98.4624 53.0278 98.3426 53.198C98.2745 53.3043 98.1798 53.3545 98.0585 53.3545C97.8424 53.3486 97.6737 53.0829 97.5524 52.5514C97.5023 52.3219 97.4618 52.0904 97.431 51.8576L97.3304 51.1962L97.0877 51.7631L96.6319 52.9855C96.6083 53.0622 96.5698 53.1183 96.5195 53.1567C96.4954 53.2119 96.455 53.2585 96.4037 53.2901C96.3524 53.3218 96.2926 53.3371 96.2324 53.3339C96.0844 53.3427 95.9364 53.0475 95.7944 52.451C95.7049 52.04 95.6338 51.6253 95.5813 51.208L95.5073 50.7651C95.484 50.6166 95.4712 50.4666 95.4688 50.3163C95.4676 50.2775 95.4749 50.2388 95.4902 50.2031C95.5056 50.1674 95.5286 50.1355 95.5576 50.1096C95.6168 50.0564 95.6878 50.0269 95.7707 50.0269C95.9216 50.0269 96.0163 50.1096 96.0519 50.2749C96.0785 50.393 96.0992 50.5348 96.114 50.706L96.1584 51.143L96.336 52.4717C96.555 51.8635 96.7858 51.1637 97.0226 50.3694C97.0877 50.1509 97.2002 50.0387 97.363 50.0387C97.5228 50.0387 97.6293 50.1627 97.6826 50.4078C97.7359 50.6381 97.801 50.9954 97.8779 51.4737C97.9578 51.9727 98.0259 52.3595 98.088 52.64L98.3071 51.8339L98.6918 50.2188C98.7214 50.0978 98.8102 50.0358 98.9493 50.0358C98.9894 50.0352 99.0293 50.0427 99.0664 50.0579C99.1036 50.0731 99.1372 50.0957 99.1653 50.1244C99.1948 50.1489 99.2186 50.1796 99.235 50.2143C99.2513 50.249 99.2599 50.2868 99.26 50.3251L99.2304 50.461V50.458ZM103.412 50.458C103.258 51.1076 103.057 51.8339 102.803 52.643C102.749 52.826 102.655 53.0091 102.527 53.198C102.498 53.2466 102.456 53.2867 102.406 53.3141C102.356 53.3416 102.3 53.3555 102.243 53.3545C102.027 53.3486 101.859 53.0829 101.737 52.5514C101.696 52.3802 101.654 52.1499 101.613 51.8576L101.515 51.1962L101.27 51.7631L100.817 52.9855C100.79 53.0622 100.752 53.1183 100.704 53.1567C100.645 53.2748 100.547 53.3339 100.417 53.3339C100.266 53.3427 100.121 53.0475 99.9792 52.451C99.8888 52.0401 99.8167 51.6253 99.7632 51.208L99.6921 50.7651C99.6689 50.6166 99.656 50.4666 99.6537 50.3163C99.6521 50.2777 99.6589 50.2392 99.6737 50.2035C99.6885 50.1678 99.711 50.1358 99.7395 50.1096C99.7987 50.0564 99.8697 50.0269 99.9555 50.0269C100.104 50.0269 100.198 50.1096 100.234 50.2749C100.263 50.393 100.281 50.5348 100.299 50.706L100.343 51.143L100.521 52.4717C100.74 51.8635 100.968 51.1637 101.204 50.3694C101.27 50.1509 101.382 50.0387 101.548 50.0387C101.705 50.0387 101.811 50.1627 101.867 50.4078C101.918 50.6381 101.986 50.9954 102.06 51.4737C102.14 51.9727 102.211 52.3595 102.273 52.64L102.492 51.8339L102.877 50.2188C102.906 50.0978 102.992 50.0358 103.131 50.0358C103.217 50.0358 103.288 50.0653 103.35 50.1244C103.379 50.1491 103.403 50.1799 103.418 50.2146C103.434 50.2493 103.442 50.287 103.442 50.3251C103.442 50.334 103.433 50.3812 103.412 50.461V50.458ZM104.407 53.39C104.303 53.39 104.214 53.3545 104.143 53.2807C104.109 53.2469 104.082 53.2065 104.063 53.1618C104.045 53.1171 104.036 53.0692 104.037 53.0209C104.037 52.9205 104.072 52.8349 104.143 52.764C104.214 52.6902 104.303 52.6548 104.407 52.6548C104.507 52.6548 104.593 52.6902 104.667 52.764C104.738 52.8349 104.777 52.9205 104.777 53.0209C104.777 53.1242 104.738 53.2099 104.667 53.2807C104.634 53.3157 104.593 53.3435 104.548 53.3623C104.504 53.3811 104.455 53.3905 104.407 53.39ZM108.148 50.4669L107.115 52.6872C106.902 53.1309 106.707 53.583 106.532 54.0425L106.333 54.6153C106.283 54.757 106.191 54.8309 106.067 54.8309C105.981 54.8309 105.91 54.8013 105.848 54.7452C105.819 54.7203 105.797 54.6893 105.781 54.6547C105.766 54.62 105.759 54.5824 105.759 54.5445C105.759 54.3466 105.972 53.7768 106.402 52.829L105.336 50.7858L105.2 50.5702C105.147 50.4816 105.12 50.4049 105.12 50.3429C105.12 50.3026 105.128 50.2626 105.143 50.2255C105.159 50.1884 105.182 50.155 105.212 50.1273C105.24 50.0991 105.273 50.0767 105.309 50.0614C105.346 50.0462 105.385 50.0385 105.425 50.0387C105.514 50.0387 105.588 50.0712 105.635 50.1391C106.062 50.7665 106.427 51.434 106.724 52.1322L107.168 51.1105C107.306 50.798 107.459 50.4925 107.627 50.1952C107.689 50.086 107.775 50.0299 107.875 50.0299C107.958 50.0299 108.029 50.0594 108.091 50.1185C108.121 50.1435 108.145 50.1747 108.161 50.2098C108.178 50.245 108.186 50.2834 108.186 50.3222C108.186 50.3635 108.174 50.4137 108.148 50.4698V50.4669ZM109.846 53.2896C109.512 53.2896 109.225 53.1656 108.985 52.9205C108.706 52.6234 108.553 52.2295 108.559 51.8221C108.539 51.4018 108.659 50.9866 108.899 50.6411C109.025 50.4491 109.199 50.2929 109.403 50.1873C109.608 50.0818 109.836 50.0306 110.065 50.0387C110.462 50.0387 110.764 50.2218 110.968 50.582C111.131 50.8773 111.211 51.2257 111.205 51.6361C111.21 52.0371 111.089 52.4296 110.859 52.7581C110.604 53.1124 110.267 53.2896 109.846 53.2896ZM110.024 50.6411C109.734 50.6411 109.506 50.7769 109.343 51.0544C109.21 51.2883 109.143 51.5534 109.148 51.8221C109.148 52.1085 109.228 52.33 109.385 52.4924C109.515 52.6223 109.669 52.6902 109.846 52.6902C110.054 52.6902 110.231 52.6134 110.379 52.4658C110.548 52.2975 110.64 52.0731 110.649 51.7926C110.678 51.0249 110.471 50.6411 110.027 50.6411H110.024ZM114.378 51.3822C114.379 51.8753 114.384 52.3684 114.392 52.8615C114.401 52.95 114.404 53.0179 114.404 53.0593C114.405 53.0978 114.398 53.1362 114.384 53.1718C114.369 53.2075 114.347 53.2396 114.318 53.266C114.291 53.2933 114.258 53.315 114.222 53.3297C114.186 53.3444 114.147 53.3518 114.108 53.3516C113.954 53.3516 113.857 53.2571 113.812 53.0681C113.567 53.1981 113.28 53.263 112.954 53.263C112.694 53.263 112.481 53.204 112.309 53.0888C112.216 53.0268 112.137 52.9453 112.079 52.8499C112.021 52.7545 111.984 52.6476 111.971 52.5367C111.898 52.0736 111.859 51.6059 111.853 51.1371C111.853 50.8655 111.883 50.5584 111.942 50.2129C111.971 50.0387 112.066 49.9531 112.229 49.9531C112.268 49.9521 112.307 49.9589 112.344 49.9731C112.38 49.9873 112.414 50.0086 112.442 50.0358C112.501 50.0889 112.531 50.1598 112.531 50.2425C112.531 50.334 112.513 50.4787 112.483 50.6795C112.454 50.8802 112.442 51.0338 112.442 51.1371C112.442 51.4678 112.454 51.7483 112.475 51.9845C112.495 52.2207 112.531 52.4067 112.572 52.5514C112.64 52.5869 112.702 52.6134 112.768 52.6341C112.83 52.6518 112.895 52.6607 112.954 52.6607C113.22 52.6607 113.505 52.6164 113.8 52.5337L113.798 51.9314L113.792 51.3556C113.792 50.9304 113.809 50.5584 113.848 50.2454C113.869 50.0624 113.966 49.9708 114.138 49.9708C114.177 49.9698 114.216 49.9766 114.253 49.9908C114.289 50.005 114.323 50.0263 114.351 50.0535C114.379 50.0795 114.402 50.1116 114.416 50.1474C114.43 50.1832 114.436 50.2217 114.434 50.2602L114.378 51.3822ZM117.447 50.9216C117.432 51.1696 117.334 51.2936 117.148 51.2936C116.976 51.2936 116.89 51.1962 116.89 50.9983C116.89 50.9629 116.89 50.892 116.881 50.7917L116.873 50.5436C116.602 50.566 116.342 50.6575 116.118 50.8094C115.923 50.9607 115.771 51.1602 115.677 51.3881L115.683 53.012C115.683 53.2128 115.585 53.3103 115.387 53.3103C115.212 53.3103 115.126 53.2128 115.126 53.015V50.9304C115.126 50.7355 115.13 50.5405 115.141 50.3458C115.141 50.145 115.23 50.0446 115.402 50.0446C115.597 50.0446 115.698 50.21 115.698 50.5377C115.863 50.3668 116.06 50.2302 116.279 50.1359C116.497 50.0417 116.732 49.9916 116.97 49.9885C117.13 49.9885 117.251 50.0476 117.331 50.1716C117.408 50.2897 117.45 50.4728 117.45 50.7149L117.447 50.9216ZM120.548 54.137C120.409 54.137 120.196 54.1311 119.915 54.1222C119.703 54.1129 119.491 54.107 119.279 54.1045H117.95C117.905 54.1045 117.837 54.1104 117.743 54.1222C117.654 54.1311 117.586 54.137 117.541 54.137V53.5878C117.74 53.5878 118.039 53.5878 118.438 53.5819L119.332 53.5789C119.474 53.5789 119.684 53.5819 119.962 53.5937C120.243 53.6055 120.454 53.6114 120.596 53.6114L121.593 53.5878V54.137H120.548ZM123.242 53.2984C122.867 53.311 122.501 53.18 122.22 52.9323C122.079 52.8048 121.967 52.6476 121.893 52.4721C121.818 52.2966 121.784 52.1069 121.791 51.9166C121.805 51.4735 121.944 51.0433 122.194 50.6765C122.49 50.2011 122.827 49.962 123.2 49.962C123.398 49.962 123.614 50.0092 123.857 50.0978C124.159 50.2159 124.313 50.3576 124.313 50.5259C124.313 50.5997 124.286 50.6676 124.239 50.7267C124.217 50.7546 124.188 50.777 124.156 50.7923C124.124 50.8077 124.088 50.8155 124.052 50.8153C123.998 50.8151 123.944 50.7964 123.902 50.7621C123.86 50.7274 123.819 50.693 123.777 50.6588C123.659 50.5673 123.469 50.52 123.203 50.52C122.999 50.52 122.798 50.6972 122.599 51.0603C122.439 51.3191 122.346 51.6132 122.327 51.9166C122.327 52.1764 122.416 52.3831 122.596 52.5308C122.739 52.6456 122.911 52.7177 123.093 52.7386C123.275 52.7595 123.459 52.7284 123.623 52.6489L123.97 52.4628C124.029 52.4333 124.07 52.4156 124.097 52.4156C124.171 52.4156 124.236 52.4451 124.289 52.5042C124.315 52.5307 124.336 52.5621 124.349 52.5966C124.363 52.6311 124.37 52.6679 124.369 52.705C124.369 52.8496 124.215 52.9884 123.91 53.1213C123.641 53.2394 123.419 53.2984 123.242 53.2984ZM126.151 53.2896C125.816 53.2896 125.529 53.1656 125.287 52.9205C125.008 52.6229 124.856 52.2291 124.863 51.8221C124.843 51.4018 124.963 50.9866 125.204 50.6411C125.33 50.4496 125.503 50.2936 125.706 50.1881C125.91 50.0826 126.137 50.0312 126.367 50.0387C126.766 50.0387 127.068 50.2218 127.272 50.582C127.435 50.8773 127.515 51.2257 127.509 51.6361C127.515 52.0371 127.394 52.4296 127.163 52.7581C126.908 53.1124 126.571 53.2896 126.151 53.2896ZM126.328 50.6411C126.038 50.6411 125.81 50.7769 125.648 51.0544C125.515 51.2883 125.447 51.5534 125.452 51.8221C125.452 52.1085 125.532 52.33 125.689 52.4924C125.819 52.6223 125.973 52.6902 126.151 52.6902C126.358 52.6902 126.536 52.6134 126.684 52.4658C126.771 52.3768 126.839 52.2715 126.885 52.156C126.932 52.0405 126.955 51.917 126.953 51.7926C126.982 51.0249 126.775 50.6411 126.331 50.6411H126.328ZM132.04 53.3575C131.875 53.3575 131.78 53.2748 131.75 53.1006C131.715 52.8851 131.679 52.578 131.644 52.1853L131.543 51.2641C131.523 51.127 131.488 50.9925 131.44 50.8625C131.374 50.6854 131.3 50.5968 131.221 50.5968C131.147 50.5968 131.01 50.6588 130.806 50.7828C130.617 50.9009 130.493 50.9895 130.433 51.0603C130.43 51.2464 130.433 51.4324 130.448 51.6154L130.537 52.4067C130.575 52.7197 130.596 52.9766 130.596 53.1803C130.597 53.2204 130.59 53.2603 130.574 53.2974C130.559 53.3345 130.536 53.3681 130.507 53.3959C130.481 53.424 130.449 53.4462 130.413 53.461C130.377 53.4757 130.339 53.4827 130.3 53.4815C130.261 53.4822 130.222 53.4747 130.186 53.4594C130.149 53.4442 130.117 53.4215 130.09 53.3929C130.063 53.3647 130.041 53.3314 130.027 53.2949C130.013 53.2584 130.006 53.2195 130.007 53.1803C130.007 52.9441 129.983 52.5898 129.933 52.1233C129.893 51.7703 129.869 51.4156 129.862 51.0603C129.862 50.8537 129.833 50.6913 129.773 50.5732C129.634 50.6381 129.492 50.7385 129.35 50.8802L128.995 51.2729C128.95 51.3383 128.901 51.4004 128.847 51.459C128.847 51.5771 128.835 51.7542 128.811 51.9845C128.791 52.2148 128.782 52.3861 128.782 52.4983C128.782 52.5573 128.788 52.64 128.806 52.7463C128.826 52.8526 128.835 52.9294 128.835 52.9766C128.836 53.0157 128.828 53.0544 128.812 53.0902C128.797 53.1259 128.773 53.1577 128.743 53.1833C128.684 53.2364 128.613 53.263 128.53 53.263C128.305 53.263 128.193 53.0091 128.193 52.5012C128.193 52.3831 128.205 52.206 128.228 51.9698C128.249 51.7365 128.258 51.5593 128.258 51.4412C128.258 51.3379 128.249 51.1784 128.228 50.9688C128.214 50.8117 128.207 50.6541 128.205 50.4964C128.205 50.0476 128.305 49.8232 128.507 49.8232C128.587 49.8232 128.655 49.8557 128.72 49.9236C128.785 49.9915 128.817 50.0653 128.817 50.1421C128.817 50.1805 128.814 50.2395 128.803 50.3192C128.794 50.396 128.788 50.458 128.788 50.4993L128.794 50.8094C128.897 50.5997 129.051 50.4078 129.25 50.2395C129.451 50.0653 129.622 49.9797 129.764 49.9797C130.075 49.9797 130.291 50.1332 130.41 50.4432C130.519 50.2986 130.646 50.1923 130.8 50.1185C130.948 50.0476 131.126 50.0092 131.318 50.0092C131.65 50.0092 131.878 50.1864 131.999 50.5436C132.023 50.6145 132.064 50.892 132.12 51.3763C132.205 51.9405 132.277 52.5066 132.336 53.074C132.34 53.1114 132.335 53.1492 132.321 53.1841C132.307 53.219 132.285 53.2501 132.256 53.2748C132.198 53.3312 132.119 53.362 132.037 53.3604L132.04 53.3575ZM134.266 53.2158C134.045 53.2124 133.825 53.1807 133.612 53.1213L133.606 54.5385C133.607 54.5779 133.6 54.6171 133.585 54.6537C133.57 54.6902 133.548 54.7234 133.52 54.7511C133.493 54.779 133.461 54.801 133.426 54.8157C133.39 54.8304 133.352 54.8376 133.313 54.8368C133.273 54.8379 133.234 54.8309 133.198 54.8161C133.161 54.8014 133.128 54.7793 133.1 54.7511C133.073 54.7227 133.052 54.6893 133.039 54.6528C133.025 54.6163 133.019 54.5775 133.02 54.5385L133.029 53.3545V52.1735C133.024 51.7785 133.01 51.3837 132.984 50.9895L132.94 50.3871C132.94 50.2454 132.964 50.1273 133.017 50.0328C133.076 49.9147 133.165 49.8557 133.277 49.8557C133.314 49.855 133.349 49.8621 133.383 49.8764C133.416 49.8906 133.446 49.9117 133.47 49.9383C133.496 49.9645 133.517 49.9958 133.531 50.0304C133.545 50.0649 133.551 50.102 133.55 50.1391C133.55 50.1568 133.55 50.1893 133.541 50.2366C133.532 50.2924 133.525 50.3485 133.52 50.4049C133.674 50.2978 133.841 50.2105 134.017 50.145C134.163 50.0885 134.317 50.0585 134.473 50.0564C134.882 50.0564 135.178 50.2336 135.367 50.5938C135.515 50.8773 135.592 51.2552 135.592 51.7247C135.607 52.1061 135.484 52.4801 135.246 52.7788C135.127 52.9213 134.978 53.0348 134.808 53.1105C134.639 53.1863 134.454 53.2223 134.269 53.2158H134.266ZM134.473 50.647C134.301 50.6445 134.131 50.6862 133.979 50.768C133.872 50.8271 133.739 50.9304 133.576 51.084C133.606 51.5328 133.618 52.0022 133.618 52.4983C133.825 52.5794 134.046 52.6214 134.269 52.6223C134.515 52.6223 134.704 52.5308 134.837 52.3447C134.95 52.1853 135.006 51.9786 135.006 51.7247C135.006 51.3645 134.962 51.0958 134.873 50.9186C134.784 50.7385 134.651 50.647 134.473 50.647ZM138.599 53.3103C138.56 53.3103 138.492 53.266 138.392 53.1774C138.318 53.113 138.251 53.0407 138.193 52.9618C138.004 53.0652 137.835 53.142 137.69 53.1921C137.542 53.2453 137.424 53.2719 137.326 53.2719C136.859 53.2719 136.521 53.142 136.308 52.8821C136.107 52.6371 136.006 52.2621 136.006 51.7572C136.006 51.2788 136.172 50.8714 136.503 50.5289C136.654 50.3665 136.838 50.2372 137.042 50.1493C137.245 50.0613 137.465 50.0167 137.687 50.0181C137.865 50.0181 138.057 50.0624 138.27 50.1509C138.543 50.2631 138.676 50.396 138.676 50.5525C138.676 50.6057 138.654 50.6567 138.617 50.6942C138.599 50.771 138.581 50.892 138.569 51.0662C138.558 51.2856 138.552 51.5051 138.551 51.7247C138.551 51.9698 138.566 52.1676 138.602 52.3064C138.669 52.5393 138.755 52.7665 138.859 52.9855L138.877 53.0357C138.878 53.0722 138.871 53.1085 138.857 53.1421C138.843 53.1758 138.821 53.2059 138.794 53.2305C138.742 53.2806 138.671 53.3081 138.599 53.3073V53.3103ZM137.977 51.2493C137.978 51.0486 138.001 50.8486 138.045 50.6529C137.983 50.6206 137.919 50.593 137.853 50.5702C137.813 50.5549 137.771 50.546 137.729 50.5436C137.576 50.5435 137.425 50.5771 137.287 50.6419C137.149 50.7067 137.027 50.8012 136.93 50.9186C136.712 51.154 136.592 51.4634 136.595 51.7837C136.595 52.1085 136.654 52.3506 136.767 52.513C136.885 52.6725 137.057 52.7552 137.288 52.7552C137.477 52.7552 137.64 52.7197 137.773 52.6518C137.844 52.6134 137.945 52.5396 138.075 52.4245C138.01 51.9018 137.977 51.5091 137.977 51.2493ZM141.686 53.3221C141.514 53.3221 141.419 53.2335 141.396 53.0445L141.313 52.3949C141.286 52.1794 141.272 51.9625 141.271 51.7454C141.271 51.6922 141.271 51.5977 141.28 51.4649L141.292 51.1844C141.292 50.7562 141.212 50.5436 141.052 50.5436C140.83 50.5436 140.617 50.6735 140.413 50.9363C140.214 51.2097 140.068 51.5183 139.984 51.8457C139.981 51.9225 139.972 52.02 139.957 52.1351C139.936 52.3195 139.936 52.5058 139.957 52.6902C139.969 52.8083 139.975 52.8969 139.975 52.9559C139.976 52.9956 139.97 53.0351 139.956 53.0721C139.941 53.1092 139.92 53.1429 139.892 53.1715C139.865 53.1988 139.833 53.2202 139.797 53.2344C139.762 53.2487 139.723 53.2554 139.685 53.2542C139.646 53.2562 139.606 53.2499 139.57 53.2357C139.533 53.2214 139.5 53.1995 139.472 53.1715C139.444 53.1429 139.423 53.1092 139.408 53.0721C139.394 53.0351 139.388 52.9956 139.389 52.9559C139.387 52.8671 139.38 52.7784 139.368 52.6902C139.358 52.6019 139.352 52.5133 139.351 52.4245C139.351 52.2178 139.365 51.9373 139.392 51.5771C139.422 51.2168 139.439 50.9334 139.439 50.7297C139.424 50.543 139.417 50.3559 139.419 50.1686C139.417 50.1303 139.424 50.0922 139.438 50.0566C139.452 50.021 139.474 49.9887 139.501 49.962C139.529 49.9346 139.562 49.913 139.598 49.8983C139.634 49.8836 139.673 49.8761 139.712 49.8763C139.895 49.8763 139.996 50.0063 140.014 50.2602L140.022 50.6086C140.357 50.1657 140.703 49.9443 141.052 49.9443C141.372 49.9443 141.591 50.083 141.718 50.3635C141.804 50.5495 141.851 50.8241 141.857 51.1873V51.7631C141.857 51.9255 141.875 52.1381 141.917 52.3979C141.961 52.6577 141.985 52.8703 141.985 53.0298C141.985 53.1183 141.955 53.1862 141.896 53.2394C141.868 53.2666 141.835 53.288 141.799 53.3022C141.763 53.3164 141.724 53.3232 141.686 53.3221ZM145.199 50.4698L144.163 52.6843C143.95 53.1289 143.755 53.582 143.58 54.0425L143.382 54.6153C143.331 54.757 143.242 54.8309 143.115 54.8309C143.029 54.8309 142.958 54.8013 142.896 54.7452C142.868 54.7203 142.845 54.6893 142.829 54.6547C142.814 54.62 142.807 54.5824 142.807 54.5445C142.807 54.3466 143.02 53.7768 143.453 52.829L142.384 50.7858L142.248 50.5702C142.195 50.4816 142.168 50.4049 142.168 50.3429C142.168 50.3026 142.176 50.2627 142.192 50.2256C142.207 50.1886 142.231 50.1551 142.26 50.1273C142.288 50.0991 142.321 50.0767 142.357 50.0614C142.394 50.0462 142.433 50.0385 142.473 50.0387C142.562 50.0387 142.636 50.0712 142.683 50.1391C143.11 50.7664 143.475 51.4339 143.772 52.1322L144.216 51.1105C144.354 50.798 144.507 50.4925 144.675 50.1952C144.737 50.086 144.823 50.0299 144.926 50.0299C145.006 50.0299 145.077 50.0594 145.14 50.1185C145.17 50.1432 145.194 50.1742 145.211 50.2095C145.228 50.2447 145.237 50.2832 145.237 50.3222C145.237 50.3635 145.222 50.4137 145.196 50.4698H145.199ZM146.158 53.39C146.109 53.3907 146.06 53.3814 146.015 53.3626C145.969 53.3439 145.928 53.316 145.894 53.2807C145.86 53.2469 145.832 53.2065 145.814 53.1618C145.796 53.1171 145.787 53.0692 145.788 53.0209C145.788 52.9205 145.823 52.8349 145.894 52.764C145.968 52.6902 146.054 52.6548 146.161 52.6548C146.258 52.6548 146.347 52.6902 146.418 52.764C146.492 52.8349 146.528 52.9205 146.528 53.0209C146.528 53.1242 146.492 53.2099 146.418 53.2807C146.384 53.3157 146.344 53.3435 146.299 53.3623C146.254 53.3811 146.206 53.3905 146.158 53.39ZM148.647 53.3014C148.271 53.3131 147.906 53.181 147.626 52.9323C147.484 52.8048 147.372 52.6476 147.298 52.4721C147.224 52.2966 147.189 52.1069 147.196 51.9166C147.196 51.515 147.33 51.1017 147.599 50.6765C147.895 50.2011 148.235 49.962 148.605 49.962C148.803 49.962 149.02 50.0092 149.262 50.0978C149.567 50.2159 149.718 50.3576 149.718 50.5259C149.718 50.5997 149.694 50.6676 149.644 50.7267C149.622 50.7546 149.593 50.777 149.561 50.7923C149.529 50.8077 149.493 50.8155 149.458 50.8153C149.403 50.8151 149.349 50.7964 149.307 50.7621C149.266 50.7275 149.226 50.6931 149.185 50.6588C149.067 50.5673 148.875 50.52 148.608 50.52C148.404 50.52 148.203 50.6972 148.004 51.0603C147.846 51.3195 147.753 51.6135 147.735 51.9166C147.735 52.1764 147.824 52.3831 148.001 52.5308C148.144 52.6456 148.316 52.7177 148.498 52.7386C148.68 52.7595 148.864 52.7284 149.028 52.6489L149.375 52.4628C149.434 52.4333 149.478 52.4156 149.502 52.4156C149.576 52.4156 149.641 52.4451 149.694 52.5042C149.746 52.558 149.775 52.6301 149.774 52.705C149.774 52.8496 149.62 52.9884 149.315 53.1213C149.049 53.2394 148.824 53.2984 148.647 53.2984V53.3014ZM151.556 53.2896C151.221 53.2896 150.934 53.1656 150.695 52.9205C150.415 52.6234 150.262 52.2295 150.268 51.8221C150.248 51.4018 150.368 50.9866 150.609 50.6411C150.735 50.4491 150.908 50.2929 151.113 50.1873C151.317 50.0818 151.545 50.0306 151.775 50.0387C152.171 50.0387 152.473 50.2218 152.678 50.582C152.84 50.8773 152.92 51.2257 152.914 51.6361C152.92 52.0371 152.799 52.4296 152.568 52.7581C152.314 53.1124 151.976 53.2896 151.556 53.2896ZM151.733 50.6411C151.443 50.6411 151.216 50.7769 151.053 51.0544C150.92 51.2883 150.852 51.5534 150.857 51.8221C150.857 52.1085 150.937 52.33 151.094 52.4924C151.224 52.6223 151.378 52.6902 151.556 52.6902C151.763 52.6902 151.941 52.6134 152.089 52.4658C152.176 52.3768 152.244 52.2715 152.291 52.156C152.337 52.0405 152.36 51.917 152.358 51.7926C152.388 51.0249 152.18 50.6411 151.736 50.6411H151.733ZM157.445 53.3575C157.28 53.3575 157.185 53.2748 157.158 53.1006C157.12 52.8851 157.084 52.578 157.049 52.1853L156.948 51.2641C156.929 51.1271 156.895 50.9925 156.848 50.8625C156.78 50.6854 156.706 50.5968 156.626 50.5968C156.552 50.5968 156.416 50.6588 156.211 50.7828C156.022 50.9009 155.898 50.9895 155.838 51.0603C155.838 51.2464 155.838 51.4324 155.853 51.6154L155.942 52.4067C155.98 52.7197 156.001 52.9766 156.001 53.1803C156.003 53.2202 155.996 53.26 155.981 53.2972C155.966 53.3343 155.944 53.3679 155.915 53.3959C155.889 53.424 155.857 53.4462 155.821 53.461C155.785 53.4757 155.747 53.4827 155.708 53.4815C155.668 53.4826 155.629 53.4753 155.592 53.46C155.555 53.4448 155.522 53.4219 155.495 53.3929C155.468 53.3645 155.448 53.3311 155.434 53.2946C155.42 53.2581 155.414 53.2193 155.415 53.1803C155.415 52.9441 155.389 52.5898 155.338 52.1233C155.298 51.7703 155.274 51.4156 155.267 51.0603C155.267 50.8537 155.238 50.6913 155.178 50.5732C155.039 50.6381 154.897 50.7385 154.755 50.8802L154.4 51.2729C154.355 51.3381 154.305 51.4003 154.252 51.459C154.252 51.5771 154.24 51.7542 154.217 51.9845C154.196 52.2148 154.187 52.3861 154.187 52.4983C154.187 52.5573 154.193 52.64 154.211 52.7463C154.231 52.8526 154.24 52.9294 154.24 52.9766C154.241 53.0154 154.234 53.0541 154.219 53.0898C154.203 53.1255 154.18 53.1574 154.151 53.1833C154.089 53.2364 154.018 53.263 153.938 53.263C153.713 53.263 153.601 53.0091 153.601 52.5012C153.601 52.3831 153.61 52.206 153.631 51.9698C153.654 51.7365 153.666 51.5593 153.666 51.4412C153.666 51.3379 153.654 51.1784 153.636 50.9688C153.62 50.8118 153.611 50.6542 153.607 50.4964C153.607 50.0476 153.71 49.8232 153.912 49.8232C153.992 49.8232 154.06 49.8557 154.125 49.9236C154.19 49.9915 154.222 50.0653 154.222 50.1421C154.222 50.1805 154.22 50.2395 154.208 50.3192C154.199 50.396 154.193 50.458 154.193 50.4993L154.199 50.8094C154.302 50.5997 154.456 50.4078 154.658 50.2395C154.856 50.0653 155.027 49.9797 155.17 49.9797C155.48 49.9797 155.696 50.1332 155.815 50.4432C155.924 50.2986 156.051 50.1923 156.205 50.1185C156.353 50.0476 156.531 50.0092 156.723 50.0092C157.058 50.0092 157.286 50.1864 157.404 50.5436C157.428 50.6145 157.469 50.892 157.528 51.3763C157.612 51.9405 157.683 52.5066 157.741 53.074C157.745 53.1114 157.739 53.1491 157.725 53.1839C157.712 53.2188 157.69 53.25 157.661 53.2748C157.603 53.3312 157.524 53.362 157.442 53.3604L157.445 53.3575Z" fill="#1A1B21"/>
</svg>
