<svg width="23" height="32" viewBox="0 0 23 32" fill="none" xmlns="http://www.w3.org/2000/svg">
<path d="M21.6413 13.9293C18.8982 13.3211 16.4967 11.6467 14.9482 9.26254C13.4016 6.88166 12.8311 3.97933 13.3586 1.17587C13.5586 0.0053584 11.839 -0.518826 11.5791 0.682216C11.0817 3.10366 10.0283 5.3708 8.50496 7.29813C6.98125 9.22449 5.03223 10.7572 2.81656 11.7715C2.27149 11.6664 1.71595 11.6288 1.16202 11.6595C0.0773188 11.7257 -0.0126599 13.2932 0.877094 13.5324C0.896119 13.6532 0.941647 13.7682 1.01033 13.8686C1.07901 13.9691 1.16906 14.0525 1.27377 14.1127C1.37849 14.1728 1.49519 14.2082 1.61517 14.2161C1.73515 14.224 1.85534 14.2042 1.96679 14.1583C2.2867 14.0464 2.58162 13.9191 2.90653 13.797C7.99012 15.5884 7.83015 27.039 7.35528 31.0747C7.25031 31.9704 8.7199 32.3826 9.0698 31.5429C11.4491 25.8329 15.1181 17.3441 21.6413 15.7665C21.8463 15.7196 22.0294 15.6031 22.1606 15.4362C22.2919 15.2692 22.3634 15.0617 22.3634 14.8479C22.3634 14.6341 22.2919 14.4266 22.1606 14.2596C22.0294 14.0927 21.8463 13.9762 21.6413 13.9293ZM9.40974 26.1942C9.32976 21.2781 8.36003 15.166 5.00596 12.7283C7.80477 11.1127 10.1027 8.73082 11.6391 5.85281C12.0244 7.81537 12.8641 9.65602 14.0884 11.2219C15.3121 12.7903 16.8851 14.0393 18.6772 14.8657C14.5083 17.0184 11.5941 21.6954 9.42972 26.1993H9.40974V26.1942Z" fill="#275CF6"/>
</svg>
