<svg width="413" height="375" viewBox="0 0 413 375" fill="none" xmlns="http://www.w3.org/2000/svg">
<path d="M36.8626 162.206C276.395 -60.6212 455.262 172.435 320.753 302.019C303.112 319.035 283.241 330.637 263.572 343.999C262.658 344.669 261.346 349.576 261.925 349.419C281.352 340.873 300.397 325.84 316.367 310.744C463.819 171.709 279.532 -71.3948 38.309 157.611C37.3067 158.504 36.9071 162.094 36.8626 162.206Z" fill="#275CF6"/>
<path d="M277.614 302.695C274.037 318.838 271.517 335.274 259.53 347.679C258.84 348.429 257.459 353.521 257.973 353.213C276.25 342.675 302.842 345.582 319.298 355.605C319.928 355.984 321.092 352.088 321.156 351.601C322.244 342.673 264.491 330.677 258.262 352.816C271.047 339.062 276.482 318.915 278.946 300.662C279.183 299.089 277.634 302.318 277.614 302.695Z" fill="#275CF6"/>
</svg>
