<svg width="308" height="175" viewBox="0 0 308 175" fill="none" xmlns="http://www.w3.org/2000/svg">
<path d="M14.1731 128.209C74.0977 42.4347 183.58 19.2638 281.562 98.605C281.688 98.6738 281.296 94.464 280.208 93.6219C189.874 17.4225 71.6115 30.7159 12.4315 123.34C11.856 124.246 14.0763 128.238 14.1731 128.209Z" fill="#275CF6"/>
<path d="M232.705 96.1073C244.12 93.7217 253.138 90.3413 267.993 93.9466C271.168 94.7142 279.223 95.9621 281.571 99.3039C282.457 100.529 281.621 96.9569 281.564 96.7616C276.193 79.1432 284.221 61.9518 295.662 54.2577C296.352 53.7377 294.505 48.871 294.049 49.1106C269.836 63.1917 280.752 104.42 280.587 94.503C277.776 90.6605 248.405 81.0178 231.778 93.3038C231.419 93.515 232.317 96.2208 232.705 96.1073Z" fill="#275CF6"/>
</svg>
