<svg width="112" height="51" viewBox="0 0 112 51" fill="none" xmlns="http://www.w3.org/2000/svg">
<path d="M0.547034 40.9983C29.5652 25.5161 85.9999 29.8587 109.459 40.6208C109.554 40.6208 110.684 35.8062 109.365 35.2397C86.1883 26.9322 25.6082 21.3624 0.547034 36.467C-0.583545 37.1278 0.358604 41.0927 0.547034 40.9983Z" fill="#1A1B21"/>
<path d="M61.0637 1.21639C131.149 69.0541 128.159 16.0939 44.617 45.2876C43.3088 45.7554 44.4301 51.1824 44.8039 50.9953C66.1098 43.1354 88.9109 39.767 111.619 40.7026C112.086 40.7026 111.992 38.7377 111.992 38.5506C111.992 34.9949 109.096 34.1528 106.386 32.1879C74.8939 9.8248 72.1839 6.082 61.1571 0C60.9703 0.0935693 60.8768 1.02925 61.0637 1.21639Z" fill="#1A1B21"/>
</svg>
