<svg width="359" height="311" viewBox="0 0 359 311" fill="none" xmlns="http://www.w3.org/2000/svg">
<path d="M0.653968 116.384C30.6468 137.849 171.629 212.053 273.11 209.281C296.615 208.636 319.552 204.345 340.599 195.724C341.067 195.57 343.217 192.501 342.701 192.38C329.767 189.589 317.966 183.981 307.095 176.014C306.19 177.307 305.422 178.575 304.517 179.867C323.468 189.154 344.084 189.377 344.084 189.377C345.631 190.94 344.047 193.202 342.895 216.104C342.895 216.104 344.736 214.504 344.81 213.713C344.875 213.277 347.638 185.846 346.912 185.338C346.187 184.831 319.67 182.405 306.982 176.176C306.2 175.749 303.759 179.577 304.404 180.028C315.057 187.963 327.519 193.312 340.349 195.91C341.004 194.803 341.715 193.616 342.45 192.566C304.762 208.319 261.268 209.901 219.238 202.88C153.024 191.816 43.456 143.561 1.18715 115.794C1.00197 115.544 0.492799 116.271 0.653968 116.384Z" fill="#275CF6"/>
</svg>
