<svg width="81" height="85" viewBox="0 0 81 85" fill="none" xmlns="http://www.w3.org/2000/svg">
<path d="M40.7656 75.2971C79.1582 43.6517 70.3453 17.7024 49.1203 13.7122C37.4001 11.5101 32.4046 15.9395 26.3825 19.066C25.6795 19.4296 22.5478 17.358 22.7794 17.1191C41.559 -0.297995 106.894 24.8531 43.4065 76.6699C42.8954 77.1248 40.6724 75.3691 40.7656 75.2971Z" fill="#275CF6"/>
<path d="M67.5021 61.3368C64.1979 66.9188 50.2008 75.2328 43.4942 76.7419C43.1467 76.8028 40.4073 76.0443 40.6631 75.7374C43.251 72.568 44.6101 63.1819 45.1891 59.1973C45.219 59.0968 46.3083 59.3108 46.2842 59.5771C46.5878 65.0269 47.1146 72.1289 43.5596 76.7067C42.6159 76.3718 41.6722 76.037 40.7285 75.7021C50.0224 73.4297 64.4266 60.9707 65.1102 60.5173C65.4519 60.2907 67.6271 61.1005 67.5021 61.3368Z" fill="#275CF6"/>
</svg>
