<svg width="111" height="146" viewBox="0 0 111 146" fill="none" xmlns="http://www.w3.org/2000/svg">
<path d="M107.655 33.825C105.138 24.1247 69.6068 -7.29752 33.9277 24.7863C-15.2337 69.0058 59.7923 130.432 76.238 138.126C77.7306 138.797 79.965 134.688 79.7932 134.543C60.5812 125.456 -2.68896 67.5953 28.5494 32.0618C63.7743 -7.98408 102.624 32.8157 107.267 34.1446C107.341 34.2658 107.631 33.9226 107.655 33.825Z" fill="#275CF6"/>
<path d="M40.0096 131.209C51.55 142.668 68.5331 140.684 79.8247 138.047C80.5862 137.921 83.9299 135.324 83.1551 134.208C69.0387 116.554 71.8933 114.251 69.4807 102.625C69.4012 102.09 67.1343 104.122 67.04 104.512C63.4738 116.241 70.3096 127.284 79.3313 137.928C80.4743 136.656 81.5187 135.36 82.6617 134.089C59.3684 139.707 56.4255 133.733 42.3943 128.69C41.7786 128.644 39.4882 130.774 40.0096 131.209Z" fill="#275CF6"/>
</svg>
