<svg width="155" height="161" viewBox="0 0 155 161" fill="none" xmlns="http://www.w3.org/2000/svg">
<path d="M97.0588 1.79699C12.6234 37.3025 53.3432 104.852 63.8962 149.963C64.0034 150.479 61.9057 152.065 61.7715 151.808C58.7245 146.285 56.723 139.806 54.701 133.911C31.3558 65.5481 39.2394 24.3031 97.9096 0.780285C98.165 0.646892 97.3781 1.63025 97.0588 1.79699Z" fill="#275CF6"/>
<path d="M68.816 117.936C63.6869 129.407 62.6639 142.433 65.6551 155.416C65.8683 156.456 62.3452 158.542 62.3088 158.314C53.2345 132.893 38.348 122.998 35.4025 118.62C34.9669 117.943 37.7335 115.512 38.4562 115.792C43.6223 118.272 58.5703 133.805 65.6524 155.254C64.5267 156.252 63.4319 157.153 62.3061 158.152C59.5683 144.707 61.0753 131.346 66.59 119.509C66.8407 118.885 69.1004 117.376 68.816 117.936Z" fill="#275CF6"/>
</svg>
