<svg width="32" height="30" viewBox="0 0 32 30" fill="none" xmlns="http://www.w3.org/2000/svg">
<path fill-rule="evenodd" clip-rule="evenodd" d="M8 12.8462C8 10.1697 10.249 8 13.0233 8H16C18.7743 8 21.0233 10.1697 21.0233 12.8462C21.0233 15.5226 18.7743 17.6923 16 17.6923H14.5116C14.2034 17.6923 13.9535 17.4512 13.9535 17.1538C13.9535 16.8565 14.2034 16.6154 14.5116 16.6154H16C18.1578 16.6154 19.907 14.9278 19.907 12.8462C19.907 10.7645 18.1578 9.07692 16 9.07692H13.0233C10.8655 9.07692 9.11628 10.7645 9.11628 12.8462C9.11628 13.8119 9.492 14.6916 10.111 15.3588C10.3166 15.5804 10.297 15.9208 10.0673 16.1192C9.83764 16.3175 9.48479 16.2986 9.27921 16.0771C8.48412 15.22 8 14.087 8 12.8462ZM16 13.3846C13.8422 13.3846 12.093 15.0722 12.093 17.1538C12.093 19.2355 13.8422 20.9231 16 20.9231H18.9767C21.1345 20.9231 22.8837 19.2355 22.8837 17.1538C22.8837 16.1881 22.508 15.3084 21.889 14.6412C21.6834 14.4196 21.703 14.0792 21.9327 13.8808C22.1624 13.6825 22.5152 13.7014 22.7208 13.9229C23.5159 14.78 24 15.913 24 17.1538C24 19.8303 21.751 22 18.9767 22H16C13.2257 22 10.9767 19.8303 10.9767 17.1538C10.9767 14.4774 13.2257 12.3077 16 12.3077H17.4884C17.7966 12.3077 18.0465 12.5488 18.0465 12.8462C18.0465 13.1435 17.7966 13.3846 17.4884 13.3846H16Z" fill="#6C6C6C"/>
</svg>
