<svg width="30" height="30" viewBox="0 0 30 30" fill="none" xmlns="http://www.w3.org/2000/svg">
<circle cx="15" cy="15" r="15" fill="#DBDBDB"/>
<path d="M11.8483 10.1513C11.3797 9.68265 10.6199 9.68265 10.1513 10.1513C9.68265 10.6199 9.68265 11.3797 10.1513 11.8483L13.3028 14.9998L10.1513 18.1513C9.68268 18.6199 9.68268 19.3797 10.1513 19.8483C10.6199 20.317 11.3797 20.317 11.8484 19.8483L14.9998 16.6969L18.1512 19.8483C18.6199 20.3169 19.3797 20.3169 19.8483 19.8483C20.3169 19.3797 20.3169 18.6199 19.8483 18.1512L16.6969 14.9998L19.8483 11.8484C20.317 11.3797 20.317 10.6199 19.8483 10.1513C19.3797 9.68268 18.6199 9.68268 18.1513 10.1513L14.9998 13.3028L11.8483 10.1513Z" fill="#F8F8F8"/>
</svg>
