<svg width="34" height="34" viewBox="0 0 34 34" fill="none" xmlns="http://www.w3.org/2000/svg">
<path fill-rule="evenodd" clip-rule="evenodd" d="M7.78391 25.8249C7.35097 25.392 7.35097 24.69 7.78391 24.2571L25.0625 6.97852C25.4954 6.54558 26.1974 6.54558 26.6303 6.97852C27.0632 7.41146 27.0632 8.1134 26.6303 8.54634L9.35172 25.8249C8.91878 26.2579 8.21685 26.2579 7.78391 25.8249Z" fill="#1A1B21"/>
<path fill-rule="evenodd" clip-rule="evenodd" d="M26.6296 25.6302C26.1967 26.0631 25.4947 26.0631 25.0618 25.6302L7.78321 8.35157C7.35027 7.91863 7.35027 7.21669 7.78321 6.78376C8.21615 6.35082 8.91808 6.35082 9.35102 6.78376L26.6296 24.0623C27.0625 24.4953 27.0625 25.1972 26.6296 25.6302Z" fill="#1A1B21"/>
</svg>
