<svg width="160" height="26" viewBox="0 0 160 26" fill="none" xmlns="http://www.w3.org/2000/svg">
<path d="M31.4365 1.26147V20.8373H34.8447V3.90914H40.9287V20.8373H44.3369V1.26147H31.4365Z" fill="black"/>
<path d="M50.2411 6.66948H47.1427V24.9215H50.4946V19.1755C51.3396 20.443 52.5789 21.119 54.0154 21.119C57.2827 21.119 59.5361 18.4995 59.5361 13.7393C59.5361 9.00731 57.3391 6.38781 54.1844 6.38781C52.6071 6.38781 51.3114 7.12014 50.4101 8.50031L50.2411 6.66948ZM53.1704 18.4713C51.3959 18.4713 50.4946 17.0348 50.4946 13.7675C50.4946 10.472 51.4522 9.03547 53.3394 9.03547C55.1702 9.03547 56.0716 10.472 56.0716 13.7393C56.0716 17.0348 55.1139 18.4713 53.1704 18.4713Z" fill="black"/>
<path d="M72.2293 11.1761C72.2293 7.73981 70.483 6.44414 66.934 6.44414C64.7088 6.44414 62.9625 7.14831 61.9485 7.73981V10.5283C62.8498 9.85231 64.8215 9.11998 66.5397 9.11998C68.1452 9.11998 68.8775 9.68331 68.8775 11.2043V11.993H68.3423C63.216 11.993 60.9345 13.683 60.9345 16.556C60.9345 19.429 62.6808 21.0345 65.2722 21.0345C67.2438 21.0345 68.0888 20.3866 68.7367 19.7106H68.8775C68.9057 20.0768 69.0183 20.5556 69.131 20.8373H72.3983C72.2857 19.6825 72.2293 18.5276 72.2293 17.3728V11.1761ZM68.8775 17.4573C68.455 18.077 67.6663 18.584 66.4833 18.584C65.075 18.584 64.3708 17.7953 64.3708 16.5841C64.3708 14.9786 65.5257 14.3871 68.3987 14.3871H68.8775V17.4573Z" fill="black"/>
<path d="M83.2335 20.8373H87.036L81.6562 13.3168L86.3881 6.66948H83.0081L78.2761 13.3168V6.66948H74.9243V20.8373H78.2761V13.9928L83.2335 20.8373Z" fill="black"/>
<path d="M98.2734 9.31714V6.66948H87.0349V9.31714H90.9782V20.8373H94.33V9.31714H98.2734Z" fill="black"/>
<path d="M100.258 6.66948V20.8373H103.243L108.37 12.0775V20.8373H111.609V6.66948H108.623L103.497 15.4293V6.66948H100.258Z" fill="black"/>
<path d="M122.733 20.8373H126.535L121.156 13.3168L125.887 6.66948H122.507L117.775 13.3168V6.66948H114.424V20.8373H117.775V13.9928L122.733 20.8373Z" fill="black"/>
<path d="M129.484 25.2031C132.611 25.2031 133.766 22.978 134.723 20.0768L139.146 6.66948H135.906L132.78 17.3165L129.653 6.66948H126.133L131.005 21.457C130.639 22.133 130.104 22.5555 129.175 22.5555C128.555 22.5555 128.02 22.3583 127.654 21.9921V24.7243C127.654 24.7243 128.161 25.2031 129.484 25.2031Z" fill="black"/>
<path d="M152.501 20.8373H155.768L155.712 6.66948H151.121L148.05 16.1053L145.29 6.66948H140.417V20.8373H143.262V10.2466L146.332 20.8373H149.064L152.501 10.2466V20.8373Z" fill="black"/>
<path fill-rule="evenodd" clip-rule="evenodd" d="M13 26C20.1797 26 26 20.1797 26 13C26 5.8203 20.1797 0 13 0C5.8203 0 0 5.8203 0 13C0 20.1797 5.8203 26 13 26ZM13.4723 7.55515H14.6334V20.4513H17.232V5.53711H13.4585C9.65739 5.53711 7.65317 7.49986 7.65317 10.3749C7.65317 12.6694 8.74513 14.024 10.6941 15.42L7.30762 20.4651H10.1273L13.9008 14.8256L12.5877 13.941C10.9981 12.8629 10.2241 12.0197 10.2241 10.2228C10.2241 8.63329 11.3437 7.55515 13.4723 7.55515Z" fill="black"/>
</svg>
