<svg width="39" height="20" viewBox="0 0 39 20" fill="none" xmlns="http://www.w3.org/2000/svg">
<path d="M38.4059 4.09124C38.5998 3.89416 38.5975 3.57782 38.4006 3.38467L35.1929 0.237021C34.9961 0.0438654 34.6793 0.0470426 34.4853 0.244117C34.2914 0.441191 34.2937 0.757535 34.4906 0.95069L37.3419 3.7486L34.5325 6.60328C34.3386 6.80035 34.3409 7.11669 34.5378 7.30985C34.7346 7.503 35.0514 7.49983 35.2454 7.30275L38.4059 4.09124ZM1.55957 19.5152C6.11111 11.4974 13.089 8.78988 18.3809 9.02804C21.0405 9.14773 23.2298 10.0072 24.4969 11.255C25.126 11.8744 25.5222 12.5824 25.656 13.3446C25.7893 14.1048 25.6685 14.9578 25.1985 15.8825L26.0906 16.333C26.6454 15.2416 26.8172 14.1701 26.6417 13.1697C26.4665 12.1714 25.9524 11.2829 25.2005 10.5425C23.7057 9.07059 21.2503 8.15675 18.4286 8.02976C12.7577 7.77454 5.42601 10.6802 0.689327 19.0241L1.55957 19.5152ZM25.1985 15.8825C24.7394 16.7859 24.1345 17.2471 23.5081 17.4248C22.8702 17.6057 22.1407 17.5119 21.4139 17.1718C19.9465 16.4851 18.6365 14.8599 18.3982 13.0082C18.1668 11.2105 18.9373 9.0982 21.831 7.37686C24.754 5.63812 29.8173 4.32372 38.0532 4.24112L38.0458 3.24188C29.7376 3.3252 24.466 4.6476 21.3206 6.5187C18.1459 8.40721 17.1147 10.8778 17.4056 13.1382C17.6897 15.3447 19.2263 17.2528 20.9873 18.0769C21.8747 18.4922 22.8548 18.6482 23.7792 18.386C24.715 18.1205 25.525 17.4457 26.0906 16.333L25.1985 15.8825Z" fill="#787878"/>
</svg>
