<svg width="182" height="428" viewBox="0 0 182 428" fill="none" xmlns="http://www.w3.org/2000/svg">
<circle cx="125.188" cy="267" r="27" fill="#E9F4FE"/>
<path d="M132.466 271.635C132.466 272.597 132.269 273.494 131.876 274.325C131.482 275.135 130.924 275.835 130.202 276.425C129.48 277.016 128.594 277.486 127.545 277.836C126.517 278.164 125.346 278.328 124.034 278.328C122.503 278.328 121.201 278.109 120.129 277.672C119.058 277.213 118.172 276.666 117.472 276.031V273.243C117.8 273.505 118.172 273.767 118.587 274.03C119.003 274.292 119.462 274.544 119.965 274.785C120.469 275.003 121.037 275.189 121.672 275.342C122.306 275.474 123.006 275.539 123.771 275.539C125.412 275.539 126.593 275.189 127.315 274.489C128.059 273.767 128.43 272.761 128.43 271.471C128.43 270.18 128.059 269.207 127.315 268.551C126.571 267.873 125.412 267.534 123.837 267.534H120.851V264.81H123.935C125.051 264.81 125.959 264.504 126.659 263.892C127.359 263.279 127.709 262.382 127.709 261.201C127.709 260.086 127.391 259.222 126.757 258.609C126.123 257.997 125.149 257.691 123.837 257.691C122.656 257.691 121.573 257.887 120.589 258.281C119.626 258.675 118.719 259.2 117.866 259.856V257.166C118.653 256.509 119.583 255.973 120.654 255.558C121.748 255.12 123.039 254.902 124.526 254.902C125.642 254.902 126.637 255.055 127.512 255.361C128.387 255.667 129.119 256.094 129.71 256.641C130.322 257.166 130.782 257.8 131.088 258.544C131.416 259.265 131.58 260.064 131.58 260.939C131.58 262.339 131.186 263.465 130.399 264.318C129.633 265.171 128.66 265.718 127.479 265.959C128.179 266.068 128.824 266.276 129.415 266.582C130.027 266.888 130.552 267.282 130.99 267.763C131.449 268.223 131.81 268.78 132.072 269.437C132.335 270.093 132.466 270.826 132.466 271.635Z" fill="#1A1B21"/>
<circle cx="125.188" cy="153" r="27" fill="#E9F4FE"/>
<path d="M132.648 164.202H117.49V161.61C119.349 160.035 120.957 158.646 122.313 157.443C123.691 156.218 124.817 155.092 125.692 154.064C126.589 153.036 127.256 152.062 127.694 151.144C128.131 150.203 128.35 149.23 128.35 148.224C128.35 146.889 127.989 145.839 127.267 145.074C126.545 144.286 125.463 143.893 124.019 143.893C122.772 143.893 121.667 144.155 120.705 144.68C119.743 145.205 118.879 145.85 118.113 146.616V143.597C118.397 143.291 118.747 142.985 119.163 142.679C119.579 142.372 120.06 142.11 120.607 141.891C121.175 141.651 121.81 141.465 122.51 141.333C123.21 141.18 123.997 141.104 124.872 141.104C126.075 141.104 127.147 141.268 128.087 141.596C129.028 141.924 129.815 142.383 130.45 142.974C131.106 143.565 131.598 144.275 131.926 145.107C132.276 145.938 132.451 146.857 132.451 147.863C132.451 149.175 132.21 150.4 131.729 151.537C131.248 152.653 130.548 153.747 129.629 154.818C128.733 155.89 127.639 156.973 126.348 158.067C125.08 159.138 123.658 160.265 122.083 161.446H132.648V164.202Z" fill="#1A1B21"/>
<circle cx="125.188" cy="39" r="27" fill="#E9F4FE"/>
<path d="M128.097 50H124.094V31.4951L119.337 36.0557V32.381L124.751 27.197H128.097V50Z" fill="#1A1B21"/>
<path d="M103.427 268.706C19.0179 304.251 59.5106 371.366 69.9349 416.229C70.0406 416.743 67.9418 418.326 67.8085 418.071C64.7796 412.582 62.7973 406.14 60.793 400.279C37.653 332.311 45.6301 291.248 104.279 267.692C104.534 267.559 103.746 268.539 103.427 268.706Z" fill="#275CF6"/>
<path d="M74.6724 384.988C69.6197 396.322 68.6219 409.196 71.5868 422.033C71.7982 423.06 68.3223 425.119 68.2861 424.895C59.3047 399.758 44.6 389.964 41.6882 385.633C41.2575 384.964 43.9864 382.563 44.7001 382.841C49.8023 385.297 64.5728 400.664 71.584 421.872C70.4736 422.858 69.3937 423.747 68.2832 424.734C65.5681 411.441 67.0434 398.236 72.4764 386.541C72.7233 385.924 74.9527 384.435 74.6724 384.988Z" fill="#275CF6"/>
<path d="M141.429 233.884C180.017 201.783 171.295 175.625 150.05 171.684C138.319 169.509 133.297 174.001 127.252 177.181C126.546 177.551 123.418 175.473 123.651 175.231C142.534 157.573 207.877 182.694 144.069 235.259C143.555 235.72 141.336 233.957 141.429 233.884Z" fill="#275CF6"/>
<path d="M169.036 219.191C165.695 224.848 151.555 233.283 144.782 234.819C144.431 234.881 141.666 234.115 141.925 233.804C144.541 230.592 145.923 221.084 146.512 217.047C146.542 216.946 147.642 217.161 147.617 217.431C147.918 222.95 148.442 230.143 144.848 234.783C143.896 234.445 142.943 234.107 141.991 233.768C151.376 231.457 165.932 218.823 166.622 218.363C166.968 218.133 169.163 218.951 169.036 219.191Z" fill="#275CF6"/>
<path d="M107.134 33.3828C104.633 23.7249 69.2924 -7.55384 33.7912 24.3997C-15.1252 68.4396 59.4979 129.584 75.8566 137.242C77.3413 137.909 79.565 133.817 79.3941 133.673C60.2838 124.63 -2.64525 67.0323 28.4391 31.645C63.4903 -8.23613 102.129 32.379 106.748 33.7011C106.822 33.8218 107.11 33.48 107.134 33.3828Z" fill="#275CF6"/>
<path d="M40.03 130.535C51.3729 141.919 68.1168 139.896 79.253 137.238C80.0039 137.111 83.3065 134.514 82.5459 133.405C68.6809 115.856 71.5006 113.554 69.1546 101.979C69.0776 101.446 66.8378 103.476 66.7438 103.865C63.1971 115.559 69.9043 126.542 78.767 137.121C79.897 135.851 80.9299 134.557 82.0599 133.287C59.0868 138.948 56.2026 133.004 42.3872 128.019C41.7805 127.975 39.5173 130.103 40.03 130.535Z" fill="#275CF6"/>
</svg>
