<svg width="28" height="31" viewBox="0 0 28 31" fill="none" xmlns="http://www.w3.org/2000/svg">
<path fill-rule="evenodd" clip-rule="evenodd" d="M24.1823 0.692383C24.8451 0.692383 25.3823 1.22964 25.3823 1.89238V8.68061C25.3823 9.34335 24.8451 9.88061 24.1823 9.88061H17.3941C16.7314 9.88061 16.1941 9.34335 16.1941 8.68061C16.1941 8.01787 16.7314 7.48061 17.3941 7.48061H21.1707C16.6181 3.89168 9.99793 4.1974 5.79756 8.39777C1.26748 12.9278 1.26748 20.2726 5.79756 24.8026C10.3276 29.3327 17.6724 29.3327 22.2024 24.8026C24.8364 22.1687 25.9396 18.5844 25.5096 15.1501C25.4273 14.4925 25.8936 13.8927 26.5512 13.8103C27.2088 13.728 27.8087 14.1943 27.891 14.852C28.4091 18.9896 27.0794 23.3198 23.8995 26.4997C18.4322 31.967 9.56784 31.967 4.10051 26.4997C-1.36684 21.0324 -1.36683 12.168 4.10051 6.70071C9.27173 1.52948 17.4819 1.24941 22.9823 5.86048V1.89238C22.9823 1.22964 23.5196 0.692383 24.1823 0.692383Z" fill="#1A1B21"/>
</svg>
