<svg width="27" height="29" viewBox="0 0 27 29" fill="none" xmlns="http://www.w3.org/2000/svg">
<g clip-path="url(#clip0_197_14332)">
<path fill-rule="evenodd" clip-rule="evenodd" d="M13.6128 3.5C13.8196 3.5 14.0161 3.58974 14.1507 3.74566L16.9843 7.02857C17.2389 7.32356 17.2045 7.76767 16.9075 8.02052C16.6104 8.27336 16.1632 8.2392 15.9086 7.94421L14.3212 6.10517L14.3212 16.3972C14.3212 16.7857 14.0041 17.1006 13.6128 17.1006C13.2216 17.1006 12.9044 16.7857 12.9044 16.3972L12.9044 6.10517L11.3171 7.94421C11.0624 8.2392 10.6152 8.27336 10.3182 8.02052C10.0211 7.76767 9.98672 7.32356 10.2413 7.02857L13.075 3.74566C13.2096 3.58974 13.406 3.5 13.6128 3.5ZM8.88617 10.0677C9.27741 10.0655 9.59633 10.3787 9.59851 10.7672C9.60069 11.1557 9.28529 11.4724 8.89406 11.4746C7.8612 11.4803 7.1291 11.507 6.57347 11.6083C6.0381 11.706 5.72822 11.8628 5.49826 12.0911C5.23685 12.3507 5.06641 12.7152 4.97323 13.4035C4.87731 14.112 4.8758 15.051 4.8758 16.3974V17.3353C4.8758 18.6817 4.87731 19.6207 4.97323 20.3292C5.06641 21.0175 5.23685 21.382 5.49826 21.6416C5.75968 21.9012 6.1267 22.0704 6.81978 22.163C7.53325 22.2582 8.47884 22.2597 9.83465 22.2597H17.391C18.7468 22.2597 19.6924 22.2582 20.4059 22.163C21.099 22.0704 21.466 21.9012 21.7274 21.6416C21.9888 21.382 22.1593 21.0175 22.2524 20.3292C22.3484 19.6207 22.3499 18.6817 22.3499 17.3353V16.3974C22.3499 15.051 22.3484 14.112 22.2524 13.4035C22.1593 12.7152 21.9888 12.3507 21.7274 12.0911C21.4974 11.8628 21.1876 11.706 20.6522 11.6083C20.0966 11.507 19.3645 11.4803 18.3316 11.4746C17.9404 11.4724 17.625 11.1557 17.6272 10.7672C17.6293 10.3787 17.9483 10.0655 18.3395 10.0677C19.361 10.0733 20.2124 10.0976 20.9082 10.2245C21.6241 10.3551 22.2334 10.6039 22.7292 11.0963C23.2978 11.6608 23.5423 12.3717 23.6566 13.216C23.7667 14.0292 23.7667 15.0631 23.7667 16.3459V17.3868C23.7667 18.6696 23.7667 19.7035 23.6566 20.5167C23.5423 21.361 23.2978 22.0719 22.7292 22.6364C22.1607 23.201 21.4449 23.4439 20.5947 23.5574C19.7758 23.6667 18.7346 23.6667 17.4428 23.6667H9.78283C8.49108 23.6667 7.44989 23.6667 6.631 23.5574C5.78081 23.4439 5.06496 23.201 4.49642 22.6364C3.92789 22.0719 3.68335 21.361 3.56905 20.5167C3.45895 19.7035 3.45897 18.6696 3.45898 17.3868V16.3459C3.45897 15.0631 3.45895 14.0292 3.56905 13.216C3.68335 12.3717 3.92789 11.6608 4.49642 11.0963C4.99224 10.6039 5.60154 10.3551 6.31751 10.2245C7.01322 10.0976 7.86462 10.0733 8.88617 10.0677Z" fill="#1A1B21"/>
</g>
<defs>
<clipPath id="clip0_197_14332">
<path d="M0.691406 5.75C0.691406 2.98858 2.92998 0.75 5.69141 0.75H21.5376C24.299 0.75 26.5376 2.98858 26.5376 5.75V23.25C26.5376 26.0114 24.299 28.25 21.5376 28.25H5.69141C2.92999 28.25 0.691406 26.0114 0.691406 23.25V5.75Z" fill="white"/>
</clipPath>
</defs>
</svg>
