<svg width="213" height="245" viewBox="0 0 213 245" fill="none" xmlns="http://www.w3.org/2000/svg">
<path d="M125.825 110.225L126.776 110.427L165.794 28.5065L131.023 112.318L131.81 112.89L200.775 53.9215L134.921 116.345L135.407 117.187L222.394 91.3673L136.844 121.609L136.946 122.576L226.914 134.369L136.46 127.2L136.159 128.124L213.552 175.492L133.834 132.151L133.184 132.874L184.62 207.624L129.422 135.606L128.534 136.002L145.119 225.211L123.986 136.969H123.014L101.881 225.211L118.466 136.002L117.578 135.606L62.38 207.625L113.816 132.874L113.166 132.151L33.4476 175.492L110.841 128.124L110.54 127.2L20.0862 134.369L110.054 122.576L110.156 121.609L24.6058 91.3673L111.593 117.187L112.079 116.345L46.2252 53.9215L115.19 112.89L115.977 112.318L81.2061 28.5064L120.224 110.427L121.175 110.225L123.5 19.5164L125.825 110.225Z" fill="#C9DEFC" stroke="#C9DEFC"/>
</svg>
