<svg width="265" height="155" viewBox="0 0 265 155" fill="none" xmlns="http://www.w3.org/2000/svg">
<path d="M0 25C0 11.1929 11.1929 0 25 0H240C253.807 0 265 11.1929 265 25V130C265 143.807 253.807 155 240 155H25C11.1929 155 0 143.807 0 130V25Z" fill="white"/>
<g clip-path="url(#clip0_164_14554)">
<path d="M57.1187 75.3449C57.3166 75.306 57.3562 75.0726 57.554 75.0337C57.9498 74.9559 58.3059 74.9948 58.583 75.3449C59.1766 75.9673 59.5327 76.7453 60.0472 77.4066C60.7595 78.3402 61.6301 79.1571 62.5008 79.974C62.9361 80.4407 63.411 80.8686 64.0046 81.1409C64.9939 81.88 66.1416 82.269 67.2892 82.6191C70.1781 83.4749 73.0274 83.7861 75.8767 82.5802C76.2725 82.4246 76.7078 82.3468 77.1035 82.269C77.6576 82.1523 77.895 82.4246 77.7763 82.9692C77.6971 83.3582 77.4993 83.7083 77.2618 84.0195C75.758 86.0034 75.2436 88.2596 75.481 90.7103C75.758 93.1999 76.3912 95.6117 77.341 97.9846C77.9346 99.5406 78.6865 101.058 79.7154 102.419C79.9133 102.691 80.032 103.003 79.9924 103.314C79.9528 103.625 79.7945 103.858 79.5175 103.936C79.2405 104.053 78.9635 104.014 78.7656 103.781C78.172 103.119 77.4993 102.536 77.064 101.758C76.7474 101.174 76.3912 100.63 75.9559 100.124C74.0959 97.8679 71.9589 96.0007 68.9909 95.1838C67.2892 94.717 65.6271 94.717 63.8859 94.9893C63.3714 95.0671 62.8965 95.2616 62.4216 95.4172C61.2344 95.5339 60.3242 96.1952 59.3349 96.7787C59.2557 96.8176 59.1766 96.9343 59.0974 96.9732C58.7808 97.1677 58.4642 97.1288 58.1872 96.8954C57.9102 96.662 57.7915 96.3897 57.9498 96.0396C58.2268 95.4561 58.5434 94.9115 58.8995 94.3669C60.6804 91.7606 61.7489 88.9209 61.5114 85.7311C61.3531 83.9028 60.6804 82.269 59.9285 80.6353C59.2953 79.196 58.2664 78.029 57.5145 76.7064C57.3562 76.4341 57.2374 76.1229 57 75.9284C57.1187 75.695 57.1187 75.5394 57.1187 75.3449Z" fill="#1A1B21"/>
<path d="M203.455 107.006C197.416 107.006 191.339 106.967 185.3 106.967H150.823C150.395 106.967 150.317 106.849 150.317 106.458V45.2526C150.317 41.4958 148.797 38.4433 145.875 36.0953C144.083 34.6865 142.058 33.9429 139.798 33.7473C139.525 33.7473 139.37 33.669 139.292 33.3951C139.097 32.7689 138.707 32.221 138.279 31.7514C137.422 30.8513 136.487 30.1078 135.435 29.4425C133.097 27.9554 130.565 26.8597 127.799 26.3118C127.059 26.1553 126.319 26.077 125.462 25.9596C125.657 25.7639 125.812 25.6465 125.968 25.49C127.137 24.3943 128.189 23.2202 128.929 21.8114C129.552 20.6374 130.098 19.4242 129.981 18.0154C129.864 16.5283 128.306 15.0412 126.825 15.0021C125.228 14.963 123.826 15.4717 122.423 16.1761C120.631 17.0762 119.073 18.4068 117.359 19.4634C116.502 19.9721 115.722 20.5983 114.826 21.0287C113.969 21.4592 113.502 21.3809 112.801 20.7157C112.177 20.0895 111.476 19.5808 110.619 19.5025C109.645 19.4242 108.632 19.6199 107.697 20.0113C106.489 20.52 105.477 21.3809 104.464 22.2028C103.412 23.1028 102.243 23.6898 100.841 23.7681C99.9056 23.8072 98.9706 24.0029 98.0746 24.316C97.9578 24.5899 97.6851 24.6682 97.4903 24.8639C95.7372 26.3901 94.7243 28.3859 94.023 30.5383C93.2049 33.1211 92.8933 35.8214 92.6985 38.5216C92.4258 42.3176 92.7374 46.0353 93.4776 49.7139C93.5166 49.9096 93.5166 50.0661 93.7893 50.0661C95.1918 50.027 96.3605 50.6531 97.4903 51.3967C99.2044 52.5315 100.568 53.9795 101.698 55.7014C101.854 55.6231 101.97 55.7405 102.087 55.8188C102.516 56.0536 102.983 56.2493 103.451 56.3275C104.619 56.5232 105.554 55.8579 105.71 54.6448C105.905 53.3142 105.554 52.0619 105.126 50.8488C104.736 49.753 104.23 48.7355 103.49 47.7181H104.074C105.593 47.7181 106.528 46.7789 106.606 45.2526C106.684 43.3351 105.983 41.6523 105.087 40.0478C104.892 39.6956 104.658 39.3434 104.308 38.9521C104.619 38.9912 104.814 39.0695 105.009 39.1869C107.424 40.5174 109.957 41.5349 112.684 42.0436C114.865 42.435 117.008 42.6307 119.151 41.9262C119.852 41.6914 120.514 41.3784 120.982 40.7522C121.644 39.8521 121.527 38.9521 121.098 38.0129C120.787 37.3476 120.28 36.7606 119.813 36.1736C122.072 36.6823 124.332 37.3084 126.591 37.7389C126.553 37.6606 126.514 37.5824 126.475 37.5041C126.358 37.2693 126.436 37.0345 126.669 36.878C126.942 36.7214 127.176 36.7997 127.332 37.0345C127.604 37.3867 127.799 37.6998 128.033 38.052C130.02 38.3651 132.007 38.5607 133.993 38.2868C135.552 38.0911 137.032 37.6606 138.279 36.6432C138.629 36.3692 138.941 36.0562 139.136 35.6257C139.253 35.3909 139.37 35.3126 139.642 35.3517C143.46 35.7431 146.226 37.6215 147.94 41.0653C148.602 42.3959 148.875 43.8438 148.875 45.3309V106.693C148.875 107.045 148.797 107.162 148.408 107.162C145.798 107.162 143.148 107.162 140.538 107.202C140.266 107.202 140.11 107.084 139.954 106.889C137.5 103.445 135.084 100.04 132.669 96.5963C132.474 96.3224 132.24 96.1658 131.968 96.0093C131.617 95.8136 131.266 96.0093 131.227 96.4398C131.111 97.5355 130.877 98.5921 130.877 99.727C130.916 101.879 130.838 104.071 130.838 106.262C130.838 110.88 130.877 115.537 130.916 120.155V120.468C130.721 120.468 130.643 120.311 130.565 120.194C128.656 117.924 126.669 115.772 124.488 113.737C121.917 111.35 118.995 109.432 115.995 107.593C114.125 106.458 112.138 105.48 110.19 104.501C110.035 104.423 109.84 104.384 109.684 104.306C109.723 105.167 109.762 105.988 109.801 106.81C109.879 108.023 109.801 109.276 109.45 110.45C109.45 110.528 109.489 110.763 109.255 110.724C109.178 110.919 109.139 111.076 109.061 111.232C108.359 113.072 107.035 113.894 105.087 113.659C103.646 113.502 102.321 112.993 101.035 112.367C97.5682 110.685 94.6853 108.219 92.0362 105.48C91.6466 105.049 91.2571 104.58 90.8675 104.11C90.6727 104.267 90.6337 104.032 90.5558 103.953C90.2442 103.562 89.9325 103.21 89.504 102.975C88.4132 103.562 87.3224 104.11 86.1926 104.658C81.6735 106.889 77.3492 109.432 73.2977 112.446C70.7265 114.402 68.3501 116.555 66.0905 118.864C65.8178 119.177 65.701 119.137 65.4672 118.824C64.2206 117.063 63.5973 115.146 63.5973 112.993V95.931C63.5973 95.7745 63.5583 95.5788 63.5583 95.4223C63.0519 95.5006 62.5844 95.7354 62.1169 95.8528C62.1169 101.723 62.1169 107.593 62 113.228C62 113.854 62.0779 114.481 62.1948 115.068C63.3246 120.546 67.9215 124.303 73.4925 124.303H130.409C130.838 124.303 130.955 124.381 130.955 124.812V136.396C130.955 136.669 130.916 137.022 131.15 137.178C131.656 137.53 132.085 138 132.825 138C138.123 137.961 143.421 137.961 148.719 137.961H203.455C203.883 137.961 204 137.843 204 137.413V107.554C204 107.006 204 107.006 203.455 107.006ZM130.994 122.894C130.955 123.051 130.721 122.973 130.604 122.973H73.3756C70.9992 122.973 68.8955 122.151 67.0645 120.625C66.8307 120.429 66.8307 120.311 67.0645 120.077C70.3759 116.946 74.0379 114.207 77.8557 111.702C81.1671 109.471 84.6733 107.593 88.2573 105.832C88.608 105.675 88.9586 105.323 89.2702 105.362C89.6209 105.401 89.7377 105.949 89.9715 106.223C93.4387 110.176 97.3734 113.463 102.438 115.224C103.879 115.733 105.321 115.968 106.801 115.694C108.788 115.302 110.035 114.05 110.697 112.172C111.203 110.724 111.281 109.197 111.009 107.671C111.009 107.554 110.97 107.476 110.97 107.358C110.97 107.358 110.97 107.319 111.009 107.241C111.437 107.436 111.827 107.632 112.177 107.789C116.034 109.98 119.852 112.211 123.358 114.95C125.501 116.672 127.371 118.668 129.28 120.625C129.747 121.094 130.254 121.564 130.721 122.033C130.799 122.151 130.877 122.229 130.955 122.307C131.072 122.503 131.072 122.699 130.994 122.894Z" fill="#275CF6"/>
<path d="M63.4635 81.3441C62.8858 81.0316 62.4236 80.641 62 80.1723C62 79.977 62 79.7817 62 79.5474C62 68.1815 62 56.8546 62 45.4887C62 39.6691 65.6972 35.0993 71.32 34.0056C71.3585 34.0056 71.3585 33.9666 71.4355 33.9666C71.2814 33.6541 71.0119 33.3807 70.9733 32.9901C70.8963 32.3652 71.0889 32.0527 71.6666 31.8965C72.3983 31.7012 73.0915 31.9356 73.8233 32.0137C73.9773 32.0137 74.1314 32.0918 74.3239 32.0527C74.0543 31.6621 73.7462 31.3106 73.5152 30.92C72.8604 29.9045 72.3213 28.8109 72.1287 27.6001C72.0517 27.0923 72.1287 26.6236 72.5524 26.2331C72.8219 25.9597 73.13 25.8815 73.5152 26.0378C73.9388 26.194 74.2854 26.5065 74.5935 26.8189C75.7489 27.9516 76.6346 29.2796 77.4819 30.6466C77.6745 30.92 77.867 31.2325 78.0981 31.584C78.1751 30.9982 78.0596 30.4904 78.0981 30.0217C78.2522 27.7173 79.0224 25.6472 80.4859 23.8896C81.1406 23.1084 82.0264 22.7178 82.9892 22.4054C84.7992 21.8586 86.6093 21.8976 88.4194 22.3273C90.268 22.796 91.924 23.7334 93.2719 25.1394C91.9625 26.155 90.9227 27.4048 90.1524 28.9281C88.4579 32.248 87.6106 35.7632 87.264 39.4738C87.0329 41.9735 87.11 44.4341 87.3025 46.9339C87.4181 48.379 87.7262 49.7851 88.1113 51.1912C88.1498 51.3084 88.1498 51.5427 88.3809 51.4646C88.843 51.3084 89.3437 51.3084 89.7673 50.9959C89.9984 50.8397 90.2295 50.7616 90.4991 50.7225C91.4233 50.6053 92.3476 50.7225 93.1949 51.1521C94.7354 51.9724 95.9293 53.1441 97.0076 54.4721C98.7792 56.6593 99.819 59.1981 100.397 61.9712C101.09 65.0959 101.244 68.2596 100.551 71.4233C100.474 71.7358 100.32 72.0092 99.9731 71.931C99.6264 71.8529 99.5494 71.5795 99.5879 71.2671C99.665 70.7202 99.742 70.1344 99.742 69.5485C99.665 67.166 99.4724 64.8225 98.9717 62.518C98.24 59.3543 96.9691 56.5031 94.6199 54.1987C93.8881 53.4956 93.0794 52.8316 92.1551 52.4411C91.4233 52.0505 90.6146 51.8552 89.9214 52.2458C88.2653 53.1832 86.4938 53.8081 84.6837 54.2377C84.3756 54.3158 84.2601 54.433 84.1445 54.7455C83.5668 56.5812 83.6054 58.4951 83.7979 60.3699C84.0675 62.8696 84.7992 65.2521 85.8006 67.5565C86.8404 69.9391 88.1498 72.1263 90.0754 73.884C90.9612 74.7042 91.9625 75.3682 93.1564 75.5244C93.426 75.5635 93.426 75.6806 93.426 75.915C93.426 76.8914 93.3104 77.8288 93.2334 78.8053C93.0794 80.5238 92.9638 82.2814 92.6942 84C92.1936 83.297 91.8085 82.5158 91.5389 81.6956C91.0767 80.3676 90.3065 79.1959 89.5748 77.9851C88.9971 77.0477 88.1498 76.3056 87.4566 75.4463C86.6093 74.4698 85.4925 73.8058 84.4911 73.0637C83.0662 72.0092 81.5642 71.0327 80.2548 69.8219C78.7913 68.4549 77.867 66.8144 77.4049 64.8615C77.0198 63.182 76.9427 61.4635 76.7502 59.7449C76.4421 57.0109 75.4408 54.5893 73.7847 52.402C72.1287 50.1757 71.1659 47.676 71.1274 44.8638C71.0889 42.9109 71.551 41.0361 72.2828 39.2394C72.7834 37.9505 73.4381 36.7788 74.5165 35.9195C74.555 35.9195 74.555 35.8414 74.555 35.7632C74.1314 35.6851 73.7462 35.4117 73.3226 35.4117C72.6294 35.4117 71.8976 35.4898 71.2044 35.6461C66.583 36.7006 63.4635 40.6846 63.4635 45.4497C63.4635 57.2452 63.4635 69.0798 63.4635 80.8754C63.4635 80.9925 63.4635 81.1488 63.4635 81.3441Z" fill="#275CF6"/>
<path d="M103.998 65.0622C103.959 67.2853 103.725 69.5084 102.831 71.5756C102.326 72.7066 101.665 73.7597 100.42 74.2277C99.5261 74.5787 98.593 74.8518 97.6598 75.0468C96.9599 75.2028 96.26 75.2418 95.5213 75.2808C95.288 75.2808 95.2491 75.3588 95.2491 75.5928C95.3658 78.908 95.0158 82.1452 94.5104 85.4214C93.8105 90.1407 92.7607 94.782 91.8275 99.4232C91.5164 100.944 91.1276 102.426 90.7388 103.948C90.5444 104.104 90.5055 103.87 90.4277 103.792C90.1167 103.44 89.8056 103.05 89.3779 102.816C89.4168 102.699 89.4557 102.621 89.4557 102.504C90.1944 98.6432 91.0498 94.821 91.8275 90.9987C92.4107 88.7366 92.8384 86.3575 93.1106 83.9783C93.3828 82.2622 93.5383 80.5461 93.6549 78.791C93.7327 77.8159 93.8494 76.8799 93.8494 75.9048C93.8494 75.7098 93.8494 75.5538 93.5772 75.5148C92.333 75.3588 91.322 74.6958 90.4666 73.8767C88.5614 72.1216 87.2394 69.8985 86.1507 67.5583C85.1398 65.2572 84.401 62.878 84.1288 60.3819C83.9344 58.5098 83.8955 56.5987 84.4788 54.7655C84.5565 54.4925 84.7121 54.3365 85.0231 54.2585C86.8895 53.8685 88.6392 53.2055 90.3111 52.2694C91.011 51.8794 91.8275 52.0744 92.5274 52.3864C93.4605 52.7764 94.2771 53.4395 95.0158 54.1415C97.3876 56.4426 98.6707 59.2898 99.4095 62.449C99.9538 64.7502 100.148 67.1293 100.187 69.4694C100.187 70.0545 100.109 70.6005 100.032 71.1855C99.9927 71.4976 100.07 71.8096 100.42 71.8486C100.77 71.9266 100.926 71.6536 101.004 71.3416C101.704 68.1824 101.509 65.0622 100.848 61.903C100.265 59.1338 99.2151 56.5987 97.4265 54.4145C96.3378 53.0884 95.1325 51.9184 93.5772 51.0993C92.7218 50.6313 91.8275 50.5533 90.8554 50.6703C90.5833 50.7093 90.35 50.7873 90.1167 50.9433C89.689 51.2553 89.1835 51.2553 88.7169 51.4113C88.5225 51.4893 88.4836 51.2943 88.4447 51.1383C88.0559 49.7342 87.7449 48.3302 87.6282 46.8871C87.4338 44.4299 87.356 41.9338 87.5893 39.4376C87.9393 35.7714 88.7947 32.2222 90.5055 28.907C91.2831 27.4249 92.2941 26.1378 93.6549 25.1238C94.627 24.5777 95.6379 24.1877 96.7266 24.0317C97.2321 23.9537 97.6987 23.9927 98.0486 24.4607C97.932 24.7337 97.6598 24.8507 97.4654 25.0067C95.7157 26.5278 94.7048 28.517 94.0049 30.6621C93.1495 33.2362 92.8384 35.9274 92.6829 38.6186C92.4496 42.3628 92.7607 46.068 93.4605 49.7732C93.4994 49.9683 93.4994 50.1243 93.7716 50.1243C95.1713 50.0853 96.3378 50.7093 97.4654 51.4503C99.1762 52.5814 100.537 54.0245 101.665 55.7406C101.937 56.2866 102.248 56.7937 102.481 57.3397C103.609 59.7969 104.036 62.371 103.998 65.0622Z" fill="#1A1B21"/>
<path d="M196.965 61.5993C196.965 70.3313 196.886 79.0243 196.965 87.7563C196.965 88.0682 197.082 88.2631 197.318 88.458C199.866 90.4851 202.376 92.5511 204.925 94.5782C205.16 94.7731 205.395 94.968 205.631 95.1629C205.905 95.4358 206.101 95.7477 205.944 96.1375C205.787 96.5273 205.434 96.6443 205.042 96.6443C203.239 96.6443 201.435 96.6443 199.631 96.6832C186.73 96.7612 173.869 96.8392 160.968 96.9171C160.537 96.9171 160.106 96.9171 159.714 96.9951C159.282 97.0341 159.165 96.8392 159.165 96.4494C159.165 95.7867 159.282 95.124 159.282 94.5003C159.243 91.8885 159.165 89.2766 159.165 86.6648C159.086 70.6822 158.969 54.6995 159.008 38.7168C159.008 37.6253 159.047 36.5728 159.086 35.4813C159.125 34.5847 159.753 34 160.615 34C171.124 34 181.672 34 192.181 34.039C193.475 34.039 194.73 34.078 196.024 34.078C196.573 34.078 196.808 34.3119 196.965 34.8186C197.043 35.0915 197.043 35.3254 197.043 35.5983C197.122 42.771 197.043 49.9437 197.004 57.1164C196.965 58.5977 196.965 60.079 196.965 61.5993ZM203.003 95.1629C202.964 94.968 202.847 94.8901 202.729 94.8121C200.494 93.0189 198.22 91.2647 195.984 89.4715C195.553 89.1207 195.318 88.6919 195.318 88.1072C195.357 86.4699 195.396 84.8717 195.396 83.2344C195.357 67.4856 195.357 51.7758 195.318 36.0271C195.318 35.6762 195.2 35.6372 194.887 35.6372C191.632 35.6762 188.377 35.6762 185.123 35.6762C177.163 35.6762 169.242 35.7152 161.282 35.7152C160.929 35.7152 160.851 35.7932 160.851 36.144C160.89 37.7423 160.89 39.3406 160.929 40.9778C160.968 51.3081 160.851 61.6383 160.851 71.9296C160.851 78.2447 160.812 84.5598 160.694 90.9139C160.655 92.3562 160.537 93.8376 160.733 95.2799C160.772 95.6697 160.929 95.6697 161.204 95.6697C163.556 95.6307 165.87 95.5917 168.223 95.5917C179.045 95.4358 189.867 95.3189 200.69 95.1629C201.435 95.1629 202.219 95.1629 203.003 95.1629Z" fill="#1A1B21"/>
<path d="M91 103.54C91.3909 102.061 91.7818 100.543 92.0946 99.0247C93.0327 94.3923 94.1273 89.7598 94.7919 85.0495C95.261 81.8185 95.6128 78.5485 95.5346 75.2396C95.5346 75.006 95.5737 74.9671 95.8082 74.9282C96.5119 74.8892 97.2546 74.8503 97.9583 74.6946C98.8964 74.5 99.8346 74.1885 100.734 73.8771C101.985 73.41 102.649 72.3589 103.157 71.23C104.056 69.1668 104.291 66.9868 104.33 64.729C104.369 62.043 103.939 59.4737 102.806 57.0212C102.571 56.4762 102.258 55.9702 101.985 55.4252C102.141 55.3473 102.258 55.4641 102.376 55.5419C102.806 55.7755 103.236 55.9702 103.744 56.048C104.917 56.2427 105.855 55.5419 106.011 54.3741C106.207 53.0505 105.855 51.8438 105.425 50.5981C105.034 49.5081 104.487 48.4959 103.783 47.4838C104.017 47.4838 104.213 47.4838 104.369 47.4838C105.894 47.4838 106.832 46.5495 106.91 45.0313C106.988 43.1239 106.285 41.4499 105.386 39.8539C105.19 39.5035 104.956 39.1532 104.604 38.7639C104.917 38.7639 105.112 38.8807 105.307 38.9975C107.731 40.321 110.272 41.3332 113.008 41.8392C115.158 42.2285 117.348 42.3842 119.498 41.7224C120.201 41.4889 120.866 41.1774 121.335 40.5546C121.999 39.6592 121.882 38.7639 121.452 37.8296C121.139 37.1678 120.67 36.5839 120.162 36C122.429 36.5061 124.658 37.1289 126.964 37.5571C127.238 37.9075 127.433 38.2578 127.629 38.6471C129.231 41.6835 130.326 44.9146 131.225 48.2624C131.46 49.1967 131.694 50.1309 131.85 51.1041C131.655 51.0652 131.538 51.0263 131.42 50.9873C130.482 50.6759 129.583 50.7149 128.684 51.1431C128.098 51.4545 127.824 51.8827 127.98 52.4277C128.098 52.9338 128.528 53.2452 129.192 53.2063C130.052 53.2063 130.951 53.1673 131.811 53.2452C132.124 53.2841 132.202 53.362 132.28 53.6734C132.632 56.2037 132.828 58.7341 132.945 61.3033C132.984 61.8094 132.945 62.3544 132.945 62.9383C132.554 62.4712 132.202 62.043 131.811 61.6537C131.655 61.498 131.616 61.3422 131.694 61.1087C132.046 60.2523 132.124 59.3569 131.929 58.4616C131.85 58.0723 131.577 57.8776 131.225 57.8387C130.834 57.7609 130.6 57.9555 130.404 58.2669C130.169 58.6562 130.052 59.0455 129.935 59.5126C129.622 59.2012 129.349 58.9676 129.075 58.6951C128.645 58.3058 128.254 57.9166 127.707 57.683C127.394 57.5662 127.081 57.4884 126.808 57.7998C126.573 58.0723 126.69 58.3837 126.847 58.6562C127.277 59.318 127.785 59.9408 128.293 60.5248C130.873 63.3276 133.297 66.2083 135.564 69.2836C135.877 69.7507 136.033 70.2179 135.994 70.8018C135.955 71.2689 135.681 71.5414 135.251 71.5804C134.313 71.6971 133.336 71.6971 132.398 71.4636C130.521 71.0354 128.762 70.4125 127.003 69.595C126.378 69.3225 125.752 69.089 125.088 68.8165C124.736 68.6607 124.384 68.7775 124.149 69.089C123.915 69.4393 124.071 69.7507 124.345 69.9843C124.501 70.14 124.697 70.2957 124.892 70.4125C127.159 71.7361 129.583 72.7482 132.202 73.1764C132.554 73.2153 132.593 73.3711 132.554 73.6825C132.359 74.7725 132.241 75.8625 132.046 76.9135C131.147 81.8963 129.739 86.7234 127.355 91.2391C127.081 91.7841 126.729 92.0177 126.143 91.9398C125.283 91.8619 124.423 91.7452 123.563 91.6673C120.514 91.3948 117.699 90.4216 115.08 88.9034C112.657 87.5409 110.819 85.5556 109.138 83.3756C108.591 82.7138 108.005 82.052 107.731 81.2345C107.536 80.7285 107.223 80.5728 106.988 80.6895C106.558 80.9231 106.715 81.2735 106.832 81.5849C106.832 81.6238 106.871 81.6238 106.871 81.6628C107.536 83.2977 108.317 84.8159 109.412 86.1784C109.568 86.3341 109.686 86.4898 109.607 86.7623C108.904 89.9934 108.474 93.3023 108.357 96.6112C108.2 99.8811 108.239 103.112 108.826 106.343C109.06 107.589 109.256 108.796 109.49 110.041C109.412 110.197 109.373 110.353 109.295 110.547C108.591 112.377 107.262 113.195 105.307 112.961C103.861 112.805 102.532 112.299 101.242 111.676C97.7628 110.002 94.87 107.589 92.2118 104.825C91.7818 104.475 91.3909 104.008 91 103.54ZM129.309 76.3685C129.309 76.3296 129.309 76.3296 129.309 76.2907C129.309 75.4732 129.309 75.4732 128.528 75.2396C128.449 75.2007 128.332 75.1618 128.254 75.0839C126.925 74.3053 125.557 73.6436 124.149 73.0596C120.983 71.7361 117.66 70.9575 114.259 70.7629C113.986 70.7629 113.712 70.8018 113.673 71.0743C113.634 71.4246 113.556 71.775 113.712 72.1254C114.22 73.2543 114.689 74.4221 115.315 75.4732C117.035 78.276 119.38 80.3781 122.351 81.7795C123.407 82.2856 124.579 82.4413 125.674 81.9742C127.629 81.1178 129.349 78.4706 129.309 76.3685ZM120.24 50.5591C117.856 50.7927 115.784 51.7659 113.986 53.362C113.79 53.5177 113.673 53.7123 113.595 53.9459C113.478 54.2573 113.399 54.5687 113.712 54.8412C114.025 55.0748 114.377 55.0748 114.689 54.8412C115.432 54.2962 116.253 53.9459 117.074 53.6734C118.129 53.323 119.224 53.362 120.318 53.2452C121.1 53.1673 121.648 52.6223 121.608 51.8827C121.608 51.1041 121.022 50.5591 120.24 50.5591ZM119.576 59.2791C119.576 59.2401 119.576 59.1623 119.576 59.1233C119.576 58.5005 119.224 57.9555 118.794 57.8387C118.325 57.7219 117.738 57.9555 117.426 58.5394C116.878 59.5905 116.722 60.7194 116.839 61.8872C116.918 62.5879 117.817 63.0162 118.325 62.6269C118.598 62.4322 118.794 62.1987 118.95 61.9262C119.341 61.0697 119.537 60.2133 119.576 59.2791ZM122.273 86.2174C122.429 86.2174 122.586 86.2174 122.742 86.1784C124.462 85.9059 126.065 85.2831 127.511 84.3099C127.746 84.1542 127.902 83.9206 127.746 83.6481C127.589 83.3367 127.316 83.3367 127.042 83.4535C125.4 84.0763 123.719 84.5045 122.038 84.777C121.882 84.8159 121.687 84.8159 121.53 84.8938C121.257 85.0106 121.022 85.2441 121.061 85.5556C121.1 85.867 121.335 86.0227 121.608 86.1395C121.804 86.2174 122.039 86.2174 122.273 86.2174Z" fill="white"/>
<path d="M128.712 38.2586C129.223 39.1609 129.811 40.0633 130.321 40.9656C132.009 44.2219 133.186 47.6743 133.932 51.2837C134.874 55.8738 135.188 60.5817 135.227 65.2503C135.227 65.7603 135.345 66.1526 135.659 66.5449C136.365 67.565 137.072 68.6242 137.543 69.762C137.739 70.2328 137.857 70.7035 137.935 71.2136C138.288 72.9005 137.15 73.8813 135.737 74.0775C135.423 74.1167 135.031 73.9598 134.874 74.1952C134.717 74.4306 134.756 74.7837 134.717 75.0975C134.481 76.863 134.168 78.5892 133.814 80.3154C133.775 80.4331 133.775 80.5508 133.775 80.6685C133.54 81.3354 133.422 82.0416 133.265 82.7086C132.794 84.2778 132.323 85.8471 131.734 87.3772C131.106 89.0249 130.4 90.5942 129.497 92.085C129.183 92.5951 128.869 93.0658 128.516 93.5366C128.398 93.6935 128.241 93.8505 128.085 93.8897C127.496 94.0859 126.907 94.3605 126.279 94.3605C121.609 94.3997 117.292 93.1835 113.368 90.555C112.622 90.045 111.994 89.4565 111.327 88.8288C111.17 89.2603 111.17 89.6919 111.131 90.0842C110.62 94.5174 110.149 98.9114 110.189 103.384C110.189 103.776 110.228 104.169 110.228 104.561C110.267 105.385 110.306 106.209 110.346 107.072C110.424 108.288 110.346 109.543 109.992 110.72C109.953 110.838 110.032 111.034 109.796 110.995C109.561 109.739 109.365 108.523 109.129 107.268C108.54 104.012 108.54 100.755 108.658 97.4598C108.815 94.1251 109.208 90.8296 109.914 87.5341C109.953 87.2595 109.835 87.1026 109.718 86.9456C108.619 85.5725 107.795 84.0425 107.167 82.3947C107.167 82.3555 107.128 82.3555 107.128 82.3162C107.01 81.9632 106.853 81.6493 107.285 81.4139C107.52 81.2962 107.873 81.4531 108.03 81.9632C108.305 82.787 108.933 83.454 109.443 84.1209C111.131 86.2787 112.975 88.2795 115.408 89.6919C118.038 91.2219 120.863 92.2027 123.925 92.4774C124.788 92.5558 125.651 92.6343 126.515 92.752C127.103 92.8304 127.457 92.5558 127.731 92.0458C130.125 87.4949 131.538 82.6301 132.441 77.6084C132.637 76.5099 132.794 75.4506 132.951 74.3521C132.99 74.0383 132.951 73.9206 132.598 73.8421C129.968 73.4106 127.574 72.3905 125.259 71.0566C125.063 70.9389 124.866 70.782 124.709 70.6251C124.435 70.3897 124.278 70.0758 124.513 69.7227C124.749 69.4089 125.063 69.2912 125.455 69.4481C126.083 69.6835 126.75 69.9189 127.378 70.2328C129.105 71.0174 130.91 71.6843 132.794 72.1159C133.736 72.3121 134.678 72.3121 135.659 72.2336C136.091 72.1944 136.365 71.959 136.405 71.449C136.444 70.8605 136.287 70.3897 135.973 69.9189C133.736 66.8196 131.263 63.9164 128.673 61.0917C128.124 60.5032 127.614 59.9147 127.221 59.2085C127.064 58.9339 126.907 58.6593 127.182 58.3454C127.457 58.0316 127.771 58.11 128.085 58.2277C128.634 58.4631 129.026 58.8947 129.458 59.2478C129.733 59.4832 130.008 59.7578 130.321 60.0716C130.439 59.6009 130.596 59.1693 130.792 58.8162C130.989 58.5024 131.224 58.3062 131.617 58.3847C131.97 58.4631 132.245 58.6593 132.323 59.0124C132.558 59.9147 132.441 60.8171 132.088 61.6802C132.009 61.9156 132.048 62.0333 132.205 62.2294C132.598 62.6217 132.951 63.0533 133.343 63.5241C133.343 62.9356 133.383 62.3863 133.343 61.8763C133.226 59.3262 133.029 56.7369 132.676 54.1868C132.637 53.873 132.519 53.7945 132.205 53.7553C131.342 53.6768 130.439 53.6768 129.576 53.716C128.909 53.716 128.477 53.4414 128.359 52.9314C128.241 52.3822 128.477 51.9114 129.066 51.6367C129.968 51.2052 130.871 51.166 131.813 51.4798C131.931 51.5191 132.048 51.5583 132.245 51.5975C132.088 50.6167 131.852 49.6751 131.617 48.7336C130.753 45.3988 129.615 42.1426 128.006 39.0432C127.81 38.6509 127.614 38.2978 127.339 37.9447C127.3 37.8663 127.26 37.7878 127.221 37.7094C127.143 37.4347 127.182 37.1993 127.417 37.0816C127.692 36.9247 127.928 37.0032 128.085 37.2386C128.281 37.5917 128.516 37.9447 128.712 38.2586Z" fill="#1A1B21"/>
<path d="M129.999 76.91C130.039 79.1467 128.325 81.9122 126.292 82.7256C125.136 83.1729 123.981 83.0509 122.904 82.5222C119.875 81.0582 117.483 78.8621 115.73 75.9339C115.052 74.8359 114.574 73.6158 114.095 72.4364C113.936 72.0704 114.016 71.7044 114.056 71.3384C114.095 71.013 114.374 70.9723 114.653 71.013C118.161 71.257 121.509 72.0297 124.738 73.4125C126.173 74.0225 127.608 74.7139 128.923 75.5272C129.003 75.5679 129.083 75.6492 129.202 75.6899C129.959 75.9746 129.959 75.9746 129.999 76.788C129.999 76.8286 129.999 76.8693 129.999 76.91ZM115.969 72.5584C116.407 73.3718 116.766 74.1038 117.165 74.8359C117.204 74.9579 117.324 74.9985 117.444 75.0799C119.158 75.8526 120.951 76.3406 122.785 76.7066C124.499 77.032 126.253 77.1946 127.966 77.4387C128.206 77.4793 128.525 77.6827 128.644 77.398C128.724 77.154 128.325 77.154 128.126 77.0726C125.535 75.9339 122.944 74.7139 120.274 73.7785C118.839 73.2498 117.444 72.8838 115.969 72.5584Z" fill="#1A1B21"/>
<path d="M120.614 51C121.383 51 121.96 51.4934 121.998 52.163C122.037 52.8326 121.498 53.3612 120.729 53.3965C119.653 53.467 118.576 53.467 117.538 53.7841C116.692 54.0308 115.885 54.348 115.193 54.8414C114.885 55.0529 114.539 55.0529 114.232 54.8414C113.924 54.63 113.963 54.3128 114.117 54.0308C114.193 53.8546 114.309 53.6432 114.501 53.5022C116.27 52.1278 118.269 51.2115 120.614 51Z" fill="#1A1B21"/>
<path d="M120 59.5174C119.958 60.4196 119.747 61.3217 119.324 62.1454C119.155 62.4592 118.944 62.6946 118.649 62.8514C118.1 63.2437 117.129 62.8122 117.044 62.1062C116.917 60.9295 117.044 59.792 117.678 58.7329C118.015 58.1838 118.649 57.9092 119.155 58.0269C119.662 58.1446 120 58.6937 120 59.3213C120 59.3997 120 59.4782 120 59.5174Z" fill="#1A1B21"/>
<path d="M122.301 87C122.058 87 121.815 87 121.572 86.9176C121.288 86.8353 121.045 86.6294 121.004 86.2999C120.964 85.9292 121.207 85.7233 121.491 85.5998C121.653 85.5174 121.856 85.4762 122.018 85.4762C123.801 85.188 125.544 84.7349 127.205 84.076C127.489 83.9525 127.773 83.9525 127.935 84.2819C128.097 84.5702 127.935 84.8173 127.692 84.982C126.192 86.0116 124.53 86.6705 122.747 86.9588C122.666 87 122.463 87 122.301 87Z" fill="#1A1B21"/>
<path d="M133 82.1199C133.157 81.3861 133.275 80.693 133.51 80C133.667 80.0408 133.785 80.1223 133.903 80.2038C135.551 81.753 137.161 83.3021 138.417 85.2181C138.849 85.8704 139.163 86.6042 139.438 87.338C139.555 87.6641 139.752 87.9087 140.026 88.1126C140.694 88.6018 141.282 89.1725 141.714 89.9063C142.028 90.3955 142.107 90.9254 141.832 91.4554C141.557 91.9446 141.047 91.9446 140.537 91.9854C138.456 92.1484 137.122 90.9254 135.905 89.4171C135.63 89.0909 135.473 88.6833 135.512 88.2349C135.551 87.5011 136.101 86.9711 136.847 86.9303C136.965 86.9303 137.082 86.9303 137.318 86.9303C135.983 85.1366 134.492 83.6282 133 82.1199Z" fill="#275CF6"/>
<path d="M92.1805 63C93.0057 64.1823 93.9341 65.1456 95 66.0652C94.4499 66.2403 94.0029 66.3717 93.5215 66.5469C93.0745 66.6782 92.6619 66.8096 92.2149 66.9847C92.043 67.0285 91.9742 66.9847 92.0086 66.7658C92.0774 65.4959 92.1461 64.2699 92.1805 63Z" fill="#1A1B21"/>
<path d="M185.522 91.9898C184.373 91.9071 183.763 90.9969 184.086 89.7144C184.409 88.5147 185.055 87.5632 186.096 87.1081C186.994 86.6944 188.035 87.5218 187.999 88.6802C187.963 89.9213 187.461 90.9556 186.563 91.7002C186.24 91.9485 185.881 92.0312 185.522 91.9898Z" fill="#1A1B21"/>
<path d="M170.63 86.0103C171.481 86.0103 172.035 86.6262 171.998 87.5706C171.961 89.0487 171.407 90.1574 170.15 90.8143C169.484 91.1839 168.671 90.9786 168.227 90.4037C167.969 90.0753 167.969 89.6647 168.043 89.254C168.227 87.9812 168.856 86.9547 169.854 86.2566C170.113 86.0513 170.372 85.9692 170.63 86.0103Z" fill="#1A1B21"/>
<path d="M179.996 88.3575C179.955 89.5012 179.505 90.3232 178.4 90.8236C177.786 91.1095 177.132 91.038 176.559 90.6806C176.027 90.3232 175.904 89.7514 176.068 89.2153C176.354 88.2861 177.009 87.5355 177.991 87.1067C178.809 86.7493 180.078 87.3211 179.996 88.3575Z" fill="#1A1B21"/>
<path d="M116 73C117.437 73.3288 118.761 73.7397 120.047 74.1918C122.581 75.137 125.04 76.3699 127.498 77.5206C127.688 77.6028 128.066 77.6028 127.99 77.8494C127.914 78.1371 127.574 77.9316 127.347 77.8905C125.721 77.6439 124.056 77.4795 122.43 77.1508C120.69 76.7809 118.988 76.2466 117.362 75.5069C117.248 75.4658 117.173 75.3836 117.097 75.2603C116.756 74.5617 116.378 73.8219 116 73Z" fill="white"/>
<path d="M147.881 115.759C147.881 117.607 147.881 119.454 147.881 121.301C147.881 135.118 147.881 110.833 147.881 124.65C147.881 126.343 147.881 128.037 147.881 129.73C147.881 130.538 147.647 130.962 147.18 131C146.713 131 146.48 130.577 146.48 129.768C146.48 114.989 146.48 138.313 146.48 123.534C146.48 121.224 146.48 118.877 146.48 116.529C146.324 116.644 146.285 116.798 146.207 116.914C144.845 119.3 143.483 121.686 142.159 124.072C142.043 124.265 141.926 124.457 141.731 124.534C141.498 124.611 141.303 124.573 141.147 124.38C140.914 124.111 140.992 123.841 141.147 123.572C141.653 122.648 142.12 121.725 142.626 120.762C143.911 118.376 145.156 115.99 146.441 113.604C146.869 112.834 147.258 112.834 147.92 113.412C148.893 114.22 149.282 115.374 149.944 116.375C151.228 118.415 152.474 120.532 153.719 122.61C153.758 122.687 153.797 122.725 153.836 122.802C154.109 123.264 154.031 123.611 153.68 123.841C153.33 124.072 152.941 123.957 152.668 123.495C151.656 121.84 150.645 120.147 149.633 118.492C149.088 117.607 148.582 116.721 148.037 115.875C147.959 115.721 147.92 115.721 147.881 115.759Z" fill="white"/>
<path d="M174.241 122.881C172.393 122.881 170.546 122.881 168.699 122.881C154.882 122.881 179.167 122.881 165.35 122.881C163.657 122.881 161.963 122.881 160.27 122.881C159.462 122.881 159.038 122.647 159 122.18C159 121.713 159.423 121.48 160.232 121.48C175.011 121.48 151.687 121.48 166.466 121.48C168.776 121.48 171.123 121.48 173.471 121.48C173.356 121.324 173.202 121.285 173.086 121.207C170.7 119.845 168.314 118.483 165.928 117.159C165.735 117.043 165.543 116.926 165.466 116.731C165.389 116.498 165.427 116.303 165.62 116.147C165.889 115.914 166.159 115.992 166.428 116.147C167.352 116.653 168.275 117.12 169.238 117.626C171.624 118.911 174.01 120.156 176.396 121.441C177.166 121.869 177.166 122.258 176.588 122.92C175.78 123.893 174.626 124.282 173.625 124.944C171.585 126.228 169.468 127.474 167.39 128.719C167.313 128.758 167.275 128.797 167.198 128.836C166.736 129.109 166.389 129.031 166.159 128.68C165.928 128.33 166.043 127.941 166.505 127.668C168.16 126.656 169.853 125.645 171.508 124.633C172.393 124.088 173.279 123.582 174.125 123.037C174.279 122.959 174.279 122.92 174.241 122.881Z" fill="white"/>
<path d="M195.241 122.881C193.393 122.881 191.546 122.881 189.699 122.881C175.882 122.881 200.167 122.881 186.35 122.881C184.657 122.881 182.963 122.881 181.27 122.881C180.462 122.881 180.038 122.647 180 122.18C180 121.713 180.423 121.48 181.232 121.48C196.011 121.48 172.687 121.48 187.466 121.48C189.776 121.48 192.123 121.48 194.471 121.48C194.356 121.324 194.202 121.285 194.086 121.207C191.7 119.845 189.314 118.483 186.928 117.159C186.735 117.043 186.543 116.926 186.466 116.731C186.389 116.498 186.427 116.303 186.62 116.147C186.889 115.914 187.159 115.992 187.428 116.147C188.352 116.653 189.275 117.12 190.238 117.626C192.624 118.911 195.01 120.156 197.396 121.441C198.166 121.869 198.166 122.258 197.588 122.92C196.78 123.893 195.626 124.282 194.625 124.944C192.585 126.228 190.468 127.474 188.39 128.719C188.313 128.758 188.275 128.797 188.198 128.836C187.736 129.109 187.389 129.031 187.159 128.68C186.928 128.33 187.043 127.941 187.505 127.668C189.16 126.656 190.853 125.645 192.508 124.633C193.393 124.088 194.279 123.582 195.125 123.037C195.279 122.959 195.279 122.92 195.241 122.881Z" fill="white"/>
<path d="M88.0094 63.9247C88.0094 63.7132 87.9719 63.5016 88.0469 63.2901C88.1593 62.9516 88.4593 62.9093 88.6842 63.1632C89.3591 63.7978 89.7715 64.6439 90.1464 65.5746C90.4839 66.4631 90.7088 67.3938 90.9713 68.3245C91.0463 68.6207 90.9713 68.8322 90.7838 68.9591C90.5963 69.0438 90.4089 69.0015 90.2589 68.7899C89.3216 67.3515 88.4968 65.8285 88.0469 64.0939C88.0469 64.0093 88.0094 63.967 88.0094 63.9247Z" fill="white"/>
<path d="M96.9563 66.1809C96.9947 66.4751 97.0715 66.7693 96.8411 66.9374C96.5723 67.1056 96.3804 66.8954 96.1884 66.7693C95.9581 66.6012 95.8045 66.391 95.6509 66.1388C95.2286 65.2141 94.7679 64.3315 94.4607 63.3647C94.3071 62.8603 94.1536 62.398 94.0384 61.8936C94 61.7675 94 61.5994 94 61.4733C94.0384 61.2631 94.0768 61.095 94.3071 61.0109C94.4991 60.9689 94.6143 61.053 94.7679 61.1791C95.1902 61.5994 95.4973 62.1458 95.7661 62.6922C96.3036 63.785 96.6875 64.9619 96.9563 66.1809Z" fill="white"/>
<path d="M90.6874 60.2543C91.3477 60.1271 91.8842 60 92.5031 60C92.7095 60 92.8745 60.0424 92.9571 60.2119C93.0396 60.3814 92.9983 60.5509 92.8745 60.7204C92.7507 60.8899 92.6269 60.9747 92.4619 61.0595C91.4715 61.6104 90.3986 61.907 89.2844 61.9918C88.913 62.0342 88.5829 61.907 88.2528 61.7375C87.9639 61.568 87.9226 61.3561 88.129 61.1018C88.294 60.8899 88.5416 60.8052 88.7892 60.7204C89.4082 60.5085 90.0685 60.3814 90.6874 60.2543Z" fill="white"/>
</g>
<defs>
<clipPath id="clip0_164_14554">
<rect width="149" height="123" fill="white" transform="translate(57 15)"/>
</clipPath>
</defs>
</svg>
