<svg width="35" height="34" viewBox="0 0 35 34" fill="none" xmlns="http://www.w3.org/2000/svg">
<path d="M34.8125 17C34.8125 7.61116 27.2013 0 17.8125 0C8.42366 0 0.8125 7.61116 0.8125 17C0.8125 26.3888 8.42366 34 17.8125 34C27.2013 34 34.8125 26.3888 34.8125 17Z" fill="white"/>
<path fill-rule="evenodd" clip-rule="evenodd" d="M24.9738 8.60771L7.40568 15.2462C6.20577 15.7165 6.21285 16.3725 7.1861 16.6629L11.5679 18.0045L13.2452 23.0393C13.4478 23.5904 13.3486 23.8085 13.9394 23.8085C14.3941 23.8085 14.5967 23.6045 14.8503 23.3623L17.0419 21.2741L21.5993 24.5735C22.4379 25.0269 23.0443 24.7917 23.2525 23.81L26.2445 10.0003C26.5505 8.79612 25.777 8.25071 24.9738 8.60771ZM12.2564 17.6956L22.1319 11.5926C22.6249 11.2994 23.0769 11.4566 22.7057 11.7796L14.2482 19.254L13.9195 22.6936L12.2564 17.6956Z" fill="#222222"/>
</svg>
