<svg width="33" height="38" viewBox="0 0 33 38" fill="none" xmlns="http://www.w3.org/2000/svg">
<path d="M30.1175 16.5411C26.7648 15.8188 23.8296 13.8304 21.937 10.9993C20.0468 8.17197 19.3495 4.72546 19.9942 1.39634C20.2386 0.0063631 18.1369 -0.616106 17.8193 0.810132C17.2113 3.6856 15.9238 6.37783 14.0619 8.66652C12.1996 10.9541 9.81749 12.7742 7.10945 13.9787C6.44326 13.8539 5.76426 13.8093 5.08724 13.8457C3.76149 13.9243 3.65152 15.7856 4.739 16.0697C4.76225 16.2132 4.81789 16.3497 4.90184 16.469C4.98578 16.5883 5.09584 16.6874 5.22383 16.7588C5.35181 16.8302 5.49445 16.8722 5.64109 16.8816C5.78773 16.891 5.93462 16.8675 6.07085 16.813C6.46185 16.68 6.82231 16.529 7.21942 16.3839C13.4327 18.5112 13.2372 32.1088 12.6568 36.9012C12.5285 37.9648 14.3246 38.4543 14.7523 37.4572C17.6604 30.6765 22.1447 20.5962 30.1175 18.7227C30.368 18.667 30.5918 18.5287 30.7522 18.3304C30.9126 18.1322 31 17.8858 31 17.6319C31 17.378 30.9126 17.1316 30.7522 16.9333C30.5918 16.7351 30.368 16.5967 30.1175 16.5411ZM15.1678 31.1056C15.07 25.2677 13.8848 18.0096 9.78538 15.1148C13.2062 13.1964 16.0148 10.3678 17.8926 6.95021C18.3635 9.28076 19.3898 11.4665 20.8862 13.326C22.3818 15.1884 24.3043 16.6717 26.4946 17.653C21.3994 20.2094 17.8376 25.7633 15.1922 31.1116H15.1678V31.1056Z" fill="#275CF6"/>
</svg>
