<svg width="512" height="143" viewBox="0 0 512 143" fill="none" xmlns="http://www.w3.org/2000/svg">
<path d="M511.12 93.1041C516.688 21.714 416.758 -29.4325 357.562 31.5913C337.635 52.1282 326.499 84.6938 339.491 113.641C368.209 177.892 430.727 101.906 344.179 42.3487C250.111 -22.2935 87.0776 50.8568 0.628113 37.3612C-0.446411 37.1656 0.0420532 30.9067 0.72583 31.0045C89.8128 45.2825 279.318 -39.4076 364.888 53.9863C424.279 118.726 364.107 179.555 338.318 116.379C329.429 94.571 331.676 67.9709 342.323 47.5318C388.039 -39.9943 520.107 3.91543 511.608 93.7887C511.51 96.0379 511.022 94.1798 511.12 93.1041Z" fill="#275CF6"/>
</svg>
