<svg width="31" height="40" viewBox="0 0 31 40" fill="none" xmlns="http://www.w3.org/2000/svg">
<g filter="url(#filter0_d_697_3043)">
<path d="M25.1219 11.2494C22.3209 11.3915 19.5826 10.4438 17.4904 8.60817C15.4009 6.77507 14.1233 4.19873 13.9307 1.42979C13.8307 0.278975 12.0391 0.233857 12.0888 1.42893C12.2148 3.83142 11.7652 6.23359 10.7768 8.43888C9.78781 10.6434 8.28955 12.5889 6.404 14.117C5.85137 14.1601 5.30551 14.2692 4.77831 14.442C3.74746 14.7861 4.05303 16.2809 4.97209 16.2742C5.02072 16.3827 5.09347 16.4788 5.18495 16.5553C5.27642 16.6317 5.38426 16.6866 5.50044 16.7159C5.61661 16.7451 5.73815 16.748 5.85599 16.7242C5.97382 16.7004 6.08493 16.6507 6.18106 16.5786C6.46194 16.3903 6.71487 16.1942 6.99803 15.9951C12.3554 16.3554 15.0679 27.1465 15.6199 31.0586C15.7428 31.9267 17.265 31.9317 17.3927 31.0524C18.2605 25.0735 19.678 16.1508 25.5819 12.9741C25.7681 12.8768 25.9158 12.7198 26.0007 12.529C26.0856 12.3382 26.1027 12.1248 26.0492 11.9241C25.9956 11.7233 25.8746 11.5471 25.7061 11.4245C25.5376 11.3019 25.3316 11.2401 25.1219 11.2494ZM16.3817 25.9428C15.0736 21.3485 12.6068 15.8627 8.7577 14.4461C11.0558 12.202 12.6784 9.36853 13.4413 6.26736C14.3048 8.0096 15.5765 9.51929 17.1508 10.671C18.7251 11.8253 20.5567 12.589 22.4941 12.899C19.0076 16.0035 17.3646 21.1517 16.4023 25.9424L16.383 25.9476L16.3817 25.9428Z" fill="#275CF6"/>
</g>
<defs>
<filter id="filter0_d_697_3043" x="0.131836" y="0.549805" width="29.9482" height="39.1611" filterUnits="userSpaceOnUse" color-interpolation-filters="sRGB">
<feFlood flood-opacity="0" result="BackgroundImageFix"/>
<feColorMatrix in="SourceAlpha" type="matrix" values="0 0 0 0 0 0 0 0 0 0 0 0 0 0 0 0 0 0 127 0" result="hardAlpha"/>
<feOffset dy="4"/>
<feGaussianBlur stdDeviation="2"/>
<feComposite in2="hardAlpha" operator="out"/>
<feColorMatrix type="matrix" values="0 0 0 0 0 0 0 0 0 0 0 0 0 0 0 0 0 0 0.25 0"/>
<feBlend mode="normal" in2="BackgroundImageFix" result="effect1_dropShadow_697_3043"/>
<feBlend mode="normal" in="SourceGraphic" in2="effect1_dropShadow_697_3043" result="shape"/>
</filter>
</defs>
</svg>
