<svg width="23" height="31" viewBox="0 0 23 31" fill="none" xmlns="http://www.w3.org/2000/svg">
<path d="M21.6423 13.494C18.8992 12.9049 16.4977 11.2827 14.9492 8.97309C13.4026 6.66661 12.8321 3.85498 13.3596 1.13912C13.5595 0.00519095 11.84 -0.502613 11.5801 0.660897C11.0827 3.00667 10.0292 5.20296 8.50593 7.07006C6.98223 8.93622 5.03321 10.4211 2.81754 11.4036C2.27247 11.3019 1.71693 11.2654 1.163 11.2952C0.0782954 11.3593 -0.0116833 12.8777 0.878071 13.1095C0.897095 13.2266 0.942624 13.3379 1.0113 13.4352C1.07998 13.5326 1.17004 13.6134 1.27475 13.6717C1.37946 13.7299 1.49617 13.7642 1.61615 13.7718C1.73613 13.7795 1.85631 13.7604 1.96777 13.7159C2.28768 13.6074 2.5826 13.4842 2.90751 13.3658C7.9911 15.1012 7.83113 26.194 7.35626 30.1036C7.25129 30.9713 8.72088 31.3707 9.07078 30.5572C11.4501 25.0256 15.1191 16.8021 21.6423 15.2738C21.8472 15.2284 22.0304 15.1155 22.1616 14.9538C22.2928 14.792 22.3643 14.5911 22.3643 14.3839C22.3643 14.1768 22.2928 13.9758 22.1616 13.814C22.0304 13.6523 21.8472 13.5394 21.6423 13.494ZM9.41071 25.3756C9.33074 20.6131 8.36101 14.692 5.00693 12.3305C7.80575 10.7655 10.1037 8.45798 11.6401 5.6699C12.0254 7.57114 12.8651 9.35427 14.0894 10.8712C15.3131 12.3906 16.886 13.6006 18.6781 14.4012C14.5093 16.4866 11.5951 21.0174 9.4307 25.3806H9.41071V25.3756Z" fill="#275CF6"/>
</svg>
