<svg width="35" height="34" viewBox="0 0 35 34" fill="none" xmlns="http://www.w3.org/2000/svg">
<path d="M34.8125 17C34.8125 7.61116 27.2013 0 17.8125 0C8.42366 0 0.8125 7.61116 0.8125 17C0.8125 26.3888 8.42366 34 17.8125 34C27.2013 34 34.8125 26.3888 34.8125 17Z" fill="white"/>
<path fill-rule="evenodd" clip-rule="evenodd" d="M18.1468 23.1157C18.1468 23.1157 18.5293 23.0732 18.7262 22.8692C18.9061 22.6794 18.9005 22.3238 18.9005 22.3238C18.9005 22.3238 18.875 20.6606 19.6655 20.4156C20.446 20.1747 21.4476 22.0235 22.5087 22.7346C23.312 23.273 23.9211 23.154 23.9211 23.154L26.7587 23.1157C26.7587 23.1157 28.2434 23.0265 27.5393 21.8875C27.4826 21.794 27.1285 21.0446 25.4299 19.5046C23.6505 17.8925 23.8885 18.1531 26.032 15.3651C27.3367 13.6666 27.8595 12.631 27.6965 12.1861C27.5407 11.764 26.5802 11.8745 26.5802 11.8745L23.3856 11.8943C23.3856 11.8943 23.149 11.8631 22.9734 11.9651C22.8005 12.0657 22.69 12.2995 22.69 12.2995C22.69 12.2995 22.1843 13.6141 21.51 14.7319C20.0876 17.0892 19.5195 17.2125 19.2858 17.068C18.746 16.7266 18.8806 15.6966 18.8806 14.9656C18.8806 12.6806 19.2348 11.7271 18.1893 11.4806C17.8408 11.3985 17.5858 11.3446 16.6975 11.3361C15.5571 11.3248 14.5924 11.339 14.047 11.6011C13.6829 11.7753 13.4024 12.1621 13.5738 12.1833C13.7849 12.2116 14.2623 12.3108 14.5159 12.6466C14.8431 13.0815 14.8318 14.0576 14.8318 14.0576C14.8318 14.0576 15.0202 16.7478 14.3926 17.0821C13.962 17.3102 13.3712 16.8427 12.1033 14.7036C11.4516 13.6085 10.9629 12.3958 10.9629 12.3958C10.9629 12.3958 10.868 12.1691 10.6994 12.0487C10.494 11.9028 10.2078 11.8575 10.2078 11.8575L7.17328 11.8745C7.17328 11.8745 6.71712 11.8886 6.54995 12.0813C6.39978 12.2527 6.5372 12.6083 6.5372 12.6083C6.5372 12.6083 8.91295 18.037 11.6046 20.7726C14.0739 23.2801 16.8775 23.1157 16.8775 23.1157H18.1482H18.1468Z" fill="#222222"/>
</svg>
